<svg width="1052" height="1193" viewBox="0 0 1052 1193" fill="none" xmlns="http://www.w3.org/2000/svg">
<path d="M990.715 525.775C980.987 497.404 970.45 426.072 945.322 369.331C933.163 343.392 875.611 305.295 839.945 282.598C835.082 276.924 821.302 255.849 816.438 249.364L804.279 241.258L801.848 226.668L805.09 229.099C813.196 232.342 805.9 215.319 799.416 203.161L802.658 203.971C805.09 204.782 805.09 200.729 804.279 198.297L747.538 104.269C758.886 93.7311 772.666 76.7088 771.045 55.6335C769.424 34.5582 751.591 10.2405 729.705 6.18758L732.948 3.75581C736.19 -1.9183 711.872 -0.297128 697.282 2.94523C689.986 -3.53948 668.911 14.2935 661.616 39.4217C634.056 40.2323 606.496 32.1264 548.944 40.2323C540.027 41.8535 540.028 45.0958 542.459 45.9064C521.384 47.5276 501.93 60.497 487.339 71.8452C482.476 63.7393 459.779 41.0429 439.515 49.1488L441.136 52.3911C431.409 50.7699 407.091 66.1711 408.712 76.7087C399.796 92.1099 394.122 138.313 438.704 155.336C435.462 179.653 437.893 203.161 434.651 220.183C431.409 238.016 418.439 268.818 423.303 286.651L426.545 285.03C426.545 293.136 429.788 312.59 437.083 312.59L438.704 309.348C441.136 319.885 450.863 336.908 451.673 330.423L455.726 329.612C458.158 339.339 477.612 353.119 489.771 364.468C472.749 384.732 441.136 410.671 432.219 452.822C402.228 446.337 368.993 443.095 326.843 441.473C327.653 423.641 328.464 409.05 327.653 396.891C323.601 382.301 302.525 379.058 293.609 377.437L295.23 346.635C292.798 332.855 266.859 332.855 254.701 331.233C258.753 320.696 252.269 309.348 238.489 311.779C240.921 301.242 244.163 293.136 251.458 286.651C252.269 285.841 252.269 284.219 251.458 283.409C247.405 280.166 236.868 299.621 235.246 312.59C220.656 309.348 215.792 323.128 219.035 331.233C206.065 332.855 176.073 332.855 176.073 345.824V376.626C146.892 382.301 144.461 387.164 144.461 402.565L146.892 440.663C98.257 443.905 0.986411 453.632 0.175823 473.897C-4.68771 503.078 92.5829 513.616 138.786 516.858C149.324 532.259 170.399 554.145 181.748 565.493C195.528 601.159 226.33 613.318 257.943 635.204C257.943 656.279 268.48 666.006 275.776 672.491C279.018 700.051 288.745 708.157 333.328 725.179C365.751 738.959 400.606 751.118 430.598 747.876C450.052 747.065 454.916 741.391 487.339 694.377C489.771 735.717 482.476 814.344 486.529 823.261C489.771 830.556 501.93 843.525 508.415 850.01L515.71 867.032C507.604 897.024 491.392 957.818 494.635 985.378C505.983 1038.88 522.195 1061.57 504.362 1071.3C487.339 1081.84 458.969 1095.62 458.969 1119.94C458.969 1146.69 497.877 1153.98 514.899 1153.98C552.186 1156.41 630.003 1147.5 655.942 1132.91C677.828 1119.94 659.995 1075.35 684.312 1030.77C694.039 1012.94 710.251 995.105 720.789 981.325L743.485 982.136C746.728 982.136 761.318 1069.68 754.833 1131.28C754.833 1179.11 839.945 1203.43 900.739 1187.21C945.322 1176.68 939.647 1150.74 916.14 1108.59C912.088 1095.62 953.427 1001.59 976.124 952.955C985.851 931.879 998.01 892.971 1004.49 880.002C1014.22 879.191 1038.54 892.971 1046.65 896.214C1050.7 897.024 1050.7 876.759 1051.51 852.442C1054.75 741.391 1018.27 615.75 990.715 525.775ZM805.9 257.47C781.583 319.885 720.789 357.983 656.752 402.565L640.54 413.913C630.003 422.83 653.51 409.05 660.805 404.997C718.357 368.521 769.424 333.665 799.416 269.629C798.605 285.03 785.636 329.612 779.151 346.635C761.318 382.301 733.758 418.777 702.145 447.148C701.335 430.936 698.092 404.997 689.176 400.944C680.259 396.891 636.488 426.883 633.245 430.936C627.571 426.883 611.359 426.883 603.253 439.042C595.148 434.989 558.671 417.156 550.565 422.83C547.323 425.262 547.323 439.042 548.133 453.632C540.028 449.579 527.869 433.368 523.816 426.883L516.52 381.49C530.3 390.406 588.663 421.209 595.148 422.83C599.2 422.83 564.345 406.618 542.459 394.459C518.952 382.301 473.559 352.309 457.348 328.802L455.726 332.044C451.673 325.559 442.757 311.779 442.757 304.484L437.893 307.726C433.03 299.621 431.409 285.03 434.651 271.25C433.03 268.818 428.977 276.924 426.545 279.356C428.977 256.659 441.946 228.289 442.757 210.456C445.189 167.495 442.757 142.366 467.075 101.837C463.022 93.7311 445.189 118.859 441.136 149.662C412.765 143.177 393.311 106.701 419.25 72.6558H414.386C422.492 62.1182 430.598 56.444 449.242 56.444L445.999 52.3911C458.969 49.9593 474.37 61.3076 483.286 74.277C481.665 76.7088 467.075 90.4888 467.885 94.5417C499.498 70.224 518.142 56.4441 551.376 49.9593C558.671 49.9593 550.565 45.9064 548.133 45.0958C595.148 40.2323 613.791 40.2323 661.616 45.0958L664.048 50.7699C668.1 33.7476 677.828 14.2935 693.229 7.80876L692.418 14.2935C701.335 9.42993 710.251 5.37699 722.41 7.80876L720.789 10.2405C745.917 9.42993 763.75 33.7476 765.371 58.0652C765.371 74.277 753.212 92.9205 737 105.89L743.485 106.701L794.552 195.865L787.257 194.244L799.416 220.183L793.742 219.372L798.605 257.47H805.9ZM640.54 465.791L639.73 455.253L665.669 446.337L666.479 443.905C662.426 443.095 643.783 447.148 639.73 449.579C639.73 446.337 637.298 437.421 637.298 434.989C649.457 426.883 681.88 404.997 689.986 406.618C694.85 409.05 700.524 467.412 694.039 483.624C681.88 486.056 643.783 467.412 640.54 465.791ZM631.624 434.989C634.056 437.421 636.487 465.791 634.056 467.412C629.192 471.465 620.276 473.897 616.223 470.655C608.928 463.359 604.064 447.148 608.928 439.852C617.033 434.989 623.518 434.178 631.624 434.989ZM603.253 443.095V453.632L579.746 461.738V462.549L601.632 460.117L608.117 471.465C603.253 475.518 574.883 502.268 566.777 499.836C559.482 495.783 548.133 437.421 554.618 426.883C562.724 425.262 592.716 437.421 603.253 443.095ZM236.057 315.832L240.11 316.643C252.269 309.348 256.322 327.991 248.216 336.908C240.11 344.203 223.898 341.771 222.277 327.991C222.277 317.453 227.951 312.59 236.057 315.832ZM180.126 348.256C180.126 336.097 211.739 336.908 218.224 336.097C226.33 348.256 246.595 345.824 253.079 333.665C266.859 336.097 291.177 336.908 291.177 345.824V357.172C288.745 365.278 281.45 357.983 270.912 357.983C260.375 357.983 256.322 373.384 240.11 372.573C231.193 372.573 223.898 357.983 214.982 357.983C199.581 357.983 202.012 364.468 189.853 360.415C184.179 357.983 178.505 356.362 180.126 348.256ZM181.748 372.573V364.468C187.422 366.089 188.232 368.521 194.717 368.521C202.012 368.521 207.686 362.036 214.982 362.036C223.088 362.036 227.951 370.142 236.057 373.384C222.277 374.195 189.853 372.573 181.748 372.573ZM181.748 376.626C210.929 381.49 255.511 380.679 288.745 370.142L287.935 386.353C279.829 393.649 214.982 400.944 183.369 389.596L181.748 376.626ZM179.316 381.49L181.748 390.406C188.232 398.512 264.428 404.997 288.745 392.838L293.609 381.49C299.283 381.49 321.169 385.543 321.979 394.459C323.601 404.997 321.979 417.156 321.169 422.019C311.442 430.125 304.146 422.019 289.556 422.019C280.639 422.019 276.586 438.231 261.185 438.231C252.269 438.231 247.405 429.315 234.436 427.693C220.656 426.883 216.603 434.989 207.686 434.989C195.528 437.421 191.475 422.83 178.505 422.019C169.589 422.019 167.157 429.315 150.945 422.83C149.324 400.944 145.271 389.596 179.316 381.49ZM150.945 437.421C207.686 454.443 269.291 454.443 320.358 439.852L317.926 458.496C311.442 471.465 199.581 483.624 154.998 462.549L150.945 437.421ZM150.135 453.632L153.377 463.359C170.399 478.761 277.397 487.677 320.358 465.791L323.601 454.443C335.759 454.443 350.35 458.496 351.971 466.602C351.971 483.624 242.542 490.109 199.58 486.056C174.452 483.624 122.575 478.761 122.575 465.791C122.575 458.496 138.786 455.254 150.135 453.632ZM5.03936 479.571C5.03936 463.359 84.477 449.579 146.892 446.337V451.201C138.786 454.443 118.522 455.253 119.332 466.602C120.953 490.109 232.815 491.73 247.405 490.919C279.829 490.109 353.592 486.866 354.403 466.602L346.297 457.685C374.668 458.496 445.999 465.791 446.81 473.897C449.242 479.571 454.916 467.412 424.924 466.602C398.175 461.738 377.099 457.685 324.411 453.632L325.222 445.526C373.857 447.148 467.075 459.306 467.075 478.761C467.075 503.889 315.495 511.995 240.11 511.995C170.399 514.426 5.03936 503.889 5.03936 479.571ZM145.271 519.29L166.346 520.101L175.263 551.714L145.271 519.29ZM191.475 571.168C182.558 554.956 173.642 532.259 173.642 519.29L189.853 520.101C195.528 534.691 211.739 556.577 214.171 555.766L196.338 520.101H222.277L242.542 542.797C260.375 548.471 288.745 559.819 311.442 584.948C309.821 564.683 272.533 546.85 248.216 538.744L240.11 530.638C260.375 532.259 275.776 538.744 284.692 520.101L320.358 518.479C321.169 540.365 336.57 560.63 344.676 584.948C344.676 607.644 323.601 640.068 295.23 652.226C254.701 627.909 206.876 600.349 191.475 571.168ZM262.806 527.396C254.701 527.396 243.352 526.585 236.057 526.585L232.004 522.532L279.018 520.911C276.586 527.396 270.912 527.396 262.806 527.396ZM262.806 640.878L284.692 653.848C276.586 654.658 262.806 652.226 262.806 640.878ZM283.882 692.756L279.829 676.544L307.389 692.756C299.283 698.43 288.745 698.43 283.882 692.756ZM437.083 741.391C408.712 747.065 377.91 738.149 291.988 700.862C341.433 700.862 377.91 636.015 369.804 576.842L349.539 556.577L339.002 553.335C334.138 544.418 325.222 527.396 325.222 518.479C351.971 516.048 394.122 514.426 421.682 507.131C417.629 524.153 402.228 552.524 390.879 572.789L368.993 560.63C364.94 559.819 361.698 563.062 364.13 564.683C368.993 564.683 433.841 608.455 437.083 607.644C434.651 601.159 410.333 584.948 397.364 576.842C408.712 559.009 422.492 528.206 426.545 506.321C446.81 502.268 474.37 495.783 474.37 479.571C473.559 467.412 453.295 461.738 437.893 455.253C442.757 430.125 471.128 405.808 489.771 376.626L475.18 451.201L477.612 455.253L503.551 471.465C503.551 475.518 481.665 494.972 481.665 502.268C497.877 554.956 540.028 648.174 559.482 697.619C564.345 700.862 558.671 682.218 551.376 666.006C527.869 611.697 491.392 514.426 486.529 502.268L510.036 477.95V471.465L481.665 451.201L495.445 368.521L508.415 376.626C535.975 502.268 587.042 692.756 568.398 872.706C564.345 892.971 497.877 836.23 490.582 820.018C487.339 778.678 507.604 717.074 470.317 534.691C465.453 531.449 486.529 644.121 486.529 684.65C479.233 700.862 451.673 737.338 437.083 741.391ZM519.763 860.548C535.975 872.706 564.345 891.35 567.588 888.918C570.83 887.297 571.64 868.654 572.451 860.548C591.905 871.085 636.488 892.971 644.593 892.971C651.889 892.971 677.828 854.874 680.259 852.442L728.895 888.918C734.569 892.971 742.675 888.918 747.538 887.297C746.727 897.024 750.78 912.425 757.265 916.478C754.023 961.061 782.393 974.03 807.522 974.03C823.733 974.03 839.945 974.03 852.104 965.924C878.853 949.712 887.77 901.077 895.876 868.654C911.277 871.085 908.845 868.654 916.951 846.768L927.489 845.146L935.595 835.419C949.375 828.124 985.851 798.132 1002.06 779.489L1010.17 791.648C1006.12 848.389 989.093 899.456 973.692 948.091C973.692 944.038 977.745 931.879 973.692 932.69C960.723 990.242 909.656 1085.89 908.035 1107.78C908.035 1122.37 944.511 1163.71 904.792 1176.68C899.118 1179.11 887.77 1183.16 880.475 1183.16C883.717 1171 878.853 1150.74 871.558 1143.44C874.8 1156.41 878.853 1171 875.611 1183.16C863.452 1184.78 846.43 1184.78 826.976 1183.16C831.029 1172.62 827.786 1150.74 819.68 1146.69L823.733 1163.71V1183.16C801.848 1179.11 758.886 1163.71 761.318 1131.28C766.992 1091.57 761.318 1030.77 750.78 980.515L747.538 976.462C710.251 974.03 673.775 965.924 636.488 948.902C634.056 948.091 635.677 949.712 637.298 949.712C659.995 965.114 685.933 974.03 714.304 980.515C659.995 1034.82 665.669 1069.68 661.616 1107.78C659.995 1119.94 656.752 1127.23 645.404 1130.47C612.98 1140.2 548.133 1150.74 511.657 1147.5C506.793 1138.58 519.763 1119.94 527.058 1115.07C519.763 1107.78 501.93 1135.34 506.793 1146.69C493.824 1146.69 478.423 1142.63 477.612 1136.15C477.612 1118.31 489.771 1107.78 491.392 1103.72C483.286 1103.72 474.37 1123.18 473.559 1134.53C454.916 1127.23 465.453 1095.62 491.392 1085.89L510.846 1074.54C531.922 1062.38 514.899 1030.77 500.309 982.136C497.877 956.197 515.71 895.403 519.763 872.706C523.816 883.244 540.028 904.319 544.08 907.562C543.27 903.509 522.195 875.138 519.763 860.548ZM643.783 888.108C639.73 891.35 595.148 871.085 572.451 856.495C587.852 738.959 564.345 636.825 542.459 507.942C564.345 559.009 604.875 640.878 653.51 682.218C643.783 702.483 657.563 738.149 669.722 844.336L673.775 850.821C668.911 856.495 649.457 884.055 643.783 888.108ZM621.086 633.583C587.852 589.001 543.27 511.184 527.058 437.421C531.922 445.526 544.08 455.253 548.944 459.306C552.186 477.95 559.482 506.321 567.588 506.321C578.936 507.942 611.359 477.95 612.98 477.95L621.086 478.761C627.571 540.365 640.54 624.666 653.51 676.544C645.404 672.491 629.192 648.173 621.086 633.583ZM656.752 676.544C641.351 619.803 629.192 534.691 624.329 477.95C629.192 477.95 636.488 474.708 637.298 471.465C645.404 475.518 685.123 491.73 694.85 490.109C702.145 490.109 702.145 475.518 702.145 455.253C724.842 437.421 758.076 398.512 770.235 368.521C745.106 457.685 702.145 579.273 656.752 676.544ZM762.129 863.79C758.076 868.654 750.78 879.191 733.758 884.865L677.017 844.336C669.722 798.132 661.616 747.065 655.942 714.642C651.889 688.703 657.563 689.513 668.911 664.385C694.039 612.508 730.516 528.206 749.159 471.465C726.463 600.349 749.97 722.748 786.446 818.397C777.53 828.124 765.371 844.336 762.129 848.389V863.79ZM791.31 802.185C750.78 696.809 734.569 554.956 765.371 417.156C779.151 353.93 809.953 287.462 804.279 250.985L808.332 251.796L835.892 287.462C838.324 308.537 838.324 368.521 835.892 392.838L786.446 426.883L785.636 430.936L827.786 449.579C808.332 503.889 774.288 608.455 763.75 685.461L765.371 686.271C779.151 605.212 814.006 503.889 834.271 450.39V446.337L795.363 429.315L839.945 397.702L842.377 392.838C843.188 370.142 842.377 311.779 840.756 291.515C868.316 305.295 925.057 345.013 939.648 366.089C972.071 421.209 1000.44 605.212 996.389 653.848C984.23 710.589 961.533 770.572 927.489 836.23C915.33 839.472 834.271 814.344 794.552 777.868C807.522 738.959 835.082 664.385 835.082 633.583C835.082 621.424 835.082 538.744 831.029 535.502L830.218 536.312C830.218 560.63 831.029 608.455 830.218 636.015C828.597 668.438 803.469 745.444 787.257 777.868L795.363 785.974L791.31 802.185ZM904.792 862.979C880.475 862.979 807.522 832.177 791.31 807.859L798.605 787.595C823.733 807.859 870.748 832.177 912.088 843.525L904.792 862.979ZM939.648 826.503C965.586 778.678 997.199 684.65 1002.06 649.795C1005.31 625.477 996.389 580.895 993.957 544.418C1022.33 625.477 1049.08 745.444 1045.02 872.706C1036.92 843.525 1022.33 798.943 1005.31 773.815L1002.06 770.572H1000.44C997.199 770.572 965.586 803.807 939.648 826.503ZM1041.78 888.108C1028.81 883.244 1010.17 875.138 1005.31 875.138H1002.06L1014.22 802.185C1024.76 820.018 1037.73 858.926 1041.78 888.108Z" fill="black"/>
<path d="M842.378 471.465C854.537 437.42 875.612 372.573 912.899 360.415C915.331 353.93 872.37 357.172 842.378 471.465Z" fill="black"/>
<path d="M815.623 1099.67C839.94 1094.81 856.963 1094 874.796 1098.86C876.417 1094.81 847.236 1085.89 815.623 1099.67Z" fill="black"/>
<path d="M189.854 494.972C172.021 490.919 142.03 486.056 115.28 482.003C102.311 477.95 85.2884 469.844 76.3719 463.359C73.1295 463.359 69.8872 466.602 72.319 467.412L98.2578 479.571H96.6366L72.319 466.602C66.6448 465.791 68.266 469.844 69.8872 470.655L90.1519 482.813C94.2048 486.056 82.046 482.003 65.8343 471.465L60.9707 473.897C60.1601 477.95 84.4778 495.783 96.6366 495.783C108.795 495.783 109.606 490.109 118.522 490.109C142.84 490.109 171.211 506.321 190.665 507.131C206.877 507.942 207.687 498.215 189.854 494.972ZM189.854 503.889C174.453 503.889 134.734 486.866 117.712 486.866C108.795 486.866 105.553 491.73 96.6366 491.73C88.5307 491.73 66.6448 479.571 64.2131 474.708C69.0766 477.95 85.2884 487.677 90.1519 487.677C98.2578 487.677 94.2048 483.624 90.1519 482.813L69.8872 471.465L94.2048 482.813C98.2578 483.624 100.69 482.003 96.6366 479.571L74.7507 466.602L100.69 478.761C110.417 482.003 116.901 483.624 125.007 483.624C141.219 486.056 175.264 494.972 191.475 498.215C198.771 499.836 200.392 503.889 189.854 503.889Z" fill="black"/>
<path d="M29.3606 479.571C32.6029 478.76 29.3606 475.518 52.8676 469.844C53.6782 467.412 27.7394 471.465 29.3606 479.571Z" fill="black"/>
<path d="M85.2847 462.549L133.109 455.254L85.2847 461.738V462.549Z" fill="black"/>
<path d="M159.055 398.512C155.002 406.618 187.425 413.103 232.818 413.914C269.295 413.914 311.445 406.618 313.066 400.944C279.832 409.05 189.857 414.724 159.055 398.512Z" fill="black"/>
<path d="M189.855 345.014C190.665 352.309 224.71 352.309 236.058 352.309C254.702 352.309 279.83 349.067 280.641 345.014C264.429 349.067 202.824 352.309 189.855 345.014Z" fill="black"/>
<path d="M154.996 430.936C166.344 433.368 171.208 426.072 180.124 426.072C189.851 426.883 194.715 439.042 207.684 439.042C219.843 439.042 223.896 430.936 234.434 430.936C243.35 430.936 248.214 441.474 260.373 441.474C276.584 441.474 279.016 426.072 291.175 426.072C300.902 426.072 303.334 430.936 309.819 430.936C313.061 430.936 321.167 430.936 321.167 426.883V426.072C313.061 429.315 309.008 426.883 297.66 422.83C280.637 418.777 279.016 438.231 261.183 438.231C251.456 438.231 247.403 429.315 234.434 427.694C220.654 427.694 216.601 434.989 207.684 434.989C195.526 437.421 190.662 422.83 178.503 422.02C171.208 422.02 166.344 429.315 154.186 426.072L154.996 430.936Z" fill="black"/>
<path d="M260.376 364.468C252.27 370.142 250.649 373.385 242.543 372.574C258.755 373.385 262.808 362.036 272.535 362.036C279.02 362.036 288.747 368.521 291.179 362.036C281.452 360.415 272.535 353.931 260.376 364.468Z" fill="black"/>
<path d="M346.295 559.819L351.969 571.168C352.737 633.388 302.549 673.77 269.699 659.202C278.263 670.016 303.059 683.297 315.492 689.513C343.863 678.165 373.855 620.613 364.128 576.031L346.295 559.819Z" fill="#F3EDE4"/>
<path d="M793.745 964.303L781.586 961.061C781.586 953.765 778.343 944.038 783.207 936.743C786.449 931.88 782.396 956.197 781.586 961.061L787.26 964.303C783.207 956.197 781.586 944.038 783.207 935.932C784.017 931.88 781.586 935.933 779.154 944.038C777.533 949.713 779.154 956.197 779.154 961.061L793.745 968.356L809.956 969.977L819.683 948.091C826.168 945.66 814.82 965.114 814.009 972.409L818.062 969.977L819.683 948.091" fill="black"/>
<path d="M794.549 820.018L793.738 823.261C766.178 856.495 741.05 888.108 758.072 912.425H761.315C761.315 900.266 762.936 891.35 765.368 884.055H766.178C758.883 917.289 757.262 953.765 783.2 961.061L782.39 957.818C766.178 944.038 758.072 924.584 765.368 884.055C765.368 880.812 762.936 884.055 758.883 909.183C745.103 888.918 758.072 863.79 793.738 824.071L794.549 820.018Z" fill="black"/>
<path d="M510.028 238.827C511.649 231.532 520.566 212.077 518.945 210.456C515.702 211.267 499.49 238.827 498.68 246.933C495.438 263.144 527.05 285.03 540.02 285.841C556.232 288.273 572.443 260.713 576.496 244.501C582.981 216.13 522.187 226.668 510.028 238.827Z" fill="black"/>
<path d="M608.926 304.484C595.957 312.59 576.503 308.537 554.617 309.348C546.511 311.78 531.11 319.886 532.731 321.507C538.405 320.696 546.511 315.833 555.428 313.401C579.745 312.59 592.715 316.643 608.116 307.727C621.085 299.621 629.191 285.03 630.002 276.924L636.486 279.356C637.297 272.061 624.328 268.818 623.517 272.871L627.57 276.114C623.517 285.03 617.032 296.378 608.926 304.484Z" fill="black"/>
<path d="M501.934 212.077C510.85 203.161 499.502 175.601 488.153 190.191C483.29 199.918 490.585 222.697 501.934 212.077Z" fill="black"/>
<path d="M620.266 191.812C636.478 191.812 629.993 159.389 616.213 161.821C604.865 166.684 611.35 191.002 620.266 191.812Z" fill="black"/>
<path d="M766.997 849.237L790.997 822.737C790.997 822.737 812.497 839.237 838.997 850.737C865.497 862.237 889.997 870.737 889.997 870.737C888.983 880.121 880.516 918.988 867.997 940.737C855.833 961.868 852.998 964.237 825.497 969.737C797.997 975.237 777.402 965.737 766.997 948.237C756.593 930.737 762.894 920.86 759.997 914.237C752.998 898.237 749.722 897.569 753.497 884.237C757.272 870.905 766.997 867.737 766.997 867.737V849.237Z" fill="#F3EDE4"/>
<path d="M791.302 822.341L791.305 822.344C791.308 822.345 791.312 822.348 791.317 822.351C791.327 822.359 791.342 822.371 791.363 822.387C791.404 822.418 791.465 822.465 791.546 822.526C791.709 822.649 791.951 822.831 792.27 823.067C792.907 823.539 793.848 824.226 795.06 825.088C797.484 826.81 800.994 829.227 805.33 832.004C814.003 837.557 825.978 844.542 839.196 850.278C852.436 856.024 865.178 861.021 874.611 864.582C879.327 866.362 883.215 867.783 885.924 868.759C887.279 869.246 888.338 869.623 889.059 869.878C889.419 870.005 889.695 870.102 889.88 870.167C889.973 870.199 890.043 870.224 890.09 870.24C890.113 870.248 890.131 870.255 890.143 870.259C890.149 870.261 890.154 870.262 890.157 870.263L890.16 870.264L890.537 870.395L890.495 870.791C889.983 875.522 887.604 887.615 883.792 901.235C879.981 914.855 874.721 930.057 868.43 940.986C862.358 951.534 858.557 957.514 852.783 961.51C847.016 965.5 839.326 967.481 825.595 970.227C797.924 975.761 777.099 966.206 766.568 948.493C761.314 939.657 760.271 932.724 760.182 927.166C760.139 924.434 760.33 921.944 760.35 919.878C760.371 917.763 760.22 915.992 759.539 914.437C757.795 910.449 756.283 907.418 755.049 904.894C753.819 902.378 752.855 900.346 752.231 898.388C750.966 894.421 751.116 890.811 753.016 884.101C754.933 877.33 758.369 873.122 761.34 870.606C762.824 869.35 764.189 868.517 765.188 867.997C765.687 867.737 766.095 867.555 766.381 867.437C766.422 867.42 766.462 867.406 766.497 867.391V849.045L766.626 848.901L790.936 822.059L791.302 822.341ZM767.497 849.43V868.1L767.152 868.212L767.153 868.213L767.149 868.214C767.146 868.215 767.14 868.217 767.132 868.22C767.117 868.225 767.092 868.233 767.059 868.245C766.993 868.269 766.892 868.307 766.762 868.361C766.502 868.469 766.121 868.638 765.65 868.884C764.707 869.374 763.405 870.167 761.986 871.369C759.151 873.77 755.836 877.812 753.978 884.373C752.103 890.996 752.004 894.385 753.183 898.085C753.781 899.961 754.712 901.93 755.947 904.455C757.178 906.973 758.701 910.025 760.456 914.037C761.224 915.793 761.371 917.74 761.35 919.888C761.329 922.083 761.138 924.397 761.182 927.15C761.268 932.561 762.276 939.317 767.427 947.981C777.705 965.268 798.069 974.713 825.399 969.247C839.169 966.493 846.647 964.54 852.214 960.687C857.773 956.841 861.471 951.07 867.563 940.488C873.791 929.669 879.024 914.563 882.83 900.966C886.532 887.736 888.866 875.987 889.453 871.076C889.272 871.013 889.029 870.928 888.726 870.821C888.003 870.566 886.942 870.189 885.585 869.7C882.872 868.723 878.98 867.3 874.258 865.517C864.816 861.953 852.058 856.95 838.798 851.196C825.516 845.432 813.492 838.417 804.79 832.846C800.439 830.059 796.916 827.633 794.481 825.902C793.263 825.037 792.317 824.345 791.675 823.87C791.423 823.683 791.218 823.529 791.061 823.411L767.497 849.43Z" fill="black"/>
</svg>
