<svg width="116" height="116" viewBox="0 0 116 116" fill="none" xmlns="http://www.w3.org/2000/svg">
<path fill-rule="evenodd" clip-rule="evenodd" d="M24.3717 86.1373L27.497 91.5454V91.5527H88.3666L91.4139 86.144H30.6168L32.9618 82.0845H93.8254L96.9505 76.6832H36.0817L38.4225 72.6304H77.432L77.4358 72.6377L77.4402 72.6304H99.2794L99.2838 72.6377L102.409 67.229V67.2218L71.9881 14.5188L71.9987 14.5004H71.9774H65.7557L24.3717 86.1373ZM68.862 19.9313L66.5157 23.9932L91.4738 67.2218H96.1581L68.862 19.9313ZM63.3939 29.3975L61.067 33.4267L80.518 67.1218L80.4624 67.2218H85.2318L63.3939 29.3975ZM57.9438 38.8336L41.5465 67.2218H74.3131L57.9438 38.8336ZM33.7927 15.935C35.436 14.9855 37.3006 14.4857 39.1986 14.4861L11.1074 63.1478C10.1573 61.5037 9.65723 59.6383 9.65723 57.7392C9.65723 55.8405 10.1573 53.9752 11.1074 52.331L29.8372 19.8945C30.7849 18.2501 32.1492 16.8845 33.7927 15.935ZM43.8864 14.4861H50.1295L16.573 72.6159L13.4478 67.2078L43.8864 14.4861ZM54.81 14.4861H61.0462L22.0314 82.0701L18.9134 76.6687L54.81 14.4861ZM104.814 63.0619C105.743 61.4472 106.231 59.6166 106.231 57.7537C106.231 55.8903 105.743 54.0602 104.814 52.445L85.9696 19.8089C85.0372 18.195 83.6962 16.8549 82.0815 15.9231C80.4673 14.9913 78.6362 14.5007 76.7723 14.5004H76.6511L104.749 63.1691L104.814 63.0619ZM85.9483 95.6054H29.8372C30.7815 97.2559 32.1441 98.6277 33.7876 99.5833C35.4311 100.539 37.2974 101.044 39.1986 101.05H76.6936C78.5807 101.046 80.4325 100.539 82.0588 99.5828C83.6856 98.6258 85.028 97.253 85.9483 95.6054Z" fill="#C1A36E"></path>
</svg>