<svg width="151" height="44" viewBox="0 0 151 44" fill="none" xmlns="http://www.w3.org/2000/svg">
<path d="M0.000274814 43.5555V-1.51697e-05H15.5254C18.914 -1.51697e-05 21.7213 0.616738 23.9473 1.85024C26.1733 3.08375 27.8393 4.77096 28.9452 6.91188C30.0511 9.03861 30.604 11.4347 30.604 14.1002C30.604 16.7799 30.044 19.1902 28.9239 21.3311C27.818 23.4579 26.145 25.1451 23.9048 26.3928C21.6788 27.6263 18.8786 28.243 15.5042 28.243H4.82797V22.671H14.9087C17.0496 22.671 18.7864 22.3024 20.1192 21.5651C21.452 20.8136 22.4303 19.7928 23.0541 18.5026C23.6779 17.2124 23.9899 15.7449 23.9899 14.1002C23.9899 12.4556 23.6779 10.9952 23.0541 9.71917C22.4303 8.44313 21.4449 7.44356 20.0979 6.72047C18.7652 5.99738 17.0071 5.63584 14.8236 5.63584H6.57189V43.5555H0.000274814ZM38.3081 43.5555V-1.51697e-05H65.6154V5.6571H44.8797V18.9279H64.1905V24.5638H44.8797V37.8984H65.8706V43.5555H38.3081ZM78.0728 43.5555H71.0971L86.7711 -1.51697e-05H94.3636L110.038 43.5555H103.062L90.7481 7.91144H90.4078L78.0728 43.5555ZM79.2425 26.4991H101.871V32.0286H79.2425V26.4991ZM116.327 43.5555V-1.51697e-05H122.899V20.7995H123.431L141.699 -1.51697e-05H149.972L132.406 19.6085L150.036 43.5555H142.125L128.046 24.0959L122.899 30.0082V43.5555H116.327Z" fill="#080725"></path>
</svg>