<svg width="281" height="116" viewBox="0 0 281 116" fill="none" xmlns="http://www.w3.org/2000/svg">
<path fill-rule="evenodd" clip-rule="evenodd" d="M24.3717 86.1373L27.497 91.5454V91.5527H88.3666L91.4139 86.144H30.6168L32.9618 82.0845H93.8254L96.9505 76.6832H36.0817L38.4225 72.6304H77.432L77.4358 72.6377L77.4402 72.6304H99.2794L99.2838 72.6377L102.409 67.229V67.2218L71.9881 14.5188L71.9987 14.5004H71.9774H65.7557L24.3717 86.1373ZM68.862 19.9313L66.5157 23.9932L91.4738 67.2218H96.1581L68.862 19.9313ZM63.3939 29.3975L61.067 33.4267L80.518 67.1218L80.4624 67.2218H85.2318L63.3939 29.3975ZM57.9438 38.8336L41.5465 67.2218H74.3131L57.9438 38.8336ZM33.7927 15.935C35.436 14.9855 37.3006 14.4857 39.1986 14.4861L11.1074 63.1478C10.1573 61.5037 9.65723 59.6383 9.65723 57.7392C9.65723 55.8405 10.1573 53.9752 11.1074 52.331L29.8372 19.8945C30.7849 18.2501 32.1492 16.8845 33.7927 15.935ZM43.8864 14.4861H50.1295L16.573 72.6159L13.4478 67.2078L43.8864 14.4861ZM54.81 14.4861H61.0462L22.0314 82.0701L18.9134 76.6687L54.81 14.4861ZM104.814 63.0619C105.743 61.4472 106.231 59.6166 106.231 57.7537C106.231 55.8903 105.743 54.0602 104.814 52.445L85.9696 19.8089C85.0372 18.195 83.6962 16.8549 82.0815 15.9231C80.4673 14.9913 78.6362 14.5007 76.7723 14.5004H76.6511L104.749 63.1691L104.814 63.0619ZM85.9483 95.6054H29.8372C30.7815 97.2559 32.1441 98.6277 33.7876 99.5833C35.4311 100.539 37.2974 101.044 39.1986 101.05H76.6936C78.5807 101.046 80.4325 100.539 82.0588 99.5828C83.6856 98.6258 85.028 97.253 85.9483 95.6054Z" fill="#C1A36E"></path>
<path d="M144.933 79.9445V36.3889H160.458C163.847 36.3889 166.654 37.0057 168.88 38.2392C171.106 39.4727 172.772 41.1599 173.878 43.3008C174.984 45.4275 175.537 47.8237 175.537 50.4892C175.537 53.1688 174.977 55.5792 173.857 57.7201C172.751 59.8468 171.078 61.534 168.838 62.7817C166.612 64.0152 163.811 64.632 160.437 64.632H149.761V59.0599H159.841C161.982 59.0599 163.719 58.6913 165.052 57.954C166.385 57.2026 167.363 56.1817 167.987 54.8915C168.611 53.6013 168.923 52.1338 168.923 50.4892C168.923 48.8445 168.611 47.3841 167.987 46.1081C167.363 44.832 166.378 43.8325 165.031 43.1094C163.698 42.3863 161.94 42.0248 159.756 42.0248H151.505V79.9445H144.933ZM196.4 80.6037C193.182 80.6037 190.41 79.9161 188.085 78.5408C185.773 77.1513 183.987 75.2018 182.725 72.6923C181.477 70.1686 180.854 67.2124 180.854 63.8238C180.854 60.4777 181.477 57.5287 182.725 54.9766C183.987 52.4245 185.745 50.4324 187.999 49.0004C190.268 47.5684 192.919 46.8524 195.953 46.8524C197.797 46.8524 199.583 47.1573 201.313 47.7669C203.043 48.3766 204.595 49.3336 205.97 50.638C207.346 51.9424 208.43 53.6367 209.224 55.7209C210.018 57.791 210.415 60.3076 210.415 63.2708V65.5252H184.448V60.7613H204.184C204.184 59.0883 203.844 57.6066 203.163 56.3164C202.483 55.012 201.526 53.9841 200.292 53.2327C199.073 52.4812 197.641 52.1055 195.996 52.1055C194.21 52.1055 192.65 52.545 191.317 53.4241C189.999 54.2889 188.978 55.4232 188.255 56.8268C187.546 58.2163 187.191 59.7263 187.191 61.3568V65.0786C187.191 67.262 187.574 69.1194 188.34 70.6506C189.12 72.1819 190.204 73.3516 191.594 74.1597C192.983 74.9537 194.607 75.3507 196.464 75.3507C197.669 75.3507 198.768 75.1806 199.76 74.8403C200.753 74.4858 201.611 73.9612 202.334 73.2665C203.057 72.5718 203.61 71.714 203.993 70.6932L210.011 71.7778C209.529 73.5501 208.664 75.1026 207.417 76.4353C206.183 77.7539 204.631 78.7818 202.759 79.5191C200.902 80.2422 198.782 80.6037 196.4 80.6037ZM226.977 80.6675C224.907 80.6675 223.036 80.2847 221.363 79.5191C219.69 78.7393 218.364 77.6121 217.386 76.1376C216.422 74.6631 215.939 72.8553 215.939 70.7144C215.939 68.8713 216.294 67.3542 217.003 66.1632C217.712 64.9722 218.669 64.0294 219.874 63.3346C221.079 62.6399 222.426 62.1153 223.915 61.7609C225.403 61.4064 226.92 61.137 228.466 60.9527C230.423 60.7259 232.01 60.5415 233.23 60.3998C234.449 60.2438 235.335 59.9957 235.888 59.6554C236.441 59.3151 236.718 58.7622 236.718 57.9965V57.8477C236.718 55.9903 236.193 54.5512 235.144 53.5304C234.109 52.5096 232.563 51.9991 230.508 51.9991C228.367 51.9991 226.679 52.4741 225.446 53.4241C224.227 54.3598 223.383 55.4019 222.915 56.5504L216.939 55.1892C217.648 53.2043 218.683 51.6022 220.044 50.3828C221.419 49.1493 223 48.2561 224.787 47.7031C226.573 47.136 228.452 46.8524 230.423 46.8524C231.727 46.8524 233.109 47.0084 234.57 47.3203C236.044 47.6181 237.419 48.171 238.696 48.9792C239.986 49.7873 241.042 50.9429 241.864 52.4458C242.687 53.9345 243.098 55.8698 243.098 58.2517V79.9445H236.888V75.4783H236.633C236.221 76.3007 235.605 77.1088 234.782 77.9028C233.96 78.6968 232.904 79.3561 231.613 79.8807C230.323 80.4053 228.778 80.6675 226.977 80.6675ZM228.36 75.5634C230.118 75.5634 231.621 75.216 232.868 74.5213C234.13 73.8265 235.087 72.9191 235.739 71.7991C236.406 70.6648 236.739 69.4526 236.739 68.1623V63.9514C236.512 64.1783 236.073 64.3909 235.42 64.5894C234.782 64.7737 234.052 64.9368 233.23 65.0786C232.407 65.2062 231.606 65.3267 230.827 65.4401C230.047 65.5394 229.395 65.6244 228.87 65.6953C227.636 65.8513 226.509 66.1136 225.488 66.4822C224.482 66.8509 223.674 67.3825 223.064 68.0773C222.469 68.7578 222.171 69.6652 222.171 70.7995C222.171 72.3733 222.752 73.5642 223.915 74.3724C225.077 75.1664 226.559 75.5634 228.36 75.5634ZM257.416 68.8642L257.374 61.1016H258.479L271.495 47.2778H279.109L264.264 63.0156H263.265L257.416 68.8642ZM251.568 79.9445V36.3889H257.927V79.9445H251.568ZM272.197 79.9445L260.5 64.4193L264.881 59.9744L280.002 79.9445H272.197Z" fill="#EFE8DB"></path>
</svg>