<svg width="288" height="116" viewBox="0 0 288 116" fill="none" xmlns="http://www.w3.org/2000/svg">
<path fill-rule="evenodd" clip-rule="evenodd" d="M24.3717 86.1373L27.497 91.5454V91.5527H88.3666L91.4139 86.144H30.6168L32.9618 82.0846H93.8254L96.9505 76.6832H36.0817L38.4225 72.6304H77.432L77.4358 72.6377L77.4402 72.6304H99.2794L99.2838 72.6377L102.409 67.229V67.2218L71.9881 14.5188L71.9987 14.5004H71.9774H65.7557L24.3717 86.1373ZM68.862 19.9313L66.5157 23.9932L91.4738 67.2218H96.1581L68.862 19.9313ZM63.3939 29.3975L61.067 33.4267L80.518 67.1219L80.4624 67.2218H85.2318L63.3939 29.3975ZM57.9438 38.8336L41.5465 67.2218H74.3131L57.9438 38.8336ZM33.7927 15.935C35.436 14.9855 37.3006 14.4857 39.1986 14.4861L11.1074 63.1478C10.1573 61.5036 9.65723 59.6383 9.65723 57.7392C9.65723 55.8406 10.1573 53.9752 11.1074 52.331L29.8372 19.8945C30.7849 18.2501 32.1492 16.8845 33.7927 15.935ZM43.8864 14.4861H50.1295L16.573 72.6159L13.4478 67.2078L43.8864 14.4861ZM54.81 14.4861H61.0462L22.0314 82.0701L18.9134 76.6687L54.81 14.4861ZM104.814 63.0619C105.743 61.4472 106.231 59.6166 106.231 57.7537C106.231 55.8903 105.743 54.0602 104.814 52.445L85.9696 19.8089C85.0372 18.195 83.6962 16.8549 82.0815 15.9231C80.4673 14.9913 78.6362 14.5007 76.7723 14.5004H76.6511L104.749 63.1691L104.814 63.0619ZM85.9483 95.6054H29.8372C30.7815 97.2559 32.1441 98.6277 33.7876 99.5833C35.4311 100.539 37.2974 101.044 39.1986 101.05H76.6936C78.5807 101.046 80.4325 100.539 82.0588 99.5828C83.6856 98.6258 85.028 97.253 85.9483 95.6054Z" fill="#080725"></path>
<path d="M139.889 78.9055V36.9833H156.478C159.931 36.9833 162.656 37.6121 164.653 38.8698C166.669 40.1075 168.106 41.7045 168.965 43.6609C169.823 45.6173 170.252 47.6435 170.252 49.7396C170.252 51.2169 170.003 52.7041 169.504 54.2013C169.005 55.6786 168.206 57.0461 167.108 58.3037C166.01 59.5614 164.583 60.5695 162.826 61.3281C161.089 62.0867 158.973 62.466 156.478 62.466H145.937V78.9055H139.889ZM145.937 56.8065H156.837C158.634 56.8065 160.061 56.4472 161.119 55.7285C162.197 55.0098 162.966 54.1115 163.425 53.0335C163.884 51.9555 164.114 50.8575 164.114 49.7396C164.114 48.7415 163.904 47.6934 163.485 46.5954C163.086 45.4775 162.357 44.5393 161.299 43.7807C160.241 43.0221 158.754 42.6428 156.837 42.6428H145.937V56.8065Z" fill="#080725"></path>
<path d="M177.846 78.9055V36.9833H203.897V42.7027H183.894V54.381H196.621V60.1004H183.894V73.1262H205.185V78.9055H177.846Z" fill="#080725"></path>
<path d="M211.698 78.9055L226.91 36.9833H232.599L247.841 78.9055H241.523L238.019 69.1137H221.58L218.136 78.9055H211.698ZM223.436 63.6937H236.073L231.072 49.5899C230.933 49.2106 230.783 48.7814 230.623 48.3023C230.463 47.8032 230.304 47.3141 230.144 46.835C229.984 46.3559 229.865 45.9367 229.785 45.5773C229.685 45.9367 229.555 46.3559 229.395 46.835C229.256 47.3141 229.106 47.8032 228.946 48.3023C228.787 48.7814 228.637 49.2106 228.497 49.5899L223.436 63.6937Z" fill="#080725"></path>
<path d="M255.046 78.9055V36.9833H261.095V57.3754L277.325 36.9833H284.272L272.534 51.6261L287.446 78.9055H280.379L268.401 56.7167L261.095 65.7299V78.9055H255.046Z" fill="#080725"></path>
</svg>