<svg width="1216" height="1216" viewBox="0 0 1216 1216" fill="none" xmlns="http://www.w3.org/2000/svg">
<path d="M1071.6 537.42C1061.87 509.049 1051.34 437.718 1026.21 380.976C1014.05 355.038 956.498 316.94 920.832 294.243C915.968 288.569 902.188 267.494 897.325 261.009L885.166 252.903L882.734 238.313L885.977 240.745C894.083 243.987 886.787 226.965 880.302 214.806L883.545 215.616C885.977 216.427 885.977 212.374 885.166 209.942L828.425 115.914C839.773 105.376 853.553 88.354 851.932 67.2787C850.311 46.2034 832.478 21.8858 810.592 17.8328L813.834 15.4011C817.077 9.72696 792.759 11.3481 778.168 14.5905C770.873 8.10578 749.798 25.9387 742.503 51.067C714.943 51.8776 687.382 43.7717 629.831 51.8776C620.914 53.4987 620.914 56.7411 623.346 57.5517C602.271 59.1728 582.817 72.1423 568.226 83.4905C563.362 75.3846 540.666 52.6881 520.401 60.794L522.023 64.0364C512.295 62.4152 487.978 77.8164 489.599 88.354C480.683 103.755 475.008 149.959 519.591 166.981C516.348 191.299 518.78 214.806 515.538 231.828C512.295 249.661 499.326 280.463 504.19 298.296L507.432 296.675C507.432 304.781 510.674 324.235 517.97 324.235L519.591 320.993C522.022 331.53 531.75 348.553 532.56 342.068L536.613 341.258C539.045 350.985 558.499 364.765 570.658 376.113C553.635 396.378 522.022 422.316 513.106 464.467C483.114 457.982 449.88 454.74 407.73 453.119C408.54 435.286 409.351 420.695 408.54 408.536C404.487 393.946 383.412 390.703 374.495 389.082L376.117 358.28C373.685 344.5 347.746 344.5 335.587 342.879C339.64 332.341 333.155 320.993 319.375 323.425C321.807 312.887 325.05 304.781 332.345 298.296C333.155 297.486 333.155 295.865 332.345 295.054C328.292 291.812 317.754 311.266 316.133 324.235C301.543 320.993 296.679 334.773 299.921 342.879C286.952 344.5 256.96 344.5 256.96 357.469V388.272C227.779 393.946 225.347 398.809 225.347 414.211L227.779 452.308C179.144 455.55 81.8731 465.278 81.0625 485.542C76.199 514.723 173.47 525.261 219.673 528.503C230.211 543.905 251.286 565.79 262.634 577.139C276.414 612.805 307.217 624.963 338.83 646.849C338.83 667.925 349.367 677.652 356.663 684.136C359.905 711.696 369.632 719.802 414.214 736.825C446.638 750.605 481.493 762.763 511.485 759.521C530.939 758.71 535.802 753.036 568.226 706.022C570.658 747.362 563.362 825.989 567.415 834.906C570.658 842.201 582.817 855.171 589.301 861.655L596.597 878.678C588.491 908.669 572.279 969.463 575.521 997.023C586.87 1050.52 603.081 1073.22 585.248 1082.95C568.226 1093.48 539.855 1107.26 539.855 1131.58C539.855 1158.33 578.764 1165.63 595.786 1165.63C633.073 1168.06 710.89 1159.14 736.828 1144.55C758.714 1131.58 740.881 1087 765.199 1042.42C774.926 1024.58 791.138 1006.75 801.675 992.971L824.372 993.781C827.614 993.781 842.205 1081.32 835.72 1142.93C835.72 1190.75 920.832 1215.07 981.626 1198.86C1026.21 1188.32 1020.53 1162.38 997.027 1120.23C992.974 1107.26 1034.31 1013.24 1057.01 964.6C1066.74 943.525 1078.9 904.616 1085.38 891.647C1095.11 890.836 1119.43 904.616 1127.53 907.859C1131.58 908.669 1131.58 888.405 1132.4 864.087C1135.64 753.036 1099.16 627.395 1071.6 537.42ZM886.787 269.115C862.47 331.53 801.675 369.628 737.639 414.211L721.427 425.559C710.89 434.475 734.397 420.695 741.692 416.642C799.244 380.166 850.311 345.31 880.302 281.274C879.492 296.675 866.522 341.258 860.038 358.28C842.205 393.946 814.645 430.422 783.032 458.793C782.221 442.581 778.979 416.642 770.062 412.589C761.146 408.536 717.374 438.528 714.132 442.581C708.458 438.528 692.246 438.528 684.14 450.687C676.034 446.634 639.558 428.801 631.452 434.475C628.21 436.907 628.21 450.687 629.02 465.278C620.914 461.225 608.755 445.013 604.702 438.528L597.407 393.135C611.187 402.052 669.55 432.854 676.034 434.475C680.087 434.475 645.232 418.263 623.346 406.105C599.839 393.946 554.446 363.954 538.234 340.447L536.613 343.689C532.56 337.205 523.644 323.425 523.644 316.129L518.78 319.372C513.917 311.266 512.295 296.675 515.538 282.895C513.917 280.463 509.864 288.569 507.432 291.001C509.864 268.305 522.833 239.934 523.644 222.101C526.075 179.14 523.644 154.012 547.961 113.482C543.908 105.376 526.075 130.505 522.023 161.307C493.652 154.822 474.198 118.346 500.137 84.3011H495.273C503.379 73.7634 511.485 68.0893 530.128 68.0893L526.886 64.0364C539.855 61.6046 555.257 72.9528 564.173 85.9223C562.552 88.354 547.961 102.134 548.772 106.187C580.385 81.8693 599.028 68.0893 632.263 61.6046C639.558 61.6046 631.452 57.5517 629.02 56.7411C676.034 51.8776 694.678 51.8776 742.503 56.7411L744.934 62.4152C748.987 45.3928 758.714 25.9387 774.115 19.454L773.305 25.9387C782.221 21.0752 791.138 17.0223 803.297 19.454L801.675 21.8858C826.804 21.0752 844.637 45.3928 846.258 69.7105C846.258 85.9223 834.099 104.566 817.887 117.535L824.372 118.346L875.439 207.511L868.144 205.889L880.302 231.828L874.628 231.018L879.492 269.115H886.787ZM721.427 477.436L720.617 466.899L746.555 457.982L747.366 455.551C743.313 454.74 724.67 458.793 720.617 461.225C720.617 457.982 718.185 449.066 718.185 446.634C730.344 438.528 762.767 416.642 770.873 418.263C775.737 420.695 781.411 479.058 774.926 495.269C762.767 497.701 724.67 479.058 721.427 477.436ZM712.511 446.634C714.943 449.066 717.374 477.436 714.942 479.058C710.079 483.11 701.162 485.542 697.11 482.3C689.814 475.005 684.951 458.793 689.814 451.498C697.92 446.634 704.405 445.823 712.511 446.634ZM684.14 454.74V465.278L660.633 473.383V474.194L682.519 471.762L689.004 483.111C684.14 487.163 655.77 513.913 647.664 511.481C640.368 507.428 629.02 449.066 635.505 438.528C643.611 436.907 673.602 449.066 684.14 454.74ZM316.944 327.478L320.997 328.288C333.155 320.993 337.208 339.636 329.103 348.553C320.997 355.848 304.785 353.416 303.164 339.636C303.164 329.099 308.838 324.235 316.944 327.478ZM261.013 359.901C261.013 347.742 292.626 348.553 299.111 347.742C307.217 359.901 327.481 357.469 333.966 345.31C347.746 347.742 372.064 348.553 372.064 357.469V368.818C369.632 376.923 362.337 369.628 351.799 369.628C341.261 369.628 337.208 385.029 320.997 384.219C312.08 384.219 304.785 369.628 295.868 369.628C280.467 369.628 282.899 376.113 270.74 372.06C265.066 369.628 259.392 368.007 261.013 359.901ZM262.634 384.219V376.113C268.308 377.734 269.119 380.166 275.604 380.166C282.899 380.166 288.573 373.681 295.868 373.681C303.974 373.681 308.838 381.787 316.944 385.029C303.164 385.84 270.74 384.219 262.634 384.219ZM262.634 388.272C291.815 393.135 336.398 392.325 369.632 381.787L368.821 397.999C360.715 405.294 295.868 412.589 264.255 401.241L262.634 388.272ZM260.203 393.135L262.634 402.052C269.119 410.158 345.314 416.642 369.632 404.483L374.495 393.135C380.17 393.135 402.055 397.188 402.866 406.105C404.487 416.642 402.866 428.801 402.055 433.665C392.328 441.77 385.033 433.665 370.443 433.665C361.526 433.665 357.473 449.876 342.072 449.876C333.155 449.876 328.292 440.96 315.323 439.339C301.543 438.528 297.49 446.634 288.573 446.634C276.414 449.066 272.361 434.475 259.392 433.665C250.475 433.665 248.044 440.96 231.832 434.475C230.211 412.589 226.158 401.241 260.203 393.135ZM231.832 449.066C288.573 466.088 350.178 466.088 401.245 451.498L398.813 470.141C392.328 483.11 280.467 495.269 235.885 474.194L231.832 449.066ZM231.021 465.278L234.264 475.005C251.286 490.406 358.284 499.322 401.245 477.436L404.487 466.088C416.646 466.088 431.237 470.141 432.858 478.247C432.858 495.269 323.428 501.754 280.467 497.701C255.339 495.269 203.461 490.406 203.461 477.436C203.461 470.141 219.673 466.899 231.021 465.278ZM85.9261 491.216C85.9261 475.005 165.364 461.225 227.779 457.982V462.846C219.673 466.088 199.408 466.899 200.219 478.247C201.84 501.754 313.701 503.375 328.292 502.565C360.715 501.754 434.479 498.512 435.29 478.247L427.184 469.331C455.554 470.141 526.886 477.436 527.697 485.542C530.128 491.216 535.803 479.058 505.811 478.247C479.061 473.383 457.986 469.331 405.298 465.278L406.108 457.172C454.744 458.793 547.961 470.952 547.961 490.406C547.961 515.534 396.381 523.64 320.997 523.64C251.286 526.072 85.9261 515.534 85.9261 491.216ZM226.158 530.935L247.233 531.746L256.15 563.359L226.158 530.935ZM272.361 582.813C263.445 566.601 254.528 543.905 254.528 530.935L270.74 531.746C276.414 546.336 292.626 568.222 295.058 567.412L277.225 531.746H303.164L323.428 554.442C341.261 560.116 369.632 571.465 392.328 596.593C390.707 576.328 353.42 558.495 329.103 550.389L320.997 542.284C341.261 543.905 356.663 550.389 365.579 531.746L401.245 530.125C402.055 552.011 417.457 572.275 425.562 596.593C425.562 619.289 404.487 651.713 376.117 663.872C335.587 639.554 287.763 611.994 272.361 582.813ZM343.693 539.041C335.587 539.041 324.239 538.231 316.944 538.231L312.891 534.178L359.905 532.556C357.473 539.041 351.799 539.041 343.693 539.041ZM343.693 652.523L365.579 665.493C357.473 666.303 343.693 663.872 343.693 652.523ZM364.768 704.401L360.715 688.189L388.275 704.401C380.17 710.075 369.632 710.075 364.768 704.401ZM517.97 753.036C489.599 758.71 458.797 749.794 372.874 712.507C422.32 712.507 458.797 647.66 450.691 588.487L430.426 568.222L419.888 564.98C415.025 556.063 406.108 539.041 406.108 530.125C432.858 527.693 475.008 526.072 502.568 518.776C498.515 535.799 483.114 564.169 471.766 584.434L449.88 572.275C445.827 571.465 442.585 574.707 445.017 576.328C449.88 576.328 514.727 620.1 517.97 619.289C515.538 612.805 491.22 596.593 478.251 588.487C489.599 570.654 503.379 539.852 507.432 517.966C527.697 513.913 555.257 507.428 555.257 491.216C554.446 479.058 534.181 473.383 518.78 466.899C523.644 441.77 552.014 417.453 570.658 388.272L556.067 462.846L558.499 466.899L584.438 483.111C584.438 487.163 562.552 506.618 562.552 513.913C578.764 566.601 620.914 659.819 640.368 709.265C645.232 712.507 639.558 693.863 632.263 677.652C608.755 623.342 572.279 526.072 567.415 513.913L590.923 489.595V483.111L562.552 462.846L576.332 380.166L589.301 388.272C616.861 513.913 667.928 704.401 649.285 884.352C645.232 904.616 578.764 847.875 571.468 831.664C568.226 790.324 588.491 728.719 551.204 546.336C546.34 543.094 567.415 655.766 567.415 696.295C560.12 712.507 532.56 748.983 517.97 753.036ZM600.65 872.193C616.861 884.352 645.232 902.995 648.474 900.563C651.717 898.942 652.527 880.299 653.338 872.193C672.792 882.731 717.374 904.616 725.48 904.616C732.775 904.616 758.714 866.519 761.146 864.087L809.781 900.563C815.455 904.616 823.561 900.563 828.425 898.942C827.614 908.669 831.667 924.071 838.152 928.123C834.91 972.706 863.28 985.675 888.408 985.675C904.62 985.675 920.832 985.675 932.991 977.569C959.74 961.358 968.657 912.722 976.762 880.299C992.164 882.731 989.732 880.299 997.838 858.413L1008.38 856.792L1016.48 847.065C1030.26 839.769 1066.74 809.778 1082.95 791.134L1091.06 803.293C1087 860.034 1069.98 911.101 1054.58 959.736C1054.58 955.684 1058.63 943.525 1054.58 944.335C1041.61 1001.89 990.542 1097.54 988.921 1119.42C988.921 1134.01 1025.4 1175.35 985.679 1188.32C980.005 1190.75 968.657 1194.81 961.361 1194.81C964.604 1182.65 959.74 1162.38 952.445 1155.09C955.687 1168.06 959.74 1182.65 956.498 1194.81C944.339 1196.43 927.317 1196.43 907.862 1194.81C911.915 1184.27 908.673 1162.38 900.567 1158.33L904.62 1175.35V1194.81C882.734 1190.75 839.773 1175.35 842.205 1142.93C847.879 1103.21 842.205 1042.42 831.667 992.16L828.425 988.107C791.138 985.675 754.661 977.569 717.374 960.547C714.943 959.736 716.564 961.358 718.185 961.358C740.881 976.759 766.82 985.675 795.191 992.16C740.881 1046.47 746.555 1081.32 742.503 1119.42C740.881 1131.58 737.639 1138.88 726.291 1142.12C693.867 1151.85 629.02 1162.38 592.544 1159.14C587.68 1150.22 600.65 1131.58 607.945 1126.72C600.65 1119.42 582.817 1146.98 587.68 1158.33C574.711 1158.33 559.31 1154.28 558.499 1147.79C558.499 1129.96 570.658 1119.42 572.279 1115.37C564.173 1115.37 555.257 1134.82 554.446 1146.17C535.803 1138.88 546.34 1107.26 572.279 1097.54L591.733 1086.19C612.808 1074.03 595.786 1042.42 581.195 993.781C578.764 967.842 596.597 907.048 600.65 884.352C604.702 894.889 620.914 915.965 624.967 919.207C624.157 915.154 603.081 886.784 600.65 872.193ZM724.67 899.753C720.617 902.995 676.034 882.731 653.338 868.14C668.739 750.605 645.232 648.47 623.346 519.587C645.232 570.654 685.761 652.523 734.397 693.863C724.67 714.128 738.45 749.794 750.608 855.981L754.661 862.466C749.798 868.14 730.344 895.7 724.67 899.753ZM701.973 645.228C668.739 600.646 624.157 522.829 607.945 449.066C612.808 457.172 624.967 466.899 629.831 470.952C633.073 489.595 640.368 517.966 648.474 517.966C659.822 519.587 692.246 489.595 693.867 489.595L701.973 490.406C708.458 552.01 721.427 636.312 734.397 688.189C726.291 684.136 710.079 659.819 701.973 645.228ZM737.639 688.189C722.238 631.448 710.079 546.336 705.215 489.595C710.079 489.595 717.374 486.353 718.185 483.111C726.291 487.163 766.01 503.375 775.737 501.754C783.032 501.754 783.032 487.163 783.032 466.899C805.728 449.066 838.962 410.158 851.121 380.166C825.993 469.33 783.032 590.919 737.639 688.189ZM843.015 875.435C838.963 880.299 831.667 890.836 814.645 896.511L757.904 855.981C750.608 809.778 742.502 758.711 736.828 726.287C732.775 700.348 738.45 701.159 749.798 676.031C774.926 624.153 811.402 539.852 830.046 483.111C807.35 611.994 830.857 734.393 867.333 830.042C858.417 839.769 846.258 855.981 843.015 860.034V875.435ZM872.197 813.831C831.667 708.454 815.455 566.601 846.258 428.801C860.038 365.575 890.84 299.107 885.166 262.631L889.219 263.441L916.779 299.107C919.211 320.182 919.211 380.166 916.779 404.483L867.333 438.528L866.522 442.581L908.673 461.225C889.219 515.534 855.174 620.1 844.637 697.106L846.258 697.916C860.038 616.858 894.893 515.534 915.158 462.035V457.982L876.25 440.96L920.832 409.347L923.264 404.483C924.074 381.787 923.264 323.425 921.642 303.16C949.202 316.94 1005.94 356.659 1020.53 377.734C1052.96 432.854 1081.33 616.858 1077.28 665.493C1065.12 722.234 1042.42 782.218 1008.38 847.875C996.217 851.118 915.158 825.989 875.439 789.513C888.408 750.605 915.968 676.031 915.968 645.228C915.968 633.069 915.968 550.389 911.915 547.147L911.105 547.958C911.105 572.275 911.915 620.1 911.105 647.66C909.484 680.084 884.355 757.089 868.144 789.513L876.25 797.619L872.197 813.831ZM985.679 874.625C961.361 874.625 888.408 843.822 872.197 819.505L879.492 799.24C904.62 819.505 951.634 843.822 992.974 855.171L985.679 874.625ZM1020.53 838.148C1046.47 790.324 1078.09 696.295 1082.95 661.44C1086.19 637.122 1077.28 592.54 1074.84 556.063C1103.21 637.122 1129.96 757.089 1125.91 884.352C1117.8 855.171 1103.21 810.588 1086.19 785.46L1082.95 782.218H1081.33C1078.09 782.218 1046.47 815.452 1020.53 838.148ZM1122.67 899.753C1109.7 894.889 1091.06 886.784 1086.19 886.784H1082.95L1095.11 813.831C1105.65 831.664 1118.62 870.572 1122.67 899.753Z" fill="black"></path>
<path d="M923.265 483.11C935.424 449.066 956.499 384.219 993.786 372.06C996.218 365.575 953.257 368.817 923.265 483.11Z" fill="black"></path>
<path d="M896.509 1111.32C920.827 1106.45 937.849 1105.64 955.682 1110.51C957.303 1106.45 928.122 1097.54 896.509 1111.32Z" fill="black"></path>
<path d="M270.741 506.618C252.908 502.565 222.916 497.701 196.167 493.648C183.197 489.595 166.175 481.489 157.259 475.005C154.016 475.005 150.774 478.247 153.206 479.058L179.145 491.216H177.523L153.206 478.247C147.532 477.436 149.153 481.489 150.774 482.3L171.039 494.459C175.092 497.701 162.933 493.648 146.721 483.111L141.857 485.542C141.047 489.595 165.364 507.428 177.523 507.428C189.682 507.428 190.493 501.754 199.409 501.754C223.727 501.754 252.097 517.966 271.552 518.776C287.763 519.587 288.574 509.86 270.741 506.618ZM270.741 515.534C255.34 515.534 215.621 498.512 198.599 498.512C189.682 498.512 186.44 503.375 177.523 503.375C169.417 503.375 147.532 491.216 145.1 486.353C149.963 489.595 166.175 499.322 171.039 499.322C179.145 499.322 175.092 495.269 171.039 494.459L150.774 483.111L175.092 494.459C179.144 495.269 181.576 493.648 177.523 491.216L155.637 478.247L181.576 490.406C191.303 493.648 197.788 495.269 205.894 495.269C222.106 497.701 256.15 506.618 272.362 509.86C279.657 511.481 281.279 515.534 270.741 515.534Z" fill="black"></path>
<path d="M110.247 491.216C113.49 490.405 110.247 487.163 133.754 481.489C134.565 479.057 108.626 483.11 110.247 491.216Z" fill="black"></path>
<path d="M166.171 474.194L213.996 466.899L166.171 473.384V474.194Z" fill="black"></path>
<path d="M239.941 410.158C235.888 418.263 268.312 424.748 313.705 425.559C350.181 425.559 392.332 418.264 393.953 412.589C360.719 420.695 270.744 426.369 239.941 410.158Z" fill="black"></path>
<path d="M270.741 356.659C271.552 363.954 305.597 363.954 316.945 363.954C335.588 363.954 360.717 360.712 361.527 356.659C345.315 360.712 283.711 363.954 270.741 356.659Z" fill="black"></path>
<path d="M235.883 442.581C247.231 445.013 252.095 437.718 261.011 437.718C270.738 438.528 275.602 450.687 288.571 450.687C300.73 450.687 304.783 442.581 315.321 442.581C324.237 442.581 329.1 453.119 341.259 453.119C357.471 453.119 359.903 437.718 372.062 437.718C381.789 437.718 384.221 442.581 390.705 442.581C393.948 442.581 402.053 442.581 402.053 438.528V437.718C393.948 440.96 389.895 438.528 378.546 434.475C361.524 430.422 359.903 449.877 342.07 449.877C332.343 449.877 328.29 440.96 315.321 439.339C301.541 439.339 297.488 446.634 288.571 446.634C276.412 449.066 271.549 434.475 259.39 433.665C252.095 433.665 247.231 440.96 235.072 437.718L235.883 442.581Z" fill="black"></path>
<path d="M341.263 376.113C333.157 381.788 331.536 385.03 323.43 384.219C339.642 385.03 343.695 373.682 353.422 373.682C359.906 373.682 369.634 380.166 372.065 373.682C362.338 372.06 353.422 365.576 341.263 376.113Z" fill="black"></path>
<path d="M427.181 571.465L432.856 582.813C433.624 645.033 383.436 685.416 350.586 670.848C359.15 681.661 383.945 694.942 396.379 701.159C424.75 689.811 454.741 632.259 445.014 587.676L427.181 571.465Z" fill="#F3EDE4"></path>
<path d="M874.631 975.948L862.472 972.706C862.472 965.411 859.23 955.684 864.094 948.388C867.336 943.525 863.283 967.842 862.472 972.706L868.147 975.948C864.094 967.842 862.472 955.684 864.094 947.578C864.904 943.525 862.472 947.578 860.041 955.684C858.419 961.358 860.041 967.842 860.041 972.706L874.631 980.001L890.843 981.622L900.57 959.737C907.055 957.305 895.707 976.759 894.896 984.054L898.949 981.622L900.57 959.737" fill="black"></path>
<path d="M875.435 831.664L874.625 834.906C847.065 868.14 821.937 899.753 838.959 924.071H842.201C842.201 911.912 843.823 902.995 846.254 895.7H847.065C839.77 928.934 838.148 965.411 864.087 972.706L863.277 969.464C847.065 955.684 838.959 936.229 846.254 895.7C846.254 892.458 843.822 895.7 839.77 920.828C825.99 900.563 838.959 875.435 874.625 835.716L875.435 831.664Z" fill="black"></path>
<path d="M590.915 250.472C592.536 243.177 601.452 223.723 599.831 222.102C596.589 222.912 580.377 250.472 579.567 258.578C576.324 274.79 607.937 296.676 620.907 297.486C637.118 299.918 653.33 272.358 657.383 256.146C663.868 227.776 603.074 238.313 590.915 250.472Z" fill="black"></path>
<path d="M689.813 316.13C676.844 324.236 657.39 320.183 635.504 320.993C627.398 323.425 611.997 331.531 613.618 333.152C619.292 332.341 627.398 327.478 636.314 325.046C660.632 324.236 673.601 328.288 689.003 319.372C701.972 311.266 710.078 296.676 710.888 288.57L717.373 291.001C718.184 283.706 705.214 280.464 704.404 284.517L708.457 287.759C704.404 296.676 697.919 308.024 689.813 316.13Z" fill="black"></path>
<path d="M582.82 223.722C591.737 214.806 580.388 187.246 569.04 201.836C564.177 211.563 571.472 234.26 582.82 223.722Z" fill="black"></path>
<path d="M701.153 203.458C717.364 203.458 710.88 171.034 697.1 173.466C685.752 178.329 692.236 202.647 701.153 203.458Z" fill="black"></path>
<path d="M847.884 860.882L871.884 834.382C871.884 834.382 893.384 850.882 919.884 862.382C946.384 873.882 970.884 882.382 970.884 882.382C969.869 891.766 961.403 930.633 948.883 952.382C936.72 973.513 933.885 975.882 906.384 981.382C878.883 986.882 858.289 977.382 847.884 959.882C837.479 942.382 843.781 932.505 840.884 925.882C833.885 909.882 830.609 909.215 834.384 895.882C838.159 882.55 847.884 879.382 847.884 879.382V860.882Z" fill="#F3EDE4"></path>
<path d="M872.189 833.986L872.192 833.989C872.194 833.991 872.199 833.993 872.204 833.997C872.214 834.004 872.229 834.016 872.249 834.032C872.29 834.063 872.352 834.11 872.433 834.171C872.596 834.294 872.838 834.477 873.157 834.712C873.794 835.184 874.735 835.872 875.947 836.733C878.371 838.456 881.88 840.873 886.216 843.649C894.89 849.203 906.865 856.188 920.082 861.923C933.323 867.669 946.065 872.666 955.497 876.227C960.213 878.007 964.102 879.428 966.811 880.404C968.165 880.892 969.225 881.268 969.946 881.523C970.306 881.65 970.582 881.747 970.767 881.812C970.86 881.844 970.93 881.869 970.977 881.885C971 881.893 971.018 881.9 971.03 881.904C971.036 881.906 971.04 881.908 971.043 881.909L971.046 881.91L971.423 882.041L971.381 882.436C970.87 887.167 968.491 899.26 964.679 912.88C960.868 926.5 955.608 941.702 949.317 952.631C943.245 963.179 939.444 969.159 933.669 973.155C927.903 977.145 920.213 979.127 906.482 981.873C878.811 987.407 857.986 977.851 847.455 960.138C842.201 951.302 841.157 944.369 841.069 938.811C841.025 936.08 841.217 933.589 841.237 931.523C841.257 929.409 841.106 927.638 840.426 926.083C838.682 922.094 837.17 919.063 835.936 916.54C834.706 914.023 833.741 911.991 833.118 910.034C831.853 906.067 832.003 902.456 833.903 895.747C835.82 888.975 839.256 884.768 842.227 882.252C843.711 880.995 845.076 880.162 846.075 879.642C846.574 879.382 846.982 879.2 847.268 879.083C847.309 879.066 847.348 879.051 847.384 879.037V860.69L847.513 860.546L871.823 833.705L872.189 833.986ZM848.384 861.075V879.746L848.039 879.857L848.039 879.858L848.036 879.859C848.032 879.86 848.026 879.862 848.019 879.865C848.003 879.87 847.979 879.878 847.946 879.89C847.88 879.914 847.779 879.953 847.649 880.006C847.388 880.114 847.007 880.284 846.537 880.529C845.594 881.02 844.292 881.812 842.872 883.014C840.038 885.415 836.723 889.457 834.865 896.018C832.989 902.641 832.89 906.03 834.07 909.73C834.668 911.606 835.599 913.575 836.833 916.1C838.065 918.618 839.587 921.671 841.342 925.682C842.11 927.438 842.258 929.386 842.237 931.533C842.215 933.728 842.025 936.042 842.069 938.795C842.155 944.206 843.163 950.963 848.314 959.627C858.592 976.914 878.956 986.358 906.286 980.892C920.056 978.138 927.534 976.185 933.101 972.333C938.66 968.486 942.358 962.716 948.45 952.133C954.678 941.314 959.911 926.208 963.716 912.611C967.419 899.382 969.753 887.632 970.339 882.721C970.159 882.658 969.915 882.573 969.613 882.466C968.89 882.211 967.829 881.834 966.472 881.345C963.759 880.368 959.866 878.945 955.145 877.163C945.703 873.598 932.945 868.596 919.685 862.841C906.403 857.077 894.378 850.062 885.677 844.491C881.326 841.705 877.803 839.278 875.368 837.547C874.15 836.682 873.204 835.991 872.562 835.515C872.309 835.328 872.104 835.174 871.948 835.056L848.384 861.075Z" fill="black"></path>
</svg>