<svg width="1216" height="1216" viewBox="0 0 1216 1216" fill="none" xmlns="http://www.w3.org/2000/svg">
<path d="M289.382 267.494C287.761 243.176 291.814 233.449 290.192 218.859C288.571 188.056 299.919 147.527 305.594 127.262C308.025 119.967 311.268 116.725 320.995 118.346C307.215 115.914 284.518 98.081 283.708 72.9528C281.276 43.7716 302.351 25.9387 323.427 24.3175C346.123 21.8857 364.766 37.2869 371.251 51.0669C397.19 51.8775 423.939 38.9081 457.174 36.4763C490.408 34.0446 501.756 32.4234 519.589 39.7187C537.422 47.014 549.581 54.3093 553.634 57.5516C581.194 81.0587 590.921 110.24 591.731 133.747C592.542 142.663 609.564 167.792 612.806 173.466C620.102 184.003 629.829 196.162 630.639 209.942C633.882 247.229 607.943 279.653 589.299 307.213C574.709 329.099 552.012 346.932 536.611 361.522C550.391 348.553 575.519 326.667 590.11 308.834L609.564 333.152L663.874 361.522L668.737 382.597L676.843 397.188C680.085 419.074 701.161 453.119 712.509 470.141C723.046 485.542 732.774 496.89 761.144 493.648C756.281 505.807 736.826 517.155 730.342 518.776C741.69 518.776 761.144 500.943 762.765 497.701L793.568 475.005C791.946 536.609 838.961 585.244 860.036 587.676C869.763 588.487 879.49 589.297 882.732 585.244L880.301 566.601C890.838 556.063 898.944 543.094 894.081 525.261C904.618 514.723 916.777 513.102 937.042 497.701C960.549 480.679 988.919 453.119 1009.99 433.665L965.412 432.043C959.738 445.823 940.284 448.255 933.799 449.066L864.089 465.277L822.749 511.481" stroke="black" stroke-width="4.05294" stroke-miterlimit="10"></path>
<path d="M322.608 446.634L359.895 418.264C349.357 411.779 325.04 405.294 309.639 396.378" stroke="black" stroke-width="4.05294" stroke-miterlimit="10"></path>
<path d="M286.138 267.494C279.654 268.305 278.032 287.759 267.495 300.728C256.957 310.455 215.617 350.985 200.216 354.227C191.3 368.007 176.709 390.704 169.414 409.347C137.801 487.974 117.536 539.852 105.377 592.54C99.7031 619.289 96.4607 623.342 102.135 638.744C108.62 659.008 124.831 718.181 145.907 726.287C158.065 731.151 179.951 731.151 181.572 734.393C180.762 753.036 159.687 819.505 162.118 875.435C163.74 908.669 166.982 935.419 171.035 949.199C177.52 928.124 197.784 882.731 205.08 871.382C209.943 867.329 217.238 932.177 252.094 1014.05C264.252 1042.42 282.896 1104.02 288.57 1119.42C291.812 1129.96 255.336 1150.22 256.957 1173.73C258.578 1192.38 295.865 1204.53 328.289 1204.53C348.554 1204.53 388.272 1198.86 404.484 1192.38C420.696 1185.08 447.445 1176.16 447.445 1155.09C447.445 1129.96 445.824 1114.56 449.067 1082.95C450.688 1066.73 466.9 992.16 474.195 990.539C483.111 989.728 488.785 990.539 486.354 992.971C489.596 1005.94 498.512 1036.74 496.891 1081.32C495.27 1104.02 489.596 1131.58 506.618 1151.04C515.535 1159.95 576.329 1172.11 603.078 1174.54C637.123 1175.35 639.555 1176.16 644.418 1171.3C651.714 1168.06 665.494 1174.54 684.137 1163.19C700.349 1154.28 700.349 1134.82 677.652 1115.37C665.494 1107.26 639.555 1103.21 632.26 1089.43C635.502 1070.79 651.714 1050.52 660.63 1022.15C669.547 993.781 684.137 937.04 684.137 919.207C684.137 890.837 706.023 843.012 708.455 827.611L722.235 806.535C730.341 789.513 736.825 785.46 734.394 762.764C732.772 738.446 720.614 680.084 718.182 641.175C713.318 600.646 684.948 511.481 680.084 479.058C672.789 445.824 669.547 385.029 663.872 361.522" stroke="black" stroke-width="4.05294" stroke-miterlimit="10"></path>
<path d="M705.213 388.271C732.773 380.166 766.818 365.575 821.938 361.522" stroke="black" stroke-width="2.02647" stroke-miterlimit="10"></path>
<path d="M706.02 393.135C714.936 388.272 757.897 377.734 819.502 373.681" stroke="black" stroke-width="2.02647" stroke-miterlimit="10" stroke-linecap="round" stroke-linejoin="round"></path>
<path d="M291.004 267.494C299.11 275.6 323.427 287.759 333.965 292.622C347.745 303.16 368.82 308.024 390.706 320.182C419.077 332.341 482.303 351.795 517.969 369.628" stroke="black" stroke-width="4.05294" stroke-miterlimit="10" stroke-linecap="round" stroke-linejoin="round"></path>
<path d="M274.791 300.728C279.655 327.477 299.109 376.113 307.215 396.377" stroke="black" stroke-width="4.05294" stroke-miterlimit="10" stroke-linecap="round"></path>
<path d="M198.594 359.901C203.457 372.06 243.987 397.188 291.001 461.225" stroke="black" stroke-width="2.02647" stroke-miterlimit="10" stroke-linecap="round" stroke-linejoin="round"></path>
<path d="M301.534 471.762C300.724 490.405 286.943 542.283 284.512 588.486" stroke="black" stroke-width="4.05294" stroke-miterlimit="10" stroke-linecap="round"></path>
<path d="M336.395 335.584C373.682 373.681 400.431 418.264 412.59 432.854C426.37 455.551 469.331 539.041 489.596 594.972" stroke="black" stroke-width="4.05294" stroke-miterlimit="10" stroke-linecap="round" stroke-linejoin="round"></path>
<path d="M410.154 428.801C441.767 457.982 517.963 558.495 560.113 599.025L575.514 620.911L574.704 628.206" stroke="black" stroke-width="4.05294" stroke-miterlimit="10" stroke-linecap="round" stroke-linejoin="round"></path>
<path d="M323.428 446.634C349.367 479.058 408.539 534.988 436.91 572.275L438.531 576.328" stroke="black" stroke-width="4.05294" stroke-miterlimit="10" stroke-linecap="round" stroke-linejoin="round"></path>
<path d="M353.414 345.31C393.943 377.734 409.345 384.219 469.328 414.21" stroke="black" stroke-width="2.02647" stroke-miterlimit="10" stroke-linecap="round" stroke-linejoin="round"></path>
<path d="M307.217 805.725C320.997 817.884 376.927 847.065 393.139 855.982C414.214 864.087 457.176 879.489 471.766 880.299C479.061 882.731 481.493 863.277 485.546 855.171L538.234 872.193C543.909 875.436 556.067 862.466 562.552 859.224C574.711 851.118 587.68 831.664 587.68 826.8L624.157 862.466L653.338 839.77C659.823 834.096 665.497 828.422 671.981 826.8L673.603 859.224L680.087 855.982" stroke="black" stroke-width="4.05294" stroke-miterlimit="10" stroke-linecap="round" stroke-linejoin="round"></path>
<path d="M194.543 730.34C186.438 730.34 186.438 732.772 189.68 791.134C190.491 831.663 189.68 830.042 201.839 834.095L215.619 839.769C215.619 847.875 205.892 862.466 202.649 866.519" stroke="black" stroke-width="4.05294" stroke-miterlimit="10" stroke-linecap="round" stroke-linejoin="round"></path>
<path d="M177.523 731.15L193.735 734.393" stroke="black" stroke-width="4.05294" stroke-miterlimit="10" stroke-linecap="round"></path>
<path d="M190.488 726.287C197.784 697.106 201.837 663.872 218.859 637.122C234.26 615.236 255.335 588.487 278.842 588.487C295.054 587.676 303.16 594.972 312.887 595.782C328.288 596.593 350.174 590.919 355.848 596.593L353.417 603.078C364.765 603.078 373.681 599.835 372.871 611.184" stroke="black" stroke-width="4.05294" stroke-miterlimit="10" stroke-linecap="round" stroke-linejoin="round"></path>
<path d="M198.592 729.529C205.887 729.529 209.94 741.688 195.35 738.446" stroke="black" stroke-width="4.05294" stroke-miterlimit="10" stroke-linecap="round"></path>
<path d="M311.266 706.022C303.971 758.71 303.161 807.346 312.077 863.276C312.077 867.329 260.199 855.981 218.859 843.011" stroke="black" stroke-width="4.05294" stroke-miterlimit="10" stroke-linecap="round" stroke-linejoin="round"></path>
<path d="M308.023 744.931C316.129 749.794 357.469 761.143 348.553 746.552C335.583 732.772 332.341 710.076 333.962 671.978C336.394 635.501 347.742 611.184 356.659 603.078" stroke="black" stroke-width="4.05294" stroke-miterlimit="10"></path>
<path d="M372.87 714.128C385.029 734.393 381.787 742.499 348.553 741.688" stroke="black" stroke-width="4.05294" stroke-miterlimit="10"></path>
<path d="M376.117 611.994C392.329 599.025 419.078 580.381 445.017 578.76C454.744 578.76 465.282 584.434 466.903 594.972" stroke="black" stroke-width="4.05294" stroke-miterlimit="10" stroke-linecap="round" stroke-linejoin="round"></path>
<path d="M453.121 599.025C462.848 595.783 485.545 596.593 497.703 599.836C505.809 603.078 509.862 612.805 513.915 623.343C519.589 632.259 519.589 633.07 518.779 651.713C517.968 671.978 507.43 693.864 504.188 706.023C500.135 742.499 502.567 757.09 483.113 851.929" stroke="black" stroke-width="4.05294" stroke-miterlimit="10" stroke-linecap="round" stroke-linejoin="round"></path>
<path d="M364.764 713.318C385.028 714.129 404.483 712.507 424.747 714.129C454.739 717.371 493.647 720.613 511.48 692.243" stroke="black" stroke-width="4.05294" stroke-miterlimit="10" stroke-linecap="round" stroke-linejoin="round"></path>
<path d="M489.598 631.448C497.704 629.017 505.809 624.964 510.673 620.911L509.862 624.153C501.756 631.448 497.704 631.448 489.598 633.069V631.448Z" fill="black"></path>
<path d="M498.512 663.872C509.86 655.766 522.019 641.175 511.481 627.395L513.913 624.153C517.966 631.448 522.829 635.501 519.587 645.228C513.913 656.576 507.428 661.44 498.512 665.493V663.872Z" fill="black"></path>
<path d="M526.073 372.06C534.179 369.628 539.853 372.06 542.285 372.06C550.391 368.007 572.277 345.311 576.33 351.795C580.383 363.954 582.815 385.029 582.815 423.127C564.171 423.127 542.285 406.105 534.99 405.294C531.747 405.294 526.073 409.347 522.02 409.347C514.725 409.347 487.165 442.581 475.006 442.581C471.764 440.96 453.12 364.765 462.037 360.712C465.279 359.901 501.756 373.681 511.483 376.924L517.967 369.628" stroke="black" stroke-width="4.05294" stroke-miterlimit="10" stroke-linecap="round" stroke-linejoin="round"></path>
<path d="M515.538 385.84C511.486 393.136 518.781 406.105 522.023 408.537C526.076 410.158 538.235 405.295 539.046 392.325C542.288 372.871 522.023 364.765 515.538 385.84Z" stroke="black" stroke-width="4.05294" stroke-miterlimit="10" stroke-linecap="round"></path>
<path d="M487.16 396.378C494.455 393.135 509.857 390.704 514.72 393.946L511.478 396.378H487.16Z" stroke="black" stroke-width="4.05294" stroke-miterlimit="10" stroke-linecap="round" stroke-linejoin="round"></path>
<path d="M539.852 381.787C546.336 380.166 558.495 381.787 562.548 385.84L539.852 389.893L539.041 397.188C558.495 402.051 564.169 416.642 582.813 418.263" stroke="black" stroke-width="4.05294" stroke-miterlimit="10" stroke-linecap="round" stroke-linejoin="round"></path>
<path d="M587.678 373.681L592.541 364.765" stroke="black" stroke-width="4.05294" stroke-miterlimit="10" stroke-linecap="round" stroke-linejoin="round"></path>
<path d="M586.869 312.887C586.869 355.848 611.997 417.453 624.967 485.542C639.557 546.336 643.61 603.078 652.527 647.66C653.337 685.758 671.981 762.763 673.602 825.989" stroke="black" stroke-width="4.05294" stroke-miterlimit="10" stroke-linecap="round" stroke-linejoin="round"></path>
<path d="M588.484 364.765C599.022 380.976 611.181 428.801 611.181 433.665" stroke="black" stroke-width="2.02647" stroke-miterlimit="10" stroke-linecap="round"></path>
<path d="M604.697 430.422C620.098 432.854 639.553 595.782 649.28 639.554" stroke="black" stroke-width="4.05294" stroke-miterlimit="10" stroke-linecap="round"></path>
<path d="M526.067 39.7186C517.961 37.2869 517.961 35.6657 522.825 28.3704C526.878 20.2645 539.036 11.348 554.438 8.91626C568.218 8.91626 587.672 27.5598 588.482 49.4457C589.293 64.0363 583.619 72.1421 576.323 77.8163C584.429 77.8163 592.535 68.0892 592.535 59.9833C594.967 33.2339 576.323 12.9692 556.059 11.348C535.794 12.9692 526.878 27.5598 517.961 34.0445C504.181 33.2339 503.371 31.6127 482.295 32.4233C434.471 32.4233 414.206 45.3927 376.108 47.8245C369.624 31.6127 344.495 15.401 325.041 21.8857C299.102 29.181 290.996 43.7716 284.512 66.468" stroke="black" stroke-width="4.05294" stroke-miterlimit="10" stroke-linecap="round" stroke-linejoin="round"></path>
<path d="M582.814 112.672L592.541 130.505" stroke="black" stroke-width="4.05294" stroke-miterlimit="10" stroke-linecap="round"></path>
<path d="M518.775 258.578C538.23 264.252 560.115 262.631 576.327 251.282C584.433 252.093 590.918 252.093 595.781 256.146" stroke="black" stroke-width="4.05294" stroke-miterlimit="10" stroke-linecap="round" stroke-linejoin="round"></path>
<path d="M558.503 149.148C556.072 145.095 558.503 124.83 562.556 132.936C566.609 138.61 570.662 153.201 558.503 150.769" fill="black"></path>
<path d="M474.198 141.853C466.903 141.042 466.092 158.875 473.388 158.875C478.251 158.875 479.062 145.095 474.198 141.853Z" fill="black"></path>
<path d="M552.796 149.592C553.446 148.681 554.712 148.47 555.623 149.12L601.016 181.544C601.757 182.073 602.053 183.032 601.741 183.888C601.739 183.893 601.736 183.897 601.734 183.902C602.733 184.598 603.59 185.477 604.264 186.587C605.415 188.484 605.905 190.849 605.912 193.667C606.35 203.147 600.826 209.181 594.846 214.857C588.739 220.653 582.035 226.214 578.185 235.068C578.033 235.42 577.79 235.703 577.498 235.91L576.732 248.167C576.662 249.284 575.7 250.132 574.583 250.062C573.466 249.992 572.618 249.031 572.687 247.914L573.489 235.08C573.297 231.67 571.962 229.335 569.797 227.322C567.502 225.188 564.337 223.464 560.465 221.347C552.834 217.175 543.247 211.876 536.459 199.573C536.178 199.065 536.13 198.46 536.325 197.913C537.625 194.273 541.374 191.489 545.843 189.345C550.425 187.146 556.27 185.383 562.534 184.048C568.803 182.712 575.587 181.785 582.099 181.297C582.32 181.213 582.56 181.166 582.811 181.166C583.218 181.166 583.621 181.167 584.018 181.167C587.173 180.971 590.243 180.88 593.138 180.897L553.268 152.419C552.357 151.768 552.145 150.502 552.796 149.592ZM584.134 185.221C577.303 185.652 570.043 186.591 563.379 188.012C557.281 189.311 551.778 190.992 547.596 192.999C543.848 194.797 541.519 196.686 540.503 198.49C546.646 209.074 555.04 213.762 562.408 217.79C566.134 219.827 569.81 221.801 572.556 224.353C574.182 225.865 575.497 227.59 576.372 229.653C580.73 221.992 587.001 216.714 592.056 211.917C598.024 206.252 602.22 201.35 601.862 193.827C601.861 193.795 601.86 193.763 601.86 193.73C601.86 191.308 601.437 189.741 600.799 188.689C600.186 187.68 599.255 186.947 597.81 186.41C596.316 185.855 594.347 185.54 591.791 185.38C589.576 185.241 587.039 185.223 584.134 185.221Z" fill="black"></path>
<path d="M584.134 185.221C577.303 185.652 570.043 186.591 563.379 188.012C557.281 189.311 551.778 190.992 547.596 192.999C543.848 194.797 541.519 196.686 540.503 198.49C546.646 209.074 555.04 213.762 562.408 217.79C566.134 219.827 569.81 221.801 572.556 224.353C574.182 225.865 575.497 227.59 576.372 229.653C580.73 221.992 587.001 216.714 592.056 211.917C598.024 206.252 602.22 201.35 601.862 193.827C601.861 193.795 601.86 193.763 601.86 193.73C601.86 191.308 601.437 189.741 600.799 188.689C600.186 187.68 599.255 186.947 597.81 186.41C596.316 185.855 594.347 185.54 591.791 185.38C589.576 185.241 587.039 185.223 584.134 185.221Z" fill="black"></path>
<path d="M721.424 659.818L742.499 673.598C754.658 677.651 866.519 627.395 882.731 592.54" stroke="black" stroke-width="4.05294" stroke-miterlimit="10" stroke-linecap="round" stroke-linejoin="round"></path>
<path d="M794.377 470.141C802.483 461.225 811.399 458.793 813.831 465.277L817.884 485.542" stroke="black" stroke-width="4.05294" stroke-miterlimit="10" stroke-linecap="round" stroke-linejoin="round"></path>
<path d="M836.524 433.665C821.934 445.013 807.343 477.437 819.502 507.428C825.987 519.587 851.926 542.284 868.137 543.905C884.349 543.094 896.508 543.094 892.455 527.693" stroke="black" stroke-width="4.05294" stroke-miterlimit="10" stroke-linecap="round" stroke-linejoin="round"></path>
<path d="M681.701 396.378C689.807 412.589 757.896 426.369 835.713 430.422C886.78 433.665 919.204 428.801 951.627 430.422C989.725 432.854 1061.06 424.748 1094.29 413.4C1103.21 409.347 1123.47 396.378 1113.74 385.029C1105.64 376.113 1034.31 361.522 973.513 360.712" stroke="black" stroke-width="4.05294" stroke-miterlimit="10" stroke-linecap="round"></path>
<path d="M977.571 369.628C1024.59 372.87 1065.11 377.734 1094.3 385.84C1107.27 389.893 1117.8 392.324 1107.27 400.43C1097.54 408.536 1061.06 416.642 969.465 424.748C928.125 428.801 884.354 425.558 855.983 428.801C782.219 425.558 684.138 416.642 684.949 396.377C681.707 377.734 778.167 361.522 822.749 361.522" stroke="black" stroke-width="2.02647" stroke-miterlimit="10"></path>
<path d="M705.213 393.135C706.023 389.893 745.742 377.734 819.506 373.681" stroke="black" stroke-width="2.02647" stroke-miterlimit="10" stroke-linecap="round"></path>
<path d="M980.004 372.06C1001.89 372.06 1094.3 380.166 1094.3 390.704" stroke="black" stroke-width="2.02647" stroke-miterlimit="10" stroke-linecap="round" stroke-linejoin="round"></path>
<path d="M835.713 360.712C866.515 359.901 911.908 357.47 961.354 359.901" stroke="black" stroke-width="4.05294" stroke-miterlimit="10" stroke-linecap="round"></path>
<path d="M838.152 369.628C874.629 368.007 924.075 365.575 959.741 368.007" stroke="black" stroke-width="2.02647" stroke-miterlimit="10" stroke-linecap="round"></path>
<path d="M783.028 124.831C774.111 162.929 761.142 223.723 802.482 254.525C818.694 268.305 821.936 275.6 821.936 332.341C821.936 384.219 815.451 380.166 798.429 384.219C766.816 389.893 777.354 402.052 823.557 404.484C896.51 404.484 882.73 389.083 847.064 384.219C834.095 380.977 831.663 368.818 834.095 303.16C838.148 263.441 847.875 264.252 858.412 254.525C896.51 218.859 882.73 158.876 870.571 122.399C868.14 118.346 783.028 114.293 783.028 124.831Z" stroke="black" stroke-width="4.05294" stroke-miterlimit="10"></path>
<path d="M927.316 120.778C919.21 153.201 904.619 222.101 944.338 252.093C961.36 267.494 961.36 276.411 961.36 339.637C961.36 380.166 953.254 380.166 943.527 381.787C908.672 388.272 915.967 401.241 961.36 404.484C1026.21 404.484 1025.4 389.893 989.731 381.787C975.951 380.977 972.709 368.818 973.519 307.213C977.572 264.252 984.057 266.684 997.026 252.093C1032.69 218.048 1022.15 158.065 1013.24 120.778C1010 113.482 928.937 112.672 927.316 120.778Z" stroke="black" stroke-width="4.05294" stroke-miterlimit="10"></path>
<path d="M785.465 124.831C795.192 130.505 863.281 132.937 871.387 125.641" stroke="black" stroke-width="4.05294" stroke-miterlimit="10" stroke-linecap="round"></path>
<path d="M928.123 122.399C928.123 128.883 1004.32 130.505 1013.23 122.399" stroke="black" stroke-width="4.05294" stroke-miterlimit="10" stroke-linecap="round"></path>
<path d="M846.256 453.929C851.119 449.066 859.225 437.717 862.468 434.475L864.089 436.907L847.877 454.74L846.256 453.929Z" fill="black"></path>
<path d="M485.547 990.539C510.675 989.728 558.5 980.812 571.469 961.357" stroke="black" stroke-width="4.05294" stroke-miterlimit="10" stroke-linecap="round"></path>
<path d="M669.543 937.04C684.134 920.018 705.209 863.277 709.262 826.8" stroke="black" stroke-width="4.05294" stroke-miterlimit="10" stroke-linecap="round"></path>
<path d="M312.079 1151.85C303.162 1159.95 295.867 1182.65 300.731 1198.86" stroke="black" stroke-width="4.05294" stroke-miterlimit="10" stroke-linecap="round"></path>
<path d="M320.988 1121.85C332.337 1114.56 359.897 1117.8 369.624 1123.48" stroke="black" stroke-width="2.02647" stroke-miterlimit="10" stroke-linecap="round"></path>
<path d="M361.519 1158.33C349.36 1182.65 355.845 1194.81 356.655 1200.48" stroke="black" stroke-width="4.05294" stroke-miterlimit="10" stroke-linecap="round"></path>
<path d="M620.1 1130.77C635.501 1135.63 649.281 1154.28 644.417 1167.25" stroke="black" stroke-width="4.05294" stroke-miterlimit="10" stroke-linecap="round"></path>
<path d="M657.383 1123.48C669.542 1126.72 688.185 1151.85 680.079 1162.38" stroke="black" stroke-width="2.02647" stroke-miterlimit="10" stroke-linecap="round"></path>
<path d="M579.57 406.104L582.813 424.748L539.041 408.536" stroke="black" stroke-width="4.05294" stroke-miterlimit="10" stroke-linecap="round" stroke-linejoin="round"></path>
<path d="M526.074 409.347C538.233 441.77 566.604 552.01 574.71 620.91" stroke="black" stroke-width="4.05294" stroke-miterlimit="10" stroke-linecap="round" stroke-linejoin="round"></path>
<path d="M576.326 629.016C595.78 594.972 611.181 531.746 607.129 458.793C607.129 436.907 594.97 397.188 587.674 373.681" stroke="black" stroke-width="4.05294" stroke-miterlimit="10" stroke-linecap="round"></path>
<path d="M592.535 308.023L643.602 380.166C647.655 385.029 627.39 400.43 629.012 405.294C629.012 416.642 656.572 416.642 657.382 434.475C660.625 465.278 668.73 547.147 660.625 637.122" stroke="black" stroke-width="4.05294" stroke-miterlimit="10" stroke-linecap="round" stroke-linejoin="round"></path>
<path d="M671.98 385.03L680.086 402.052" stroke="black" stroke-width="4.05294" stroke-miterlimit="10" stroke-linecap="round" stroke-linejoin="round"></path>
<path d="M611.996 335.584L659.821 360.712" stroke="black" stroke-width="4.05294" stroke-miterlimit="10" stroke-linecap="round" stroke-linejoin="round"></path>
<path d="M583.623 822.747L624.152 862.466L669.545 825.989" stroke="black" stroke-width="4.05294" stroke-miterlimit="10" stroke-linecap="round" stroke-linejoin="round"></path>
</svg>