<svg width="1216" height="1216" viewBox="0 0 1216 1216" fill="none" xmlns="http://www.w3.org/2000/svg">
<path d="M402.866 99.7028C385.843 117.536 372.063 145.096 355.852 171.035C376.116 152.391 382.601 127.263 404.487 100.513L402.866 99.7028Z" stroke="black" stroke-width="6.07941" stroke-linejoin="round"></path>
<path d="M397.189 34.0446C403.674 19.454 423.939 13.7799 433.666 12.9693C458.794 8.10579 475.817 19.454 481.491 47.8246L483.112 63.2258" stroke="black" stroke-width="6.07941" stroke-linejoin="round"></path>
<path d="M482.299 49.4463C504.995 44.5828 536.608 42.9616 564.979 44.5828L556.873 49.4463C586.054 51.8781 612.804 63.2263 635.5 75.3852C618.478 67.2793 654.144 26.7499 678.461 57.5522" stroke="black" stroke-width="6.07941" stroke-linejoin="round"></path>
<path d="M617.662 68.0896C626.579 55.1202 640.359 40.5296 656.57 47.0143C689.804 55.9308 693.857 106.187 667.108 125.641L669.54 128.884C677.646 141.853 677.646 165.36 676.835 186.435M676.835 186.435C675.214 210.753 691.426 239.934 696.289 265.063C684.941 240.745 674.403 208.321 676.835 186.435ZM676.835 186.435C678.456 171.034 676.024 152.391 669.54 137.8L671.972 138.611C668.729 128.884 663.055 120.778 655.76 111.861L659.002 112.672C653.328 102.945 643.601 94.0284 635.495 84.3014C645.222 89.9755 653.328 100.513 667.108 122.399C677.646 126.452 686.562 109.43 686.562 102.945C697.1 53.499 650.896 24.3179 624.957 55.9308L617.662 65.6579" stroke="black" stroke-width="6.07941" stroke-linejoin="round"></path>
<path d="M415.03 106.187C401.25 102.134 372.88 59.9835 400.44 32.4235" stroke="black" stroke-width="4.05294" stroke-linejoin="round"></path>
<path d="M445.016 66.4683C448.258 68.0894 449.069 74.5741 451.501 76.1953C451.501 69.7106 445.827 62.4153 445.016 62.4153C449.88 61.6047 451.501 68.0894 454.743 69.7106C453.932 64.8471 453.122 61.6047 451.501 56.7412C454.743 56.7412 462.849 74.5741 453.932 80.2483L445.016 71.3318L436.91 75.3847L445.016 66.4683Z" fill="black"></path>
<path d="M363.954 172.656L356.659 180.762L362.333 179.14L340.447 239.124C352.606 272.358 406.105 316.94 442.581 340.448C483.111 368.818 508.239 376.924 518.777 385.03L535.799 398.81" stroke="black" stroke-width="6.07941" stroke-linecap="round" stroke-linejoin="round"></path>
<path d="M539.85 403.672C550.387 396.377 556.872 385.029 577.947 376.112C604.697 364.764 633.067 352.605 652.521 334.772L651.711 338.015C659.817 332.341 667.923 322.614 671.976 312.887V317.75C676.028 313.697 674.407 306.402 674.407 305.591C678.46 310.455 674.407 320.992 662.248 332.341L650.9 342.068L651.711 337.204C643.605 344.5 634.688 350.174 633.067 352.605C641.984 367.196 680.081 389.082 688.187 402.862C697.914 416.642 712.505 470.951 734.391 516.344" stroke="black" stroke-width="6.07941" stroke-linejoin="round"></path>
<path d="M338.818 239.124C327.47 243.176 316.121 263.441 303.963 274.789C287.751 290.191 235.063 325.046 205.881 344.5C189.67 356.659 186.427 365.575 169.405 397.188C157.246 419.885 133.739 465.278 125.633 483.921C109.421 522.019 96.452 554.442 85.1037 592.54C76.1873 627.395 89.9673 673.599 97.2626 685.758C93.2096 677.652 84.2932 628.206 88.3461 603.888C97.2626 571.465 125.633 502.565 137.792 475.005C149.951 449.876 183.185 385.029 194.533 363.954C203.45 349.364 222.093 339.636 235.873 329.099C258.57 312.887 295.857 287.759 304.773 278.842" stroke="black" stroke-width="4.05294" stroke-linecap="round" stroke-linejoin="round"></path>
<path d="M332.342 243.987C340.448 295.865 428.802 449.876 459.604 643.607" stroke="black" stroke-width="6.07941" stroke-linejoin="round"></path>
<path d="M369.625 341.257C385.026 368.817 438.525 405.294 471.759 425.559" stroke="black" stroke-width="4.05294" stroke-linejoin="round"></path>
<path d="M397.996 412.589C427.177 470.141 513.91 604.699 547.955 651.713L548.765 659.819C582.81 608.752 616.855 527.693 611.991 406.105" stroke="black" stroke-width="4.05294" stroke-linejoin="round"></path>
<path d="M531.744 437.718C543.903 505.807 548.766 574.707 547.956 657.387C543.903 664.682 547.956 700.348 547.145 738.446C547.145 777.354 539.039 809.778 542.282 827.61C547.956 831.663 574.705 871.382 581.19 872.193C586.864 872.193 607.129 851.928 631.447 839.769L632.257 838.959C633.068 851.928 632.257 872.193 636.31 875.435C640.363 878.678 667.923 851.928 673.597 846.254C684.945 834.095 701.157 811.399 701.968 799.24C701.968 770.869 694.672 667.925 684.945 563.359C692.241 600.646 694.672 652.523 696.294 684.136C705.21 700.348 732.77 714.128 757.088 713.318C778.974 710.886 834.904 698.727 854.358 690.621C864.896 686.568 872.191 684.136 873.002 663.872" stroke="black" stroke-width="6.07941" stroke-linejoin="round"></path>
<path d="M616.862 356.659C612.809 376.924 615.241 417.453 619.294 445.824C624.968 519.587 624.968 641.175 629.832 742.499C632.263 783.028 633.074 832.474 633.074 868.14" stroke="black" stroke-width="4.05294" stroke-linejoin="round"></path>
<path d="M616.862 385.84C613.62 410.157 603.893 418.263 594.977 426.369" stroke="black" stroke-width="6.07941" stroke-linejoin="round"></path>
<path d="M530.939 404.483C524.454 408.536 487.167 376.923 475.819 378.544C467.713 380.166 470.145 453.929 478.25 462.035C483.114 466.898 515.537 442.581 527.696 437.717H546.34C554.446 441.77 578.763 462.846 587.68 461.224C594.975 459.603 596.596 394.756 594.975 386.65C591.733 377.734 556.067 401.241 547.961 401.241" stroke="black" stroke-width="4.05294" stroke-linejoin="round"></path>
<path d="M527.696 406.105C522.022 412.589 520.401 437.717 535.802 436.907C552.014 435.286 556.067 406.105 542.287 401.241C538.234 400.43 531.749 400.43 527.696 406.105Z" stroke="black" stroke-width="3.24235" stroke-linejoin="round"></path>
<path d="M550.393 417.453L571.468 420.695L550.393 419.074" stroke="black" stroke-width="4.05294" stroke-linejoin="round"></path>
<path d="M522.828 419.074C513.911 417.453 503.373 416.642 495.268 420.695L523.638 421.506L522.828 419.074Z" stroke="black" stroke-width="4.05294" stroke-linejoin="round"></path>
<path d="M624.152 353.417L629.826 351.796L659.008 426.37C660.629 432.854 636.311 445.013 640.364 453.119C644.417 462.036 662.25 470.141 662.25 481.49C659.818 527.693 646.038 628.206 636.311 669.546C651.712 632.259 665.492 500.133 663.871 481.49C662.25 470.141 640.364 462.036 639.554 453.119C637.932 445.013 660.629 433.665 659.818 427.18L631.448 352.606L624.152 353.417Z" stroke="black" stroke-width="6.07941" stroke-linejoin="round"></path>
<path d="M304.779 275.6C303.968 303.16 309.642 372.06 312.884 380.976C316.127 388.272 361.52 402.052 362.33 410.158C362.33 410.968 325.043 433.665 325.043 436.907C337.202 462.846 397.186 568.222 429.609 620.1" stroke="black" stroke-width="6.07941" stroke-linecap="round" stroke-linejoin="round"></path>
<path d="M320.989 757.9C295.05 766.006 303.156 655.766 332.337 627.395C340.443 620.91 323.421 616.047 296.672 611.994C283.702 612.805 275.596 600.646 254.521 599.835C230.203 599.025 177.515 640.365 158.061 724.666C145.092 783.028 145.092 838.148 146.713 843.822C149.144 847.065 157.25 847.875 158.061 851.928C145.092 868.14 125.637 895.7 112.668 935.419C96.4562 864.087 114.289 781.407 133.743 716.56" stroke="black" stroke-width="6.07941" stroke-linejoin="round"></path>
<path d="M331.529 624.963C308.022 624.153 278.841 685.757 268.303 774.922C262.629 821.936 266.682 890.836 265.061 892.457C238.312 890.836 184.002 860.844 158.063 854.36" stroke="black" stroke-width="6.07941" stroke-linejoin="round"></path>
<path d="M271.547 761.953C282.895 766.006 295.054 770.869 309.645 770.059C316.129 769.248 303.97 761.142 303.97 734.393C303.97 697.106 312.887 628.206 339.636 628.206C346.121 628.206 354.227 633.069 351.795 637.122" stroke="black" stroke-width="6.07941" stroke-linejoin="round"></path>
<path d="M331.534 757.9C338.019 757.9 341.261 746.552 340.451 741.688" stroke="black" stroke-width="6.07941" stroke-linejoin="round"></path>
<path d="M339.644 647.66C328.296 668.735 319.379 725.476 329.107 736.824C372.068 748.983 418.271 766.006 451.505 748.983C470.96 738.446 478.255 718.181 482.308 696.295C483.929 685.757 478.255 661.44 473.391 653.334C466.907 643.607 428.809 637.122 424.756 639.554C432.862 635.501 445.831 641.175 445.021 639.554C438.536 616.857 408.544 611.183 359.909 632.259L345.318 639.554L339.644 647.66Z" stroke="black" stroke-width="6.07941" stroke-linejoin="round"></path>
<path d="M457.174 680.894C463.659 681.705 477.439 676.03 479.06 673.599" stroke="black" stroke-width="4.05294" stroke-linejoin="round"></path>
<path d="M461.229 712.507C469.334 712.507 479.061 700.348 481.493 697.916" stroke="black" stroke-width="4.05294" stroke-linejoin="round"></path>
<path d="M267.495 805.725C304.782 834.095 368.819 871.382 424.749 882.731C434.476 883.541 433.666 882.731 442.582 854.36C450.688 825.989 458.794 782.218 459.605 765.195L461.226 741.688" stroke="black" stroke-width="6.07941" stroke-linejoin="round"></path>
<path d="M157.257 724.666C130.507 713.318 108.622 704.401 100.516 676.841C102.137 688.189 101.326 692.242 104.569 693.053" stroke="black" stroke-width="6.07941" stroke-linejoin="round"></path>
<path d="M198.595 592.54C218.049 591.73 234.261 591.73 248.041 599.836L254.525 596.593L286.949 485.543C273.169 519.587 260.199 579.571 252.094 599.836" stroke="black" stroke-width="4.05294" stroke-linejoin="round"></path>
<path d="M158.871 851.118C181.568 988.107 197.779 989.729 234.256 1103.21L235.877 1114.56C235.066 1129.96 208.317 1146.98 209.938 1167.25C210.749 1197.24 263.437 1203.72 290.997 1202.91C321.799 1200.48 386.646 1188.32 385.836 1147.79C384.215 1075.65 406.1 1002.7 418.259 988.918C422.312 984.054 433.66 988.918 462.842 984.054C483.106 980.001 519.583 968.653 539.037 956.494C515.53 972.706 470.137 985.676 440.956 988.107C449.062 1013.24 457.168 1042.42 457.168 1073.22C457.168 1107.26 451.493 1127.53 461.221 1142.12C470.948 1156.71 487.159 1159.95 517.962 1166.44C539.848 1170.49 576.324 1175.35 599.02 1171.3C619.285 1167.25 640.36 1170.49 651.709 1155.9C659.815 1146.17 651.709 1121.85 624.959 1109.7L594.968 1095.11L589.293 1098.35C588.483 1091.05 607.937 1058.63 619.285 1020.53C631.444 977.57 641.171 936.23 645.224 892.458L665.489 850.307L624.959 924.071C636.308 911.912 649.277 884.352 652.519 871.383" stroke="black" stroke-width="6.07941" stroke-linejoin="round"></path>
<path d="M186.437 952.441C187.247 975.948 202.648 1005.94 202.648 1005.94" stroke="black" stroke-width="4.05294" stroke-linejoin="round"></path>
<path d="M264.248 1121.85C281.27 1113.75 301.535 1117.8 319.368 1125.91" stroke="black" stroke-width="4.05294" stroke-linejoin="round"></path>
<path d="M259.385 1151.85C248.847 1164 243.173 1184.27 251.279 1197.24" stroke="black" stroke-width="4.05294" stroke-linejoin="round"></path>
<path d="M311.273 1159.14C303.978 1172.11 303.168 1190.75 307.221 1197.24" stroke="black" stroke-width="4.05294" stroke-linejoin="round"></path>
<path d="M580.379 1130.77C595.78 1138.07 604.697 1151.04 603.075 1170.49" stroke="black" stroke-width="4.05294" stroke-linejoin="round"></path>
<path d="M621.713 1123.48C633.061 1129.96 646.031 1151.85 637.925 1163.19" stroke="black" stroke-width="4.05294" stroke-linejoin="round"></path>
<path d="M212.367 354.227C231.011 369.628 262.624 424.748 270.73 443.391C254.518 418.263 232.632 380.976 212.367 357.469V354.227Z" fill="black"></path>
<path d="M814.644 564.169C806.538 608.752 815.454 656.576 842.204 676.031L847.067 677.652L882.733 657.387C888.407 653.334 888.407 653.334 887.597 648.471" stroke="black" stroke-width="6.07941" stroke-linejoin="round"></path>
<path d="M884.348 644.417L920.824 629.016C945.952 619.289 975.944 599.835 1000.26 568.222" stroke="black" stroke-width="6.07941" stroke-linejoin="round"></path>
<path d="M749.795 568.222C757.901 572.275 774.923 562.548 786.271 563.359" stroke="black" stroke-width="4.05294" stroke-linejoin="round"></path>
<path d="M438.523 854.36L494.454 875.435C502.56 876.246 503.37 880.299 531.741 851.928L543.089 838.959V827.61" stroke="black" stroke-width="6.07941" stroke-linejoin="round"></path>
<path d="M482.299 49.4456C506.616 43.7715 548.767 40.5292 578.759 47.8245" stroke="black" stroke-width="6.07941" stroke-linecap="round" stroke-linejoin="round"></path>
<path d="M551.201 287.759C552.012 283.706 556.875 279.653 563.36 279.653L556.875 283.706" stroke="black" stroke-width="4.05294" stroke-linejoin="round"></path>
<path d="M556.867 283.706C568.215 307.213 591.722 315.319 613.608 312.887C624.957 312.077 629.82 307.213 633.062 295.865" stroke="black" stroke-width="4.05294" stroke-linejoin="round"></path>
<path d="M641.172 208.321C644.415 220.48 669.543 242.365 670.354 254.524C662.248 248.04 607.128 234.26 600.643 251.282C599.832 264.251 629.824 283.706 633.067 295.864C643.604 291.811 676.838 270.736 670.354 252.093" fill="black"></path>
<path d="M551.204 176.709C559.309 177.519 559.309 197.784 548.772 198.595C540.666 198.595 543.098 177.519 551.204 176.709Z" fill="black"></path>
<path d="M643.606 186.435C637.121 193.731 637.932 208.321 644.417 207.511C651.712 207.511 653.333 183.193 643.606 186.435Z" fill="black"></path>
<path d="M688.195 255.335C693.059 271.547 685.763 297.486 678.468 312.887C677.658 319.372 688.195 297.486 690.627 289.38C692.248 276.411 693.059 263.441 688.195 255.335Z" stroke="black" stroke-width="4.05294" stroke-linejoin="round"></path>
<path d="M730.34 517.966C712.507 522.019 693.053 526.882 693.053 534.988C693.053 558.495 821.936 566.601 963.789 566.601C1010.8 566.601 1130.77 558.495 1130.77 535.799C1130.77 523.64 1091.86 517.966 1069.17 513.913" stroke="black" stroke-width="6.07941" stroke-linecap="round" stroke-linejoin="round"></path>
<path d="M858.416 677.652C868.143 684.136 879.491 681.704 887.597 657.387" stroke="black" stroke-width="6.07941" stroke-linejoin="round"></path>
<path d="M718.984 538.231C730.333 526.072 787.074 519.587 830.846 518.777" stroke="black" stroke-width="2.43176" stroke-linejoin="round"></path>
<path d="M827.608 566.601C822.745 603.888 842.199 643.607 871.38 648.471C879.486 649.281 884.349 649.281 887.592 643.607" stroke="black" stroke-width="4.05294" stroke-linejoin="round"></path>
<path d="M846.256 603.888C870.574 586.866 880.301 584.434 916.777 584.434C937.042 584.434 964.602 580.381 972.708 571.465" stroke="black" stroke-width="4.05294" stroke-linejoin="round"></path>
<path d="M993.779 508.239L1033.5 509.86" stroke="black" stroke-width="3.24235" stroke-linejoin="round"></path>
<path d="M859.225 526.072C862.467 535.799 871.383 539.041 903.807 539.852C924.072 539.852 953.253 538.231 957.306 530.125L960.548 523.64" stroke="black" stroke-width="4.05294" stroke-linejoin="round"></path>
<path d="M795.186 457.983C802.481 494.459 834.094 527.693 905.426 531.746C963.788 532.557 1008.37 514.724 1022.15 457.172" stroke="black" stroke-width="4.05294" stroke-linejoin="round"></path>
<path d="M794.377 454.74C809.778 469.33 864.898 473.383 916.776 474.194C951.631 475.005 1000.27 473.383 1024.58 458.793" stroke="black" stroke-width="4.05294" stroke-linejoin="round"></path>
<path d="M795.187 453.93C789.513 446.634 773.301 457.172 774.922 445.824C777.354 437.718 787.081 438.528 791.944 434.475C778.975 425.559 791.134 417.453 807.345 418.264C815.451 416.643 798.429 409.347 811.398 402.052C824.368 397.999 826.8 408.537 830.042 413.4C838.148 419.074 838.148 410.968 843.011 410.158C851.928 396.378 864.087 397.188 866.518 410.158L871.382 413.4L878.677 416.643C872.193 396.378 867.329 393.946 880.298 393.946C886.783 393.946 876.245 385.84 880.298 380.166C886.783 369.628 907.048 376.924 911.101 389.893C915.154 392.325 924.881 385.03 923.26 393.946L919.207 402.052L920.828 406.105L924.881 410.158L932.987 397.999C937.04 393.946 947.577 408.537 945.145 384.219C945.956 376.113 956.494 368.007 953.251 380.977C945.145 397.188 953.251 406.105 961.357 397.999C969.463 389.083 977.569 381.787 988.107 386.651C993.781 393.135 981.622 401.241 992.97 402.052C997.023 406.105 986.485 410.968 985.675 417.453C992.97 410.968 997.834 413.4 1001.89 421.506C1009.99 410.158 1018.1 402.052 1024.58 417.453C1045.66 416.643 1036.74 425.559 1027.01 429.612C1025.39 434.475 1042.42 434.475 1041.61 441.771C1036.74 450.687 1026.2 446.634 1024.58 457.172" stroke="black" stroke-width="4.05294" stroke-linejoin="round"></path>
<path d="M681.701 436.907V508.239C685.754 492.027 684.133 462.035 684.133 436.907H681.701Z" stroke="black" stroke-width="1.62118" stroke-linejoin="round"></path>
<path d="M928.123 522.019C961.357 515.534 975.948 513.913 1004.32 479.057" stroke="black" stroke-width="3.24235" stroke-linejoin="round"></path>
<path d="M851.117 506.617C870.571 515.534 891.647 523.64 900.563 518.776C904.616 515.534 911.101 515.534 915.964 513.913C924.881 510.67 932.987 502.564 936.229 507.428" stroke="black" stroke-width="4.05294" stroke-linejoin="round"></path>
<path d="M819.5 473.384C819.5 481.49 834.091 498.512 850.302 503.375" stroke="black" stroke-width="4.05294" stroke-linejoin="round"></path>
<path d="M830.854 481.49C838.959 486.353 843.823 494.459 851.929 501.754" stroke="black" stroke-width="3.24235" stroke-linejoin="round"></path>
<path d="M830.047 481.489C843.016 470.141 846.259 487.163 851.122 487.163C859.228 485.542 870.576 481.489 871.387 490.406C858.417 503.375 875.44 499.322 886.788 509.86C900.568 511.481 888.409 487.163 911.106 495.269C924.075 499.322 924.886 485.542 932.992 485.542H944.34" stroke="black" stroke-width="3.24235" stroke-linejoin="round"></path>
<path d="M935.422 507.428L948.391 487.163" stroke="black" stroke-width="3.24235" stroke-linejoin="round"></path>
<path d="M952.437 487.163C937.036 515.534 968.649 497.701 985.671 483.11" stroke="black" stroke-width="3.24235" stroke-linejoin="round"></path>
<path d="M1022.16 523.64C997.841 530.125 947.584 547.958 943.531 551.2C937.047 560.117 956.501 558.495 964.607 555.253C976.765 550.389 1009.19 530.125 1025.4 530.935C1038.37 534.178 1052.96 531.746 1065.93 517.966C1074.85 493.648 1046.48 493.648 1026.21 513.913L1022.16 519.587" stroke="black" stroke-width="3.24235" stroke-linejoin="round"></path>
<path d="M1062.68 510.671L1058.62 522.829C1078.08 522.829 1107.26 530.125 1108.07 535.799C1105.64 531.746 1077.27 526.072 1061.87 522.829" stroke="black" stroke-width="1.62118" stroke-linejoin="round"></path>
<path d="M1026.21 514.724L985.678 513.913L980.004 517.966H1024.59L1026.21 514.724Z" stroke="black" stroke-width="1.62118" stroke-linejoin="round"></path>
<path d="M1025.39 523.64C1038.36 530.125 1059.44 515.534 1058.63 510.671" stroke="black" stroke-width="2.43176" stroke-linejoin="round"></path>
<path d="M791.938 445.823C799.233 445.823 811.392 450.687 811.392 453.119C809.77 436.907 830.035 433.664 838.952 441.77C839.762 449.066 855.163 457.982 864.08 457.982C855.974 466.899 847.058 465.277 838.952 454.74C834.088 454.74 811.392 466.899 815.445 449.066" stroke="black" stroke-width="4.05294" stroke-linejoin="round"></path>
<path d="M870.572 457.982C883.541 449.066 888.405 466.899 895.7 470.952C904.617 475.005 907.859 470.141 911.912 469.33C907.048 466.088 907.048 445.013 887.594 445.823C899.753 442.581 907.859 432.854 887.594 421.506C882.731 421.506 872.193 414.21 864.087 414.21C854.36 416.642 842.201 427.18 838.959 436.907" stroke="black" stroke-width="4.05294" stroke-linejoin="round"></path>
<path d="M911.097 462.036C895.696 441.771 908.665 437.718 919.203 433.665C912.718 424.749 919.203 408.537 928.93 417.453" stroke="black" stroke-width="4.05294" stroke-linejoin="round"></path>
<path d="M928.131 429.612C924.078 412.59 945.153 410.158 951.638 409.347C955.691 393.135 964.607 406.105 965.418 406.105C973.524 404.484 976.766 386.651 985.682 389.893" stroke="black" stroke-width="4.05294" stroke-linejoin="round"></path>
<path d="M928.936 427.18C956.496 417.453 945.148 436.907 951.633 449.066C951.633 470.952 924.073 485.542 907.861 462.035C903.808 453.119 903.808 433.665 920.02 434.475" stroke="black" stroke-width="4.05294" stroke-linejoin="round"></path>
<path d="M937.035 425.559C951.626 422.316 952.436 432.854 970.269 418.263H975.943" stroke="black" stroke-width="2.43176" stroke-linejoin="round"></path>
<path d="M937.035 417.453L945.141 409.347L957.3 414.211H965.406" stroke="black" stroke-width="4.05294" stroke-linejoin="round"></path>
<path d="M937.035 470.142C951.626 470.142 963.785 454.74 968.648 457.172C976.754 457.172 976.754 466.089 985.67 462.036C992.155 457.172 1001.07 465.278 1005.12 462.846" stroke="black" stroke-width="4.05294" stroke-linejoin="round"></path>
<path d="M984.865 457.982L992.161 449.066L1022.15 427.18" stroke="black" stroke-width="4.05294" stroke-linejoin="round"></path>
<path d="M984.059 454.74L1009.19 424.749" stroke="black" stroke-width="4.05294" stroke-linejoin="round"></path>
<path d="M956.496 457.172L964.602 445.013L976.761 406.105" stroke="black" stroke-width="1.62118" stroke-linejoin="round"></path>
<path d="M973.512 429.612C973.512 451.498 994.587 433.665 996.208 432.854" stroke="black" stroke-width="2.43176" stroke-linejoin="round"></path>
<path d="M851.11 432.854C847.058 442.581 867.322 446.634 872.186 449.066" stroke="black" stroke-width="1.62118" stroke-linejoin="round"></path>
<path d="M867.33 449.876H875.436L883.542 442.581" stroke="black" stroke-width="1.62118" stroke-linejoin="round"></path>
<path d="M863.275 418.263L871.381 449.066" stroke="black" stroke-width="1.62118" stroke-linejoin="round"></path>
<path d="M876.244 442.581L883.539 428.801" stroke="black" stroke-width="1.62118" stroke-linejoin="round"></path>
<path d="M819.501 438.528L799.236 428.801" stroke="black" stroke-width="1.62118" stroke-linejoin="round"></path>
<path d="M834.098 436.907L817.887 425.559" stroke="black" stroke-width="1.62118" stroke-linejoin="round"></path>
<path d="M887.594 406.105C898.942 417.453 904.616 421.506 904.616 432.854L911.101 418.264L904.616 396.378L907.858 402.052L911.101 412.59L907.858 418.264L911.101 424.748L911.911 414.211L908.669 409.347L911.101 404.484" stroke="black" stroke-width="2.43176" stroke-linejoin="round"></path>
<path d="M862.469 457.172C867.332 453.93 876.249 451.498 884.355 453.93" stroke="black" stroke-width="4.05294" stroke-linejoin="round"></path>
<path d="M864.084 466.898C872.19 462.035 873 453.929 883.538 457.171C888.402 457.982 899.75 466.898 903.803 457.982" stroke="black" stroke-width="2.43176" stroke-linejoin="round"></path>
<path d="M916.771 432.854C924.067 432.854 927.309 434.475 928.93 437.717C924.877 440.96 920.014 440.96 920.014 445.013C924.877 440.96 935.415 437.717 940.279 445.013C941.089 440.96 937.036 436.907 932.983 436.907V432.854L937.036 427.18C940.279 426.369 956.49 426.369 947.574 432.854" stroke="black" stroke-width="3.24235" stroke-linejoin="round"></path>
</svg>