<svg width="1216" height="1216" viewBox="0 0 1216 1216" fill="none" xmlns="http://www.w3.org/2000/svg">
<path d="M270.741 278.842C269.119 245.608 273.172 185.625 288.574 137.8C291.005 129.694 293.437 123.209 299.922 122.399" stroke="black" stroke-width="6.07941" stroke-miterlimit="10"></path>
<path d="M303.964 26.7498C290.995 27.5603 273.162 40.5298 268.298 59.1733C264.245 84.3015 279.646 110.24 303.964 120.778" stroke="black" stroke-width="6.07941" stroke-miterlimit="10"></path>
<path d="M268.301 55.9306C273.164 42.9611 287.755 17.8329 317.747 24.3176C331.527 24.3176 346.928 35.6658 355.844 51.8776C372.056 53.4988 393.942 46.2035 413.396 42.1505C427.987 38.9082 451.494 35.6658 479.864 35.6658C495.266 35.6658 509.046 40.5294 514.72 42.9611C522.826 48.6353 533.363 51.8776 539.037 55.9306C560.923 72.9529 576.324 102.134 582.809 135.368" stroke="black" stroke-width="6.07941" stroke-miterlimit="10"></path>
<path d="M509.057 35.6663C512.299 17.0227 537.427 6.48508 547.154 12.1592C572.283 21.0757 587.684 61.6051 565.798 83.491C579.578 77.0063 582.82 64.0368 577.146 48.6357" stroke="black" stroke-width="6.07941" stroke-miterlimit="10"></path>
<path d="M316.133 68.0896C322.618 73.7637 325.86 79.4378 325.86 79.4378L315.322 80.2484L325.049 92.4072L325.86 87.5437L333.155 88.3543C336.398 81.059 322.618 68.9002 316.133 68.0896Z" fill="black"></path>
<path d="M316.126 25.1282C306.398 24.3176 288.565 22.6965 268.301 55.9306" stroke="black" stroke-width="6.07941" stroke-miterlimit="10"></path>
<path d="M276.407 226.154C274.785 230.207 268.301 243.177 268.301 246.419L270.733 247.23L276.407 226.154Z" fill="black"></path>
<path d="M509.046 31.613C502.561 36.4766 493.644 31.613 474.19 31.613C453.926 32.4236 449.873 33.2342 437.714 34.0448C413.396 35.666 385.026 48.6354 360.708 48.6354C355.034 48.6354 355.844 38.9083 344.496 30.8024C337.201 24.3177 327.474 19.4542 304.777 23.5072" stroke="black" stroke-width="6.07941" stroke-miterlimit="10"></path>
<path d="M509.057 32.4236C520.405 45.393 534.185 47.0142 542.291 53.4989C556.071 64.8471 572.283 85.9224 578.767 104.566" stroke="black" stroke-width="6.07941" stroke-miterlimit="10"></path>
<path d="M551.206 133.748C546.342 132.937 543.1 155.633 552.016 154.823C562.554 154.012 555.259 134.558 551.206 133.748Z" fill="black"></path>
<path d="M460.42 145.095C454.746 145.095 452.314 162.928 460.42 163.739C466.094 163.739 468.526 145.906 460.42 145.095Z" fill="black"></path>
<path d="M544.718 155.633C559.308 162.928 576.33 181.571 590.11 189.677C595.785 193.73 595.785 205.889 588.489 215.616C582.005 222.911 571.467 234.26 567.414 241.555C564.172 230.207 550.392 226.964 544.718 222.911C536.612 218.858 530.938 209.942 530.127 206.7C538.233 189.677 578.762 189.677 590.11 190.488" fill="black"></path>
<path d="M544.718 155.633C559.308 162.928 576.33 181.571 590.11 189.677C595.785 193.73 595.785 205.889 588.489 215.616C582.005 222.911 571.467 234.26 567.414 241.555C564.172 230.207 550.392 226.964 544.718 222.911C536.612 218.858 530.938 209.942 530.127 206.7C538.233 189.677 578.762 189.677 590.11 190.488" stroke="black" stroke-width="6.07941" stroke-miterlimit="10"></path>
<path d="M567.419 239.934C564.177 261.009 559.313 261.009 550.397 264.251C539.048 269.115 523.647 268.304 509.057 265.873C517.973 271.547 539.859 272.357 552.018 266.683C565.798 263.441 560.934 256.146 584.441 264.251" stroke="black" stroke-width="6.07941" stroke-miterlimit="10"></path>
<path d="M575.518 123.209C583.624 163.738 616.858 191.298 620.911 217.237C601.457 184.814 623.343 217.237 616.858 246.418C611.995 270.736 582.814 308.834 575.518 320.182L522.83 372.87L576.329 319.371C595.783 344.5 598.215 345.31 603.889 349.363C616.858 359.901 638.744 368.007 644.418 377.734C653.335 393.945 669.547 447.444 712.508 493.648C724.667 500.943 745.742 500.943 748.984 498.511" stroke="black" stroke-width="6.07941" stroke-miterlimit="10"></path>
<path d="M271.547 278.843C344.5 320.993 372.06 331.531 441.77 356.659C466.088 365.575 497.701 376.924 509.049 382.598" stroke="black" stroke-width="6.07941" stroke-miterlimit="10"></path>
<path d="M268.308 278.843C261.013 278.843 255.339 303.971 247.233 311.266C233.453 325.046 210.756 349.364 184.818 363.144C160.5 376.924 89.9788 562.548 84.3047 624.153C85.1153 646.85 87.547 659.819 88.3576 658.198L89.9788 650.092C104.569 708.454 106.191 682.515 106.191 684.947C119.971 712.507 129.698 720.613 163.742 732.772C173.469 736.825 243.991 752.226 299.111 757.9C319.375 757.9 314.512 755.468 312.891 753.037" stroke="black" stroke-width="6.07941" stroke-miterlimit="10"></path>
<path d="M268.301 280.463C307.209 333.152 364.761 376.113 420.691 475.005C441.767 515.534 474.19 588.487 478.243 640.365" stroke="black" stroke-width="6.07941" stroke-miterlimit="10"></path>
<path d="M328.289 347.743C373.682 385.84 402.053 397.189 453.12 422.317" stroke="black" stroke-width="6.07941" stroke-miterlimit="10"></path>
<path d="M380.17 419.885L559.31 631.449" stroke="black" stroke-width="6.07941" stroke-miterlimit="10"></path>
<path d="M308.028 458.793L359.906 518.776C379.36 541.473 415.026 583.623 428.806 600.646C400.435 557.685 338.831 485.542 309.65 460.414L344.505 431.233C344.505 428.801 296.68 412.589 291.006 409.347C283.711 405.294 260.204 342.068 250.477 308.834" stroke="black" stroke-width="6.07941" stroke-miterlimit="10"></path>
<path d="M206.701 599.025C226.155 603.078 290.192 612.805 320.184 616.858L327.479 620.911C312.888 625.774 287.76 703.591 311.267 754.658" stroke="black" stroke-width="6.07941" stroke-miterlimit="10"></path>
<path d="M325.043 624.153C329.096 624.153 341.255 620.91 341.255 631.448C333.149 633.069 320.179 710.075 337.202 740.877" stroke="black" stroke-width="6.07941" stroke-miterlimit="10"></path>
<path d="M312.883 749.794L337.2 747.362C343.685 747.362 345.306 737.635 344.496 734.393C344.496 732.772 377.73 734.393 402.048 737.635C442.577 740.878 461.22 729.53 468.516 714.128C478.243 697.106 484.728 673.599 477.432 671.978" stroke="black" stroke-width="6.07941" stroke-miterlimit="10"></path>
<path d="M337.201 633.069C353.413 623.342 388.268 599.025 412.586 600.646C423.124 601.456 433.661 611.184 436.904 619.289" stroke="black" stroke-width="6.07941" stroke-miterlimit="10"></path>
<path d="M415.016 620.911C436.902 620.911 457.166 617.669 466.083 628.206C470.946 633.07 473.378 647.66 473.378 649.282" stroke="black" stroke-width="6.07941" stroke-miterlimit="10"></path>
<path d="M450.686 655.766C457.981 655.766 470.95 648.47 473.382 645.228C482.299 661.44 477.435 676.841 460.413 689" stroke="black" stroke-width="6.07941" stroke-miterlimit="10"></path>
<path d="M512.286 381.787C505.801 384.219 504.18 388.272 504.18 397.999C505.801 413.4 509.043 420.695 517.149 419.885C531.74 418.264 531.74 400.431 530.929 389.893C527.687 380.977 520.391 379.355 512.286 381.787Z" stroke="black" stroke-width="6.07941" stroke-miterlimit="10"></path>
<path d="M504.184 388.272C496.079 388.272 457.981 369.629 449.875 372.06C441.769 376.924 457.981 450.687 465.276 453.119C473.382 454.74 504.184 420.696 509.048 420.696" stroke="black" stroke-width="6.07941" stroke-miterlimit="10"></path>
<path d="M526.881 381.787C535.798 377.734 558.494 356.659 564.168 358.28C571.463 359.902 572.274 423.127 569.032 431.233C560.115 436.907 534.176 417.453 523.639 415.022" stroke="black" stroke-width="6.07941" stroke-miterlimit="10"></path>
<path d="M530.127 395.567C538.233 393.946 547.149 393.135 550.392 397.999" stroke="black" stroke-width="6.07941" stroke-miterlimit="10"></path>
<path d="M498.511 403.673C487.163 401.241 474.193 408.537 474.193 408.537L503.375 406.915" stroke="black" stroke-width="6.07941" stroke-miterlimit="10"></path>
<path d="M513.918 419.885C523.645 453.119 550.394 547.958 559.311 631.449" stroke="black" stroke-width="6.07941" stroke-miterlimit="10"></path>
<path d="M577.139 372.871C604.699 455.551 620.1 554.443 633.88 684.137C641.986 753.037 660.629 774.923 692.242 847.876C695.485 851.928 708.454 815.452 709.265 801.672C711.696 778.976 703.591 770.059 692.242 676.031C680.083 587.677 649.281 437.718 646.849 436.907C649.281 497.701 650.092 593.351 638.743 644.418C645.228 600.646 645.228 486.353 638.743 450.687C637.122 436.907 615.236 425.559 614.426 417.453C614.426 413.4 627.395 400.431 627.395 393.946C627.395 389.893 579.571 323.425 575.518 319.372" stroke="black" stroke-width="6.07941" stroke-miterlimit="10"></path>
<path d="M559.3 631.448C555.248 649.281 564.164 685.758 564.164 744.931C564.164 797.619 560.922 809.778 565.785 821.937C577.133 830.853 599.83 858.413 606.315 859.224C611.178 859.224 645.223 822.747 660.624 810.588" stroke="black" stroke-width="6.07941" stroke-miterlimit="10"></path>
<path d="M572.276 380.166L575.518 385.84C599.025 432.854 599.836 523.64 559.307 633.07" stroke="black" stroke-width="2.02647" stroke-miterlimit="10"></path>
<path d="M165.364 732.772C157.258 770.059 123.213 835.717 116.729 925.692C116.729 944.335 126.456 923.26 136.993 911.101C160.5 878.678 209.946 819.505 256.15 819.505C288.573 815.452 353.42 866.519 423.131 886.784C450.691 892.458 441.774 890.837 442.585 890.837C446.638 890.837 446.638 888.405 454.744 858.413C473.387 795.187 483.114 714.128 478.251 652.524" stroke="black" stroke-width="6.07941" stroke-miterlimit="10"></path>
<path d="M195.344 844.633C192.912 866.518 215.609 945.146 209.124 968.653C187.238 1001.89 154.004 988.107 142.656 1016.48C133.739 1041.61 150.762 1163.19 201.829 1170.49C209.935 1170.49 205.882 1168.06 209.934 1170.49C220.472 1176.16 243.169 1174.54 251.275 1166.44C262.623 1163.19 266.676 1146.98 265.865 1126.72L260.191 1095.1C270.729 1095.1 295.046 1093.48 316.932 1085.38L312.879 1090.24C325.849 1089.43 350.166 1074.84 352.598 1065.92C333.144 1081.32 314.5 1089.43 316.122 1082.95C295.857 1089.43 250.464 1095.1 239.116 1087C256.138 1095.1 260.191 1091.05 261.002 1102.4C265.865 1134.01 265.865 1155.09 247.222 1162.38C250.464 1159.95 248.032 1142.93 246.411 1138.88C248.032 1154.28 246.411 1167.25 231.82 1168.87C223.715 1171.3 209.124 1170.49 209.124 1168.06" stroke="black" stroke-width="6.07941" stroke-miterlimit="10"></path>
<path d="M197.777 886.784L196.156 911.101" stroke="black" stroke-width="6.07941" stroke-miterlimit="10"></path>
<path d="M454.736 851.928C465.274 851.928 511.478 868.14 522.015 871.382C535.795 874.625 564.166 830.853 567.408 822.747" stroke="black" stroke-width="6.07941" stroke-miterlimit="10"></path>
<path d="M658.191 835.716H684.941" stroke="black" stroke-width="6.07941" stroke-miterlimit="10"></path>
<path d="M661.434 801.672C661.434 819.505 647.654 872.193 617.662 920.828C645.222 890.837 649.275 863.277 650.086 863.277C657.381 886.784 682.509 964.6 693.047 992.16C695.479 977.57 651.707 864.087 651.707 862.466L657.381 839.77" stroke="black" stroke-width="6.07941" stroke-miterlimit="10"></path>
<path d="M434.479 1008.37C415.025 1016.48 351.799 1074.84 351.799 1077.27C363.958 1077.27 414.214 1020.53 436.911 1009.18L470.955 1004.32C511.485 1032.69 547.151 1082.95 554.446 1091.05C594.975 1147.79 604.702 1193.19 623.346 1202.91C637.126 1208.59 652.527 1206.97 665.496 1202.91C708.458 1188.32 790.327 1126.72 789.516 1087.81C789.516 1073.22 765.199 1061.06 741.692 1061.87C728.722 1062.68 698.731 1066.73 673.602 1085.38C695.488 1070.79 724.669 1062.68 742.502 1062.68C754.661 1062.68 770.873 1073.22 774.115 1085.38" stroke="black" stroke-width="6.07941" stroke-miterlimit="10"></path>
<path d="M636.312 1188.32C651.714 1158.33 736.015 1085.38 782.218 1085.38" stroke="black" stroke-width="6.07941" stroke-miterlimit="10"></path>
<path d="M713.318 1081.32C722.235 1081.32 734.394 1082.95 742.5 1095.11" stroke="black" stroke-width="6.07941" stroke-miterlimit="10"></path>
<path d="M473.387 1004.32C490.409 1001.89 534.181 990.539 556.067 969.463C519.59 988.107 484.735 1000.27 436.91 1005.13" stroke="black" stroke-width="6.07941" stroke-miterlimit="10"></path>
<path d="M681.701 975.948L703.587 1069.98L708.451 1066.73L693.86 1005.94L681.701 975.948Z" fill="black"></path>
<path d="M205.895 586.866C217.243 586.866 231.833 586.866 248.045 604.699" stroke="black" stroke-width="6.07941" stroke-miterlimit="10"></path>
<path d="M247.23 603.078L259.389 558.496C264.253 539.852 276.412 509.86 277.222 509.86C278.843 518.777 252.905 603.078 252.905 604.699L247.23 603.078Z" fill="black"></path>
<path d="M197.787 372.871C220.484 385.029 255.339 424.748 273.982 485.542C255.339 442.581 230.211 405.294 197.787 372.871Z" fill="black"></path>
<path d="M706.828 349.364C716.555 345.311 732.767 343.689 755.463 340.447" stroke="black" stroke-width="6.07941" stroke-miterlimit="10"></path>
<path d="M684.13 353.416C668.729 359.901 658.192 363.954 659.813 372.87C663.055 408.536 822.741 420.695 896.505 421.506C973.51 422.316 1127.52 406.104 1128.33 372.87C1128.33 361.522 1109.69 355.848 1091.05 350.174" stroke="black" stroke-width="6.07941" stroke-miterlimit="10"></path>
<path d="M709.266 401.241C727.909 419.885 801.673 428.801 900.564 430.422C969.464 432.854 1062.68 424.748 1087 405.294" stroke="black" stroke-width="6.07941" stroke-miterlimit="10"></path>
<path d="M799.233 466.088C792.748 462.846 783.021 469.33 778.968 475.004L747.355 499.322" stroke="black" stroke-width="6.07941" stroke-miterlimit="10"></path>
<path d="M782.216 470.952C774.92 518.777 807.344 586.866 851.116 590.919H863.274C868.138 588.487 866.517 590.919 866.517 590.919C875.433 584.434 864.085 570.654 872.191 560.117C878.676 551.2 884.35 544.716 877.054 523.64C885.16 514.724 907.857 505.807 938.659 477.437L985.673 432.854" stroke="black" stroke-width="6.07941" stroke-miterlimit="10"></path>
<path d="M823.564 430.422C807.352 445.823 797.625 466.899 802.489 501.754" stroke="black" stroke-width="6.07941" stroke-miterlimit="10"></path>
<path d="M806.535 511.481C810.588 501.754 830.853 466.899 846.254 462.846C863.276 457.172 919.207 453.93 939.472 442.581L951.63 432.854" stroke="black" stroke-width="6.07941" stroke-miterlimit="10"></path>
<path d="M785.465 469.331C785.465 473.384 785.465 515.534 810.593 550.39C826.805 570.654 839.774 586.866 842.206 586.866C847.07 586.866 876.251 557.685 877.061 554.443" stroke="black" stroke-width="6.07941" stroke-miterlimit="10"></path>
<path d="M855.979 543.905C864.084 547.147 880.296 544.715 877.054 531.746" stroke="black" stroke-width="6.07941" stroke-miterlimit="10"></path>
<path d="M706.02 497.701C718.178 503.376 734.39 503.376 745.738 501.754C741.685 506.618 726.284 522.019 714.125 526.072" stroke="black" stroke-width="6.07941" stroke-miterlimit="10"></path>
<path d="M690.615 657.387C700.342 664.682 724.66 676.841 746.546 669.546C776.538 660.629 839.763 623.342 860.028 596.593L866.513 587.677" stroke="black" stroke-width="6.07941" stroke-miterlimit="10"></path>
<path d="M714.127 363.954C701.158 368.007 685.757 381.787 765.194 393.946L792.754 397.188" stroke="black" stroke-width="2.02647" stroke-miterlimit="10"></path>
<path d="M721.424 364.765C738.446 372.871 748.984 368.007 761.953 372.871C783.029 377.734 783.029 390.704 797.619 398.809C819.505 409.347 839.77 410.158 862.466 403.673L866.519 401.241L864.087 393.135L860.034 393.946C842.201 397.188 825.179 393.135 815.452 388.272" stroke="black" stroke-width="2.83706" stroke-miterlimit="10"></path>
<path d="M665.49 336.394C658.195 336.394 657.384 342.068 665.49 346.932C682.513 355.848 728.716 364.765 738.443 368.007C770.867 369.628 799.237 385.029 838.956 385.029L866.516 384.219L871.38 376.923L854.357 372.87C846.252 372.06 823.555 373.681 804.101 368.817C783.026 361.522 757.897 355.848 757.087 335.583C754.655 316.129 777.352 312.076 790.321 307.213C814.639 295.054 847.062 304.781 887.592 299.107C907.046 295.865 944.333 283.706 975.946 300.728C996.21 312.887 993.779 312.887 992.968 323.425L988.915 349.363C984.862 359.901 967.84 361.522 961.355 361.522C936.227 365.575 927.31 360.712 896.508 368.007C863.274 372.87 851.926 373.681 823.555 353.416" stroke="black" stroke-width="6.07941" stroke-miterlimit="10"></path>
<path d="M758.709 333.152C761.141 349.364 799.238 351.795 817.882 353.417C862.464 355.848 877.055 340.447 915.153 336.394C938.66 333.152 972.704 342.068 990.537 323.425" stroke="black" stroke-width="2.83706" stroke-miterlimit="10"></path>
<path d="M770.061 319.372C757.092 324.235 776.546 315.319 806.538 307.213C823.56 303.16 858.415 307.213 888.407 301.539C915.156 296.675 944.338 292.622 964.602 300.728C980.003 307.213 988.92 312.887 990.541 315.319" stroke="black" stroke-width="2.83706" stroke-miterlimit="10"></path>
<path d="M770.874 319.372C763.579 323.425 763.579 333.152 777.359 337.205" stroke="black" stroke-width="2.83706" stroke-miterlimit="10"></path>
<path d="M770.867 343.69L773.299 368.007" stroke="black" stroke-width="2.83706" stroke-miterlimit="10"></path>
<path d="M793.568 351.796L802.485 376.113" stroke="black" stroke-width="2.83706" stroke-miterlimit="10"></path>
<path d="M835.713 369.628L838.145 356.659" stroke="black" stroke-width="2.83706" stroke-miterlimit="10"></path>
<path d="M884.348 363.954L885.158 347.743" stroke="black" stroke-width="2.83706" stroke-miterlimit="10"></path>
<path d="M933.795 360.712C932.173 358.28 937.037 340.447 941.09 337.205" stroke="black" stroke-width="2.83706" stroke-miterlimit="10"></path>
<path d="M956.494 355.848L958.115 336.394" stroke="black" stroke-width="2.83706" stroke-miterlimit="10"></path>
<path d="M969.461 352.606L972.703 332.341" stroke="black" stroke-width="2.83706" stroke-miterlimit="10"></path>
<path d="M774.918 319.371C789.509 312.887 817.879 304.781 843.818 307.213" stroke="black" stroke-width="2.83706" stroke-miterlimit="10"></path>
<path d="M903.807 300.729C925.693 295.865 964.601 295.865 980.002 308.834" stroke="black" stroke-width="2.83706" stroke-miterlimit="10"></path>
<path d="M785.454 316.129C761.137 323.425 766.811 336.394 783.022 339.636" stroke="black" stroke-width="2.83706" stroke-miterlimit="10"></path>
<path d="M792.751 327.477C783.024 337.205 815.447 337.204 835.712 332.341C851.924 327.477 838.954 316.129 819.5 319.372C811.394 320.182 797.614 323.425 792.751 327.477Z" stroke="black" stroke-width="2.83706" stroke-miterlimit="10"></path>
<path d="M854.354 319.372C851.922 327.477 883.535 325.046 886.778 319.372C888.399 312.076 857.596 312.076 854.354 319.372Z" stroke="black" stroke-width="2.83706" stroke-miterlimit="10"></path>
<path d="M908.673 312.887C904.62 323.424 952.445 327.477 953.256 315.319C953.256 304.781 911.105 304.781 908.673 312.887Z" stroke="black" stroke-width="2.83706" stroke-miterlimit="10"></path>
<path d="M851.119 373.681C857.604 363.954 876.247 360.712 890.838 369.628L894.891 372.06" stroke="black" stroke-width="2.83706" stroke-miterlimit="10"></path>
<path d="M807.344 397.188C823.556 405.294 862.464 402.052 868.138 400.431L866.517 405.294" stroke="black" stroke-width="2.83706" stroke-miterlimit="10"></path>
<path d="M813.834 392.325C825.182 396.378 855.985 393.946 868.143 389.893V392.325" stroke="black" stroke-width="2.83706" stroke-miterlimit="10"></path>
<path d="M809.781 396.378C823.561 402.052 858.417 401.241 864.091 398.81" stroke="black" stroke-width="2.83706" stroke-miterlimit="10"></path>
<path d="M863.277 377.734C868.141 380.976 877.057 381.787 884.353 376.924L900.564 369.628C907.049 368.007 919.208 377.734 931.367 376.113L1000.27 365.575L1018.1 363.954C1028.64 361.522 1038.36 376.924 1028.64 377.734L1012.43 380.166" stroke="black" stroke-width="2.83706" stroke-miterlimit="10"></path>
<path d="M866.522 373.681C863.28 373.681 860.038 372.87 850.311 373.681" stroke="black" stroke-width="2.83706" stroke-miterlimit="10"></path>
<path d="M876.244 365.575V372.87" stroke="black" stroke-width="2.83706" stroke-miterlimit="10"></path>
<path d="M884.356 368.007L878.682 376.113" stroke="black" stroke-width="2.83706" stroke-miterlimit="10"></path>
<path d="M867.334 368.818L858.418 372.871" stroke="black" stroke-width="2.83706" stroke-miterlimit="10"></path>
<path d="M870.573 376.924L863.277 377.734" stroke="black" stroke-width="2.83706" stroke-miterlimit="10"></path>
<path d="M870.576 385.84L886.788 376.923C892.462 372.87 900.568 369.628 908.674 369.628" stroke="black" stroke-width="2.83706" stroke-miterlimit="10"></path>
<path d="M871.383 389.893C877.057 397.188 887.595 396.377 893.269 393.946L911.102 381.787C917.586 377.734 923.26 377.734 928.935 380.976L939.472 385.029C948.389 385.029 945.146 392.324 937.04 393.946L923.26 397.998C916.776 400.43 909.48 396.377 907.049 393.135L903.806 389.893" stroke="black" stroke-width="2.83706" stroke-miterlimit="10"></path>
<path d="M891.646 380.976V389.082" stroke="black" stroke-width="2.83706" stroke-miterlimit="10"></path>
<path d="M903.807 376.924V385.029" stroke="black" stroke-width="2.83706" stroke-miterlimit="10"></path>
<path d="M916.773 380.976V385.84" stroke="black" stroke-width="2.83706" stroke-miterlimit="10"></path>
<path d="M928.123 377.734V384.219" stroke="black" stroke-width="2.83706" stroke-miterlimit="10"></path>
<path d="M872.189 389.893L894.886 392.324L1008.37 385.84C1016.47 385.84 1014.85 373.681 1008.37 373.681H993.778" stroke="black" stroke-width="2.83706" stroke-miterlimit="10"></path>
<path d="M876.244 388.272C878.676 376.924 893.267 372.06 903.804 373.681L909.478 376.113" stroke="black" stroke-width="2.83706" stroke-miterlimit="10"></path>
<path d="M904.615 393.946C907.047 384.219 920.016 384.219 927.312 385.84L937.039 389.082" stroke="black" stroke-width="2.83706" stroke-miterlimit="10"></path>
<path d="M912.721 389.893V397.188" stroke="black" stroke-width="2.83706" stroke-miterlimit="10"></path>
<path d="M924.879 389.893V397.999" stroke="black" stroke-width="2.83706" stroke-miterlimit="10"></path>
<path d="M932.984 385.84L935.416 393.946" stroke="black" stroke-width="2.83706" stroke-miterlimit="10"></path>
<path d="M976.76 380.976L977.57 393.135" stroke="black" stroke-width="2.83706" stroke-miterlimit="10"></path>
<path d="M989.725 384.219H1000.26" stroke="black" stroke-width="2.83706" stroke-miterlimit="10"></path>
<path d="M989.729 388.272L976.76 392.325" stroke="black" stroke-width="2.83706" stroke-miterlimit="10"></path>
<path d="M990.533 369.628L996.207 376.113" stroke="black" stroke-width="2.83706" stroke-miterlimit="10"></path>
<path d="M953.25 372.871L955.682 380.976" stroke="black" stroke-width="2.83706" stroke-miterlimit="10"></path>
<path d="M947.58 365.575V369.628" stroke="black" stroke-width="2.83706" stroke-miterlimit="10"></path>
<path d="M963.793 363.954V369.628" stroke="black" stroke-width="2.83706" stroke-miterlimit="10"></path>
<path d="M998.639 355.848L1001.07 365.575" stroke="black" stroke-width="2.83706" stroke-miterlimit="10"></path>
<path d="M1009.99 353.416V361.522" stroke="black" stroke-width="2.83706" stroke-miterlimit="10"></path>
<path d="M1000.27 359.901L1016.48 357.469" stroke="black" stroke-width="2.83706" stroke-miterlimit="10"></path>
<path d="M1017.29 372.871L1028.64 372.06" stroke="black" stroke-width="2.83706" stroke-miterlimit="10"></path>
<path d="M1008.38 320.182C1008.38 327.477 1014.05 357.469 1028.64 364.764C1038.37 368.817 1061.87 372.06 1070.79 359.901C1078.9 345.31 1082.14 329.098 1082.95 324.235C1090.24 316.129 1107.27 319.371 1104.02 335.583C1101.59 347.742 1082.95 353.416 1078.9 353.416" stroke="black" stroke-width="6.07941" stroke-miterlimit="10"></path>
<path d="M1009.18 319.372C1014.86 307.213 1081.32 307.213 1087 319.372C1090.24 329.099 1009.18 333.152 1009.18 319.372Z" stroke="black" stroke-width="2.83706" stroke-miterlimit="10"></path>
<path d="M1018.1 323.425C1028.63 316.94 1058.63 316.13 1074.03 323.425" stroke="black" stroke-width="2.83706" stroke-miterlimit="10"></path>
<path d="M1034.31 369.628C1040.79 373.681 1065.11 373.681 1069.16 368.007L1070.79 361.522" stroke="black" stroke-width="6.07941" stroke-miterlimit="10"></path>
<path d="M1074.03 361.522C1107.26 376.923 1070.78 393.135 979.998 401.241C939.469 405.294 872.19 406.105 860.031 401.241" stroke="black" stroke-width="2.83706" stroke-miterlimit="10"></path>
<path d="M1082.94 327.478C1095.1 323.425 1103.21 340.447 1078.89 347.742" stroke="black" stroke-width="2.83706" stroke-miterlimit="10"></path>
<path d="M989.725 337.205L1012.42 339.636" stroke="black" stroke-width="2.83706" stroke-miterlimit="10"></path>
<path d="M883.542 299.107C878.678 288.569 866.519 283.706 859.224 278.842C851.929 274.789 835.717 264.252 835.717 254.525C830.853 250.472 823.558 258.578 825.99 258.578C813.831 254.525 811.399 263.441 819.505 266.684C807.346 271.547 819.505 272.358 817.884 271.547C811.399 276.411 826.8 275.6 826.8 275.6C819.505 276.411 817.884 282.895 827.611 280.464C821.937 284.516 827.611 286.948 835.717 283.706C830.853 291.001 835.717 295.865 843.823 288.569" stroke="black" stroke-width="2.83706" stroke-miterlimit="10"></path>
<path d="M835.719 288.569C843.825 283.706 852.741 283.706 852.741 283.706C838.151 286.948 835.719 283.706 830.045 295.054C831.666 295.054 838.151 292.622 835.719 292.622C834.098 299.107 843.825 292.622 843.825 292.622C843.825 296.675 851.12 295.865 851.931 291.001L854.363 292.622C851.931 292.622 847.067 295.054 850.31 295.054C851.931 296.675 855.984 288.569 860.037 288.569C864.09 288.569 846.257 283.706 868.143 284.517L879.491 292.622L883.544 296.675" stroke="black" stroke-width="2.83706" stroke-miterlimit="10"></path>
<path d="M843.013 251.282C838.149 254.525 838.149 259.388 839.77 263.441C838.96 256.146 843.823 250.472 846.255 251.282C847.876 254.525 851.119 264.252 847.876 263.441C850.308 254.525 847.876 256.146 846.255 248.04C851.929 250.472 851.929 266.683 851.929 266.683C854.361 260.199 855.982 252.093 860.035 254.525C862.467 258.578 859.225 266.683 858.414 268.305C860.035 263.441 864.088 252.093 863.277 255.335C860.035 256.146 864.088 254.525 864.088 258.578C867.33 254.525 864.088 262.631 863.277 266.683C867.33 264.252 867.33 260.199 863.277 270.736C862.467 272.358 858.414 276.41 863.277 276.41C860.035 278.842 871.383 280.463 871.383 280.463C868.141 276.41 867.33 274.789 874.626 271.547C874.626 268.305 872.194 268.305 871.383 266.683C872.194 263.441 878.679 264.252 874.626 259.388L879.489 266.683C880.3 266.683 876.247 270.736 879.489 270.736" stroke="black" stroke-width="2.83706" stroke-miterlimit="10"></path>
<path d="M884.356 296.675C884.356 283.706 879.493 280.463 870.576 276.41C876.25 274.789 874.629 275.6 874.629 271.547C874.629 268.304 879.493 271.547 876.25 262.63C879.493 262.63 882.735 266.683 883.546 266.683C879.493 260.199 879.493 255.335 883.546 255.335C884.356 255.335 888.409 266.683 884.356 252.093C886.788 248.04 888.409 251.282 892.462 254.524C892.462 250.472 898.947 243.176 900.568 246.419V254.524C904.621 252.093 911.106 262.63 903.81 263.441C911.106 259.388 911.106 268.304 903 271.547C920.833 270.736 911.106 280.463 903.81 278.842C912.727 278.842 915.159 284.516 900.568 284.516C911.106 287.759 903 291.001 900.568 287.759C896.515 280.463 888.409 295.054 888.409 299.107" stroke="black" stroke-width="2.83706" stroke-miterlimit="10"></path>
<path d="M895.698 250.472L894.887 264.252L890.834 283.706L888.402 296.675" stroke="black" stroke-width="2.02647" stroke-miterlimit="10"></path>
<path d="M880.297 263.441C884.35 268.305 887.592 274.789 890.835 275.6" stroke="black" stroke-width="2.02647" stroke-miterlimit="10"></path>
<path d="M900.563 259.388C895.699 263.441 892.457 278.842 891.646 283.706" stroke="black" stroke-width="2.02647" stroke-miterlimit="10"></path>
<path d="M904.614 270.737L896.508 275.6" stroke="black" stroke-width="2.02647" stroke-miterlimit="10"></path>
<path d="M733.584 355.848L754.659 351.796" stroke="black" stroke-width="2.83706" stroke-miterlimit="10"></path>
</svg>