<svg width="800" height="1500" viewBox="180 700 800 1500" fill="none" xmlns="http://www.w3.org/2000/svg">
<path d="M381.223 758H296.764C289.399 758 283.429 763.971 283.429 771.337V900.263C283.429 907.629 289.399 913.6 296.764 913.6H381.223C388.588 913.6 394.559 907.629 394.559 900.263V771.337C394.559 763.971 388.588 758 381.223 758Z" stroke="#C1A36E" stroke-width="8"/>
<path d="M559.031 758H474.572C467.207 758 461.236 763.971 461.236 771.337V900.263C461.236 907.629 467.207 913.6 474.572 913.6H559.031C566.396 913.6 572.366 907.629 572.366 900.263V771.337C572.366 763.971 566.396 758 559.031 758Z" stroke="#C1A36E" stroke-width="8"/>
<path d="M714.613 758H630.154C622.789 758 616.818 763.971 616.818 771.337V900.263C616.818 907.629 622.789 913.6 630.154 913.6H714.613C721.978 913.6 727.948 907.629 727.948 900.263V771.337C727.948 763.971 721.978 758 714.613 758Z" stroke="#C1A36E" stroke-width="8"/>
<path d="M892.42 758H807.962C800.597 758 794.626 763.971 794.626 771.337V900.263C794.626 907.629 800.597 913.6 807.962 913.6H892.42C899.785 913.6 905.756 907.629 905.756 900.263V771.337C905.756 763.971 899.785 758 892.42 758Z" stroke="#C1A36E" stroke-width="8"/>
<path d="M381.223 980.286H296.764C289.399 980.286 283.429 986.257 283.429 993.623V1122.55C283.429 1129.92 289.399 1135.89 296.764 1135.89H381.223C388.588 1135.89 394.559 1129.92 394.559 1122.55V993.623C394.559 986.257 388.588 980.286 381.223 980.286Z" stroke="#C1A36E" stroke-width="8"/>
<path d="M559.031 980.286H474.572C467.207 980.286 461.236 986.257 461.236 993.623V1122.55C461.236 1129.92 467.207 1135.89 474.572 1135.89H559.031C566.396 1135.89 572.366 1129.92 572.366 1122.55V993.623C572.366 986.257 566.396 980.286 559.031 980.286Z" stroke="#C1A36E" stroke-width="8"/>
<path d="M714.613 980.286H630.154C622.789 980.286 616.818 986.257 616.818 993.623V1122.55C616.818 1129.92 622.789 1135.89 630.154 1135.89H714.613C721.978 1135.89 727.948 1129.92 727.948 1122.55V993.623C727.948 986.257 721.978 980.286 714.613 980.286Z" stroke="#C1A36E" stroke-width="8"/>
<path d="M892.42 980.286H807.962C800.597 980.286 794.626 986.257 794.626 993.623V1122.55C794.626 1129.92 800.597 1135.89 807.962 1135.89H892.42C899.785 1135.89 905.756 1129.92 905.756 1122.55V993.623C905.756 986.257 899.785 980.286 892.42 980.286Z" stroke="#C1A36E" stroke-width="8"/>
<path d="M381.223 1202.57H296.764C289.399 1202.57 283.429 1208.54 283.429 1215.91V1344.84C283.429 1352.2 289.399 1358.17 296.764 1358.17H381.223C388.588 1358.17 394.559 1352.2 394.559 1344.84V1215.91C394.559 1208.54 388.588 1202.57 381.223 1202.57Z" stroke="#C1A36E" stroke-width="8"/>
<path d="M559.031 1202.57H474.572C467.207 1202.57 461.236 1208.54 461.236 1215.91V1344.84C461.236 1352.2 467.207 1358.17 474.572 1358.17H559.031C566.396 1358.17 572.366 1352.2 572.366 1344.84V1215.91C572.366 1208.54 566.396 1202.57 559.031 1202.57Z" stroke="#C1A36E" stroke-width="8"/>
<path d="M714.613 1202.57H630.154C622.789 1202.57 616.818 1208.54 616.818 1215.91V1344.84C616.818 1352.2 622.789 1358.17 630.154 1358.17H714.613C721.978 1358.17 727.948 1352.2 727.948 1344.84V1215.91C727.948 1208.54 721.978 1202.57 714.613 1202.57Z" stroke="#C1A36E" stroke-width="8"/>
<path d="M892.42 1202.57H807.962C800.597 1202.57 794.626 1208.54 794.626 1215.91V1344.84C794.626 1352.2 800.597 1358.17 807.962 1358.17H892.42C899.785 1358.17 905.756 1352.2 905.756 1344.84V1215.91C905.756 1208.54 899.785 1202.57 892.42 1202.57Z" stroke="#C1A36E" stroke-width="8"/>
<path d="M381.223 1424.86H296.764C289.399 1424.86 283.429 1430.83 283.429 1438.2V1567.12C283.429 1574.49 289.399 1580.46 296.764 1580.46H381.223C388.588 1580.46 394.559 1574.49 394.559 1567.12V1438.2C394.559 1430.83 388.588 1424.86 381.223 1424.86Z" stroke="#C1A36E" stroke-width="8"/>
<path d="M559.031 1424.86H474.572C467.207 1424.86 461.236 1430.83 461.236 1438.2V1567.12C461.236 1574.49 467.207 1580.46 474.572 1580.46H559.031C566.396 1580.46 572.366 1574.49 572.366 1567.12V1438.2C572.366 1430.83 566.396 1424.86 559.031 1424.86Z" stroke="#C1A36E" stroke-width="8"/>
<path d="M714.613 1424.86H630.154C622.789 1424.86 616.818 1430.83 616.818 1438.2V1567.12C616.818 1574.49 622.789 1580.46 630.154 1580.46H714.613C721.978 1580.46 727.948 1574.49 727.948 1567.12V1438.2C727.948 1430.83 721.978 1424.86 714.613 1424.86Z" stroke="#C1A36E" stroke-width="8"/>
<path d="M892.42 1424.86H807.962C800.597 1424.86 794.626 1430.83 794.626 1438.2V1567.12C794.626 1574.49 800.597 1580.46 807.962 1580.46H892.42C899.785 1580.46 905.756 1574.49 905.756 1567.12V1438.2C905.756 1430.83 899.785 1424.86 892.42 1424.86Z" stroke="#C1A36E" stroke-width="8"/>
<path d="M839 1691.3H350C312.997 1691.3 283 1721.3 283 1758.3C283 1795.31 312.997 1825.3 350 1825.3H839C876.003 1825.3 906 1795.31 906 1758.3C906 1721.3 876.003 1691.3 839 1691.3Z" stroke="#C1A36E" stroke-opacity="0.25" stroke-width="8"/>
<path d="M290.788 1913.89H241.89C236.98 1913.89 233 1917.87 233 1922.78V1993.91C233 1998.82 236.98 2002.81 241.89 2002.81H290.788C295.698 2002.81 299.678 1998.82 299.678 1993.91V1922.78C299.678 1917.87 295.698 1913.89 290.788 1913.89Z" stroke="#C1A36E" stroke-width="8"/>
<path d="M370.802 1913.89H321.905C316.995 1913.89 313.014 1917.87 313.014 1922.78V1993.91C313.014 1998.82 316.995 2002.81 321.905 2002.81H370.802C375.712 2002.81 379.692 1998.82 379.692 1993.91V1922.78C379.692 1917.87 375.712 1913.89 370.802 1913.89Z" stroke="#C1A36E" stroke-width="8"/>
<path d="M499.712 1913.89H450.815C445.905 1913.89 441.925 1917.87 441.925 1922.78V1993.91C441.925 1998.82 445.905 2002.81 450.815 2002.81H499.712C504.622 2002.81 508.603 1998.82 508.603 1993.91V1922.78C508.603 1917.87 504.622 1913.89 499.712 1913.89Z" stroke="#C1A36E" stroke-width="8"/>
<path d="M579.725 1913.89H530.828C525.918 1913.89 521.938 1917.87 521.938 1922.78V1993.91C521.938 1998.82 525.918 2002.81 530.828 2002.81H579.725C584.635 2002.81 588.615 1998.82 588.615 1993.91V1922.78C588.615 1917.87 584.635 1913.89 579.725 1913.89Z" stroke="#C1A36E" stroke-width="8"/>
<path d="M659.739 1913.89H610.842C605.932 1913.89 601.951 1917.87 601.951 1922.78V1993.91C601.951 1998.82 605.932 2002.81 610.842 2002.81H659.739C664.649 2002.81 668.629 1998.82 668.629 1993.91V1922.78C668.629 1917.87 664.649 1913.89 659.739 1913.89Z" stroke="#C1A36E" stroke-width="8"/>
<path d="M739.752 1913.89H690.855C685.945 1913.89 681.965 1917.87 681.965 1922.78V1993.91C681.965 1998.82 685.945 2002.81 690.855 2002.81H739.752C744.662 2002.81 748.643 1998.82 748.643 1993.91V1922.78C748.643 1917.87 744.662 1913.89 739.752 1913.89Z" stroke="#C1A36E" stroke-width="8"/>
<path d="M868.664 1913.89H819.766C814.856 1913.89 810.876 1917.87 810.876 1922.78V1993.91C810.876 1998.82 814.856 2002.81 819.766 2002.81H868.664C873.574 2002.81 877.554 1998.82 877.554 1993.91V1922.78C877.554 1917.87 873.574 1913.89 868.664 1913.89Z" stroke="#C1A36E" stroke-width="8"/>
<path d="M948.676 1913.89H899.779C894.869 1913.89 890.889 1917.87 890.889 1922.78V1993.91C890.889 1998.82 894.869 2002.81 899.779 2002.81H948.676C953.586 2002.81 957.567 1998.82 957.567 1993.91V1922.78C957.567 1917.87 953.586 1913.89 948.676 1913.89Z" stroke="#C1A36E" stroke-width="8"/>
<path d="M290.788 2047.26H241.89C236.98 2047.26 233 2051.24 233 2056.15V2127.28C233 2132.2 236.98 2136.18 241.89 2136.18H290.788C295.698 2136.18 299.678 2132.2 299.678 2127.28V2056.15C299.678 2051.24 295.698 2047.26 290.788 2047.26Z" stroke="#C1A36E" stroke-width="8"/>
<path d="M370.802 2047.26H321.905C316.995 2047.26 313.014 2051.24 313.014 2056.15V2127.28C313.014 2132.2 316.995 2136.18 321.905 2136.18H370.802C375.712 2136.18 379.692 2132.2 379.692 2127.28V2056.15C379.692 2051.24 375.712 2047.26 370.802 2047.26Z" stroke="#C1A36E" stroke-width="8"/>
<path d="M499.712 2047.26H450.815C445.905 2047.26 441.925 2051.24 441.925 2056.15V2127.28C441.925 2132.2 445.905 2136.18 450.815 2136.18H499.712C504.622 2136.18 508.603 2132.2 508.603 2127.28V2056.15C508.603 2051.24 504.622 2047.26 499.712 2047.26Z" stroke="#C1A36E" stroke-width="8"/>
<path d="M579.725 2047.26H530.828C525.918 2047.26 521.938 2051.24 521.938 2056.15V2127.28C521.938 2132.2 525.918 2136.18 530.828 2136.18H579.725C584.635 2136.18 588.615 2132.2 588.615 2127.28V2056.15C588.615 2051.24 584.635 2047.26 579.725 2047.26Z" stroke="#C1A36E" stroke-width="8"/>
<path d="M659.739 2047.26H610.842C605.932 2047.26 601.951 2051.24 601.951 2056.15V2127.28C601.951 2132.2 605.932 2136.18 610.842 2136.18H659.739C664.649 2136.18 668.629 2132.2 668.629 2127.28V2056.15C668.629 2051.24 664.649 2047.26 659.739 2047.26Z" stroke="#C1A36E" stroke-width="8"/>
<path d="M739.752 2047.26H690.855C685.945 2047.26 681.965 2051.24 681.965 2056.15V2127.28C681.965 2132.2 685.945 2136.18 690.855 2136.18H739.752C744.662 2136.18 748.643 2132.2 748.643 2127.28V2056.15C748.643 2051.24 744.662 2047.26 739.752 2047.26Z" stroke="#C1A36E" stroke-width="8"/>
<path d="M868.664 2047.26H819.766C814.856 2047.26 810.876 2051.24 810.876 2056.15V2127.28C810.876 2132.2 814.856 2136.18 819.766 2136.18H868.664C873.574 2136.18 877.554 2132.2 877.554 2127.28V2056.15C877.554 2051.24 873.574 2047.26 868.664 2047.26Z" stroke="#C1A36E" stroke-width="8"/>
<path d="M948.676 2047.26H899.779C894.869 2047.26 890.889 2051.24 890.889 2056.15V2127.28C890.889 2132.2 894.869 2136.18 899.779 2136.18H948.676C953.586 2136.18 957.567 2132.2 957.567 2127.28V2056.15C957.567 2051.24 953.586 2047.26 948.676 2047.26Z" stroke="#C1A36E" stroke-width="8"/>
<path d="M158.867 2204.5C158.867 1810.99 90.0885 242.511 570.332 54.8401C581.953 50.2986 594.924 50.4401 606.498 55.1015C1102.16 254.73 1031.19 1765.03 1031.19 2204.5" stroke="#C1A36E" stroke-opacity="0.25" stroke-width="8"/>
</svg>
