<svg width="1750" height="1750" viewBox="0 0 1750 1750" fill="none" xmlns="http://www.w3.org/2000/svg">
<path d="M1454.5 773L1647.59 739C1663.47 828.973 1663.47 921.027 1647.59 1011L1454.5 977C1466.41 909.521 1466.41 840.48 1454.5 773Z" stroke="#C1A36E" stroke-width="8"/>
<path d="M1448.79 1002L1640.5 1044.43C1620.67 1133.72 1585.34 1218.86 1536.11 1296L1370.5 1190.68C1407.42 1132.83 1433.92 1068.97 1448.79 1002Z" stroke="#C1A36E" stroke-width="8"/>
<path d="M1356.92 1212L1517.5 1324.44C1465.04 1399.37 1399.87 1464.54 1324.94 1517L1212.5 1356.42C1268.7 1317.07 1317.57 1268.2 1356.92 1212Z" stroke="#C1A36E" stroke-width="8"/>
<path d="M1191.18 1371L1296.5 1536C1219.36 1585.04 1134.22 1620.24 1044.93 1640L1002.5 1449C1069.47 1434.18 1133.33 1407.79 1191.18 1371Z" stroke="#C1A36E" stroke-width="8"/>
<path d="M977.375 1454L1011.5 1647.09C921.197 1662.97 828.803 1662.97 738.5 1647.09L772.625 1454C840.353 1465.91 909.647 1465.91 977.375 1454Z" stroke="#C1A36E" stroke-width="8"/>
<path d="M747.5 1449L705.074 1640C615.78 1620.24 530.638 1585.04 453.5 1536L558.819 1371C616.673 1407.79 680.529 1434.18 747.5 1449Z" stroke="#C1A36E" stroke-width="8"/>
<path d="M537.5 1356.42L425.061 1517C350.134 1464.54 284.965 1399.37 232.5 1324.44L393.079 1212C432.427 1268.2 481.305 1317.07 537.5 1356.42Z" stroke="#C1A36E" stroke-width="8"/>
<path d="M379.5 1190.68L213.89 1296C164.66 1218.86 129.331 1133.72 109.5 1044.43L301.208 1002C316.081 1068.97 342.578 1132.83 379.5 1190.68Z" stroke="#C1A36E" stroke-width="8"/>
<path d="M295.5 977L103.356 1011C87.5478 921.027 87.5478 828.973 103.356 739L295.5 773C283.644 840.48 283.644 909.521 295.5 977Z" stroke="#C1A36E" stroke-width="8"/>
<path d="M301.208 748L109.5 705.574C129.331 616.28 164.66 531.138 213.89 454L379.5 559.319C342.578 617.173 316.081 681.029 301.208 748Z" stroke="#C1A36E" stroke-width="8"/>
<path d="M393.079 538L232.5 425.561C284.965 350.634 350.134 285.465 425.061 233L537.5 393.579C481.305 432.927 432.427 481.805 393.079 538Z" stroke="#C1A36E" stroke-width="8"/>
<path d="M558.819 379L453.5 214.003C530.638 164.956 615.78 129.758 705.074 110L747.5 300.998C680.529 315.816 616.673 342.215 558.819 379Z" stroke="#C1A36E" stroke-width="8"/>
<path d="M772.625 296L738.5 102.915C828.803 87.0285 921.197 87.0285 1011.5 102.915L977.375 296C909.647 284.085 840.353 284.085 772.625 296Z" stroke="#C1A36E" stroke-width="8"/>
<path d="M1002.5 300.998L1044.93 110C1134.22 129.758 1219.36 164.956 1296.5 214.003L1191.18 379C1133.33 342.215 1069.47 315.816 1002.5 300.998Z" stroke="#C1A36E" stroke-width="8"/>
<path d="M1212.5 393.579L1324.94 233C1399.87 285.465 1465.04 350.634 1517.5 425.561L1356.92 538C1317.57 481.805 1268.7 432.927 1212.5 393.579Z" stroke="#C1A36E" stroke-width="8"/>
<path d="M1370.5 559.319L1536.11 454C1585.34 531.138 1620.67 616.28 1640.5 705.574L1448.79 748C1433.92 681.029 1407.42 617.173 1370.5 559.319Z" stroke="#C1A36E" stroke-width="8"/>
<path d="M1258.5 793.824L1418.36 760C1434.55 835.82 1434.55 914.18 1418.36 990L1258.5 956.176C1269.93 902.657 1269.93 847.343 1258.5 793.824Z" stroke="#C1A36E" stroke-width="8"/>
<path d="M1248.06 996L1403.5 1046.58C1379.43 1120.76 1340.07 1189.04 1287.96 1247L1166.5 1137.47C1203.28 1096.56 1231.07 1048.36 1248.06 996Z" stroke="#C1A36E" stroke-width="8"/>
<path d="M1137.41 1166L1246.5 1287.46C1188.77 1339.57 1120.76 1378.93 1046.88 1403L996.5 1247.56C1048.65 1230.57 1096.66 1202.78 1137.41 1166Z" stroke="#C1A36E" stroke-width="8"/>
<path d="M956.529 1258L990.5 1417.86C914.351 1434.05 835.649 1434.05 759.5 1417.86L793.471 1258C847.223 1269.43 902.777 1269.43 956.529 1258Z" stroke="#C1A36E" stroke-width="8"/>
<path d="M753.5 1247.56L703.119 1403C629.239 1378.93 561.229 1339.57 503.5 1287.46L612.592 1166C653.342 1202.78 701.349 1230.57 753.5 1247.56Z" stroke="#C1A36E" stroke-width="8"/>
<path d="M583.5 1137.47L462.038 1247C409.929 1189.04 370.565 1120.76 346.5 1046.58L501.944 996C518.931 1048.36 546.717 1096.56 583.5 1137.47Z" stroke="#C1A36E" stroke-width="8"/>
<path d="M491.5 956.176L331.642 990C315.453 914.18 315.453 835.82 331.642 760L491.5 793.824C480.072 847.343 480.072 902.657 491.5 956.176Z" stroke="#C1A36E" stroke-width="8"/>
<path d="M501.944 754L346.5 703.418C370.565 629.242 409.929 560.96 462.038 503L583.5 612.529C546.717 653.442 518.931 701.641 501.944 754Z" stroke="#C1A36E" stroke-width="8"/>
<path d="M612.592 584L503.5 462.538C561.229 410.429 629.239 371.065 703.119 347L753.5 502.444C701.349 519.431 653.342 547.217 612.592 584Z" stroke="#C1A36E" stroke-width="8"/>
<path d="M793.471 492L759.5 332.142C835.649 315.953 914.351 315.953 990.5 332.142L956.529 492C902.777 480.572 847.223 480.572 793.471 492Z" stroke="#C1A36E" stroke-width="8"/>
<path d="M996.5 502.444L1046.88 347C1120.76 371.065 1188.77 410.429 1246.5 462.538L1137.41 584C1096.66 547.217 1048.65 519.431 996.5 502.444Z" stroke="#C1A36E" stroke-width="8"/>
<path d="M1166.5 612.529L1287.96 503C1340.07 560.96 1379.43 629.242 1403.5 703.418L1248.06 754C1231.07 701.641 1203.28 653.442 1166.5 612.529Z" stroke="#C1A36E" stroke-width="8"/>
<path d="M1005.8 712H744.2C726.14 712 711.5 726.596 711.5 744.6V1005.4C711.5 1023.4 726.14 1038 744.2 1038H1005.8C1023.86 1038 1038.5 1023.4 1038.5 1005.4V744.6C1038.5 726.596 1023.86 712 1005.8 712Z" stroke="#C1A36E" stroke-width="8"/>
<circle cx="875" cy="874.5" r="856.5" stroke="#C1A36E" stroke-opacity="0.25" stroke-width="6"/>
</svg>
