<svg width="2100" height="2100" viewBox="0 0 2100 2100" fill="none" xmlns="http://www.w3.org/2000/svg">
<path d="M140 1210.7V1871.5C140 1921.21 180.294 1961.5 230 1961.5H1890C1939.71 1961.5 1980 1921.21 1980 1871.5V1773.8C1980 1724.09 1939.71 1683.8 1890 1683.8H1468C1418.29 1683.8 1378 1643.51 1378 1593.8V737.6C1378 687.894 1337.71 647.6 1288 647.6H1190C1140.29 647.6 1100 607.306 1100 557.6V214.5C1100 164.794 1059.71 124.5 1010 124.5H230C180.294 124.5 140 164.794 140 214.5V1210.7Z" stroke="#C1A36E" stroke-opacity="0.25" stroke-width="8"/>
<path d="M385 210H210V490H385V210Z" stroke="#C1A36E" stroke-width="8"/>
<path d="M210 245H385" stroke="#C1A36E" stroke-width="8"/>
<path d="M210 280H385" stroke="#C1A36E" stroke-width="8"/>
<path d="M210 315H385" stroke="#C1A36E" stroke-width="8"/>
<path d="M210 350H385" stroke="#C1A36E" stroke-width="8"/>
<path d="M210 385H385" stroke="#C1A36E" stroke-width="8"/>
<path d="M210 420H385" stroke="#C1A36E" stroke-width="8"/>
<path d="M210 455H385" stroke="#C1A36E" stroke-width="8"/>
<path d="M210 490H385" stroke="#C1A36E" stroke-width="8"/>
<path d="M525 560H210V945H525V560Z" stroke="#C1A36E" stroke-width="8"/>
<path d="M525 980H210V1365H525V980Z" stroke="#C1A36E" stroke-width="8"/>
<path d="M525 1400.5H210V1734.5H525V1400.5Z" stroke="#C1A36E" stroke-width="8"/>
<path d="M1015 210H595V420H1015V210Z" stroke="#C1A36E" stroke-width="8"/>
<path d="M1015 448H595V658H1015V448Z" stroke="#C1A36E" stroke-width="8"/>
<path d="M1015 686H595V896H1015V686Z" stroke="#C1A36E" stroke-width="8"/>
<path d="M1015 924H595V1134H1015V924Z" stroke="#C1A36E" stroke-width="8"/>
<path d="M1015 1162H595V1372H1015V1162Z" stroke="#C1A36E" stroke-width="8"/>
<path d="M770 1402.5H595V1577.5H770V1402.5Z" stroke="#C1A36E" stroke-width="8"/>
<path d="M630 1437.5L735 1542.5" stroke="#C1A36E" stroke-width="8"/>
<path d="M735 1437.5L630 1542.5" stroke="#C1A36E" stroke-width="8"/>
<path d="M980 1402.5H805V1577.5H980V1402.5Z" stroke="#C1A36E" stroke-width="8"/>
<path d="M840 1437.5L945 1542.5" stroke="#C1A36E" stroke-width="8"/>
<path d="M945 1437.5L840 1542.5" stroke="#C1A36E" stroke-width="8"/>
<path d="M770 1612.5H595V1735H770V1612.5Z" stroke="#C1A36E" stroke-width="8"/>
<path d="M980 1612.5H805V1735H980V1612.5Z" stroke="#C1A36E" stroke-width="8"/>
<path d="M1290 1160H1080V1615H1290V1160Z" stroke="#C1A36E" stroke-width="8"/>
<path d="M1664 1160H1454V1615H1664V1160Z" stroke="#C1A36E" stroke-width="8"/>
<path d="M1911 1160H1701V1615H1911V1160Z" stroke="#C1A36E" stroke-width="8"/>
<path d="M770 1767.5H595V1890H770V1767.5Z" stroke="#C1A36E" stroke-width="8"/>
<path d="M959 1767.5H784V1890H959V1767.5Z" stroke="#C1A36E" stroke-width="8"/>
<path d="M1148 1767.5H973V1890H1148V1767.5Z" stroke="#C1A36E" stroke-width="8"/>
<path d="M1337 1767.5H1162V1890H1337V1767.5Z" stroke="#C1A36E" stroke-width="8"/>
<path d="M1526 1767.5H1351V1890H1526V1767.5Z" stroke="#C1A36E" stroke-width="8"/>
<path d="M1715 1767.5H1540V1890H1715V1767.5Z" stroke="#C1A36E" stroke-width="8"/>
<path d="M1904 1767.5H1729V1890H1904V1767.5Z" stroke="#C1A36E" stroke-width="8"/>
<path d="M560 1767.5H210V1890H560V1767.5Z" stroke="#C1A36E" stroke-width="8"/>
<path d="M1890 1767.5H1820V1890H1890V1767.5Z" stroke="#C1A36E" stroke-width="8"/>
<path d="M1820 1785H1890" stroke="#C1A36E" stroke-width="8"/>
<path d="M1820 1806H1890" stroke="#C1A36E" stroke-width="8"/>
<path d="M1820 1827H1890" stroke="#C1A36E" stroke-width="8"/>
<path d="M1820 1848H1890" stroke="#C1A36E" stroke-width="8"/>
<path d="M1820 1869H1890" stroke="#C1A36E" stroke-width="8"/>
</svg>
