<svg width="2450" height="2100" viewBox="0 0 2450 2100" fill="none" xmlns="http://www.w3.org/2000/svg">
<path d="M491 236.5C491 186.794 531.294 146.5 581 146.5H1864.2C1913.91 146.5 1954.2 186.794 1954.2 236.5V962.5C1954.2 1012.21 1994.49 1052.5 2044.2 1052.5H2230C2279.71 1052.5 2320 1092.79 2320 1142.5V1868.5C2320 1918.21 2279.71 1958.5 2230 1958.5H581C531.294 1958.5 491 1918.21 491 1868.5V236.5Z" stroke="#C1A36E" stroke-opacity="0.25" stroke-width="8"/>
<path d="M735 245H595V350H735V245Z" stroke="#C1A36E" stroke-width="8"/>
<path d="M1418 245H998V350H1418V245Z" stroke="#C1A36E" stroke-width="8"/>
<path d="M1033 434C1044.6 434 1054 424.598 1054 413C1054 401.402 1044.6 392 1033 392C1021.4 392 1012 401.402 1012 413C1012 424.598 1021.4 434 1033 434Z" stroke="#C1A36E" stroke-width="8"/>
<path d="M1103 434C1114.6 434 1124 424.598 1124 413C1124 401.402 1114.6 392 1103 392C1091.4 392 1082 401.402 1082 413C1082 424.598 1091.4 434 1103 434Z" stroke="#C1A36E" stroke-width="8"/>
<path d="M1173 434C1184.6 434 1194 424.598 1194 413C1194 401.402 1184.6 392 1173 392C1161.4 392 1152 401.402 1152 413C1152 424.598 1161.4 434 1173 434Z" stroke="#C1A36E" stroke-width="8"/>
<path d="M1243 434C1254.6 434 1264 424.598 1264 413C1264 401.402 1254.6 392 1243 392C1231.4 392 1222 401.402 1222 413C1222 424.598 1231.4 434 1243 434Z" stroke="#C1A36E" stroke-width="8"/>
<path d="M1313 434C1324.6 434 1334 424.598 1334 413C1334 401.402 1324.6 392 1313 392C1301.4 392 1292 401.402 1292 413C1292 424.598 1301.4 434 1313 434Z" stroke="#C1A36E" stroke-width="8"/>
<path d="M1383 434C1394.6 434 1404 424.598 1404 413C1404 401.402 1394.6 392 1383 392C1371.4 392 1362 401.402 1362 413C1362 424.598 1371.4 434 1383 434Z" stroke="#C1A36E" stroke-width="8"/>
<path d="M588 472.5H567C563.134 472.5 560 475.634 560 479.5V640.5C560 644.366 563.134 647.5 567 647.5H588C591.866 647.5 595 644.366 595 640.5V479.5C595 475.634 591.866 472.5 588 472.5Z" stroke="#C1A36E" stroke-width="8"/>
<path d="M798 507.5H623V612.5H798V507.5Z" stroke="#C1A36E" stroke-width="8"/>
<path d="M854 525H833C829.134 525 826 528.134 826 532V588C826 591.866 829.134 595 833 595H854C857.866 595 861 591.866 861 588V532C861 528.134 857.866 525 854 525Z" stroke="#C1A36E" stroke-width="8"/>
<path d="M588 745.5H567C563.134 745.5 560 748.634 560 752.5V913.5C560 917.366 563.134 920.5 567 920.5H588C591.866 920.5 595 917.366 595 913.5V752.5C595 748.634 591.866 745.5 588 745.5Z" stroke="#C1A36E" stroke-width="8"/>
<path d="M798 780.5H623V885.5H798V780.5Z" stroke="#C1A36E" stroke-width="8"/>
<path d="M854 798H833C829.134 798 826 801.134 826 805V861C826 864.866 829.134 868 833 868H854C857.866 868 861 864.866 861 861V805C861 801.134 857.866 798 854 798Z" stroke="#C1A36E" stroke-width="8"/>
<path d="M588 1018.5H567C563.134 1018.5 560 1021.63 560 1025.5V1186.5C560 1190.37 563.134 1193.5 567 1193.5H588C591.866 1193.5 595 1190.37 595 1186.5V1025.5C595 1021.63 591.866 1018.5 588 1018.5Z" stroke="#C1A36E" stroke-width="8"/>
<path d="M798 1053.5H623V1158.5H798V1053.5Z" stroke="#C1A36E" stroke-width="8"/>
<path d="M854 1071H833C829.134 1071 826 1074.13 826 1078V1134C826 1137.87 829.134 1141 833 1141H854C857.866 1141 861 1137.87 861 1134V1078C861 1074.13 857.866 1071 854 1071Z" stroke="#C1A36E" stroke-width="8"/>
<path d="M588 1291.5H567C563.134 1291.5 560 1294.63 560 1298.5V1459.5C560 1463.37 563.134 1466.5 567 1466.5H588C591.866 1466.5 595 1463.37 595 1459.5V1298.5C595 1294.63 591.866 1291.5 588 1291.5Z" stroke="#C1A36E" stroke-width="8"/>
<path d="M798 1326.5H623V1431.5H798V1326.5Z" stroke="#C1A36E" stroke-width="8"/>
<path d="M854 1344H833C829.134 1344 826 1347.13 826 1351V1407C826 1410.87 829.134 1414 833 1414H854C857.866 1414 861 1410.87 861 1407V1351C861 1347.13 857.866 1344 854 1344Z" stroke="#C1A36E" stroke-width="8"/>
<path d="M588 1564.5H567C563.134 1564.5 560 1567.63 560 1571.5V1732.5C560 1736.37 563.134 1739.5 567 1739.5H588C591.866 1739.5 595 1736.37 595 1732.5V1571.5C595 1567.63 591.866 1564.5 588 1564.5Z" stroke="#C1A36E" stroke-width="8"/>
<path d="M798 1599.5H623V1704.5H798V1599.5Z" stroke="#C1A36E" stroke-width="8"/>
<path d="M854 1617H833C829.134 1617 826 1620.13 826 1624V1680C826 1683.87 829.134 1687 833 1687H854C857.866 1687 861 1683.87 861 1680V1624C861 1620.13 857.866 1617 854 1617Z" stroke="#C1A36E" stroke-width="8"/>
<path d="M1750 350H1610V490H1750V350Z" stroke="#C1A36E" stroke-width="8"/>
<path d="M1701 287H1659C1655.13 287 1652 290.134 1652 294V322C1652 325.866 1655.13 329 1659 329H1701C1704.87 329 1708 325.866 1708 322V294C1708 290.134 1704.87 287 1701 287Z" stroke="#C1A36E" stroke-width="8"/>
<path d="M1701 511H1659C1655.13 511 1652 514.134 1652 518V546C1652 549.866 1655.13 553 1659 553H1701C1704.87 553 1708 549.866 1708 546V518C1708 514.134 1704.87 511 1701 511Z" stroke="#C1A36E" stroke-width="8"/>
<path d="M1582 392H1554C1550.13 392 1547 395.134 1547 399V441C1547 444.866 1550.13 448 1554 448H1582C1585.87 448 1589 444.866 1589 441V399C1589 395.134 1585.87 392 1582 392Z" stroke="#C1A36E" stroke-width="8"/>
<path d="M1806 392H1778C1774.13 392 1771 395.134 1771 399V441C1771 444.866 1774.13 448 1778 448H1806C1809.87 448 1813 444.866 1813 441V399C1813 395.134 1809.87 392 1806 392Z" stroke="#C1A36E" stroke-width="8"/>
<path d="M1278 737.5H1138V877.5H1278V737.5Z" stroke="#C1A36E" stroke-width="8"/>
<path d="M1229 674.5H1187C1183.13 674.5 1180 677.634 1180 681.5V709.5C1180 713.366 1183.13 716.5 1187 716.5H1229C1232.87 716.5 1236 713.366 1236 709.5V681.5C1236 677.634 1232.87 674.5 1229 674.5Z" stroke="#C1A36E" stroke-width="8"/>
<path d="M1229 898.5H1187C1183.13 898.5 1180 901.634 1180 905.5V933.5C1180 937.366 1183.13 940.5 1187 940.5H1229C1232.87 940.5 1236 937.366 1236 933.5V905.5C1236 901.634 1232.87 898.5 1229 898.5Z" stroke="#C1A36E" stroke-width="8"/>
<path d="M1110 779.5H1082C1078.13 779.5 1075 782.634 1075 786.5V828.5C1075 832.366 1078.13 835.5 1082 835.5H1110C1113.87 835.5 1117 832.366 1117 828.5V786.5C1117 782.634 1113.87 779.5 1110 779.5Z" stroke="#C1A36E" stroke-width="8"/>
<path d="M1334 779.5H1306C1302.13 779.5 1299 782.634 1299 786.5V828.5C1299 832.366 1302.13 835.5 1306 835.5H1334C1337.87 835.5 1341 832.366 1341 828.5V786.5C1341 782.634 1337.87 779.5 1334 779.5Z" stroke="#C1A36E" stroke-width="8"/>
<path d="M1750 735H1610V875H1750V735Z" stroke="#C1A36E" stroke-width="8"/>
<path d="M1701 672H1659C1655.13 672 1652 675.134 1652 679V707C1652 710.866 1655.13 714 1659 714H1701C1704.87 714 1708 710.866 1708 707V679C1708 675.134 1704.87 672 1701 672Z" stroke="#C1A36E" stroke-width="8"/>
<path d="M1701 896H1659C1655.13 896 1652 899.134 1652 903V931C1652 934.866 1655.13 938 1659 938H1701C1704.87 938 1708 934.866 1708 931V903C1708 899.134 1704.87 896 1701 896Z" stroke="#C1A36E" stroke-width="8"/>
<path d="M1582 777H1554C1550.13 777 1547 780.134 1547 784V826C1547 829.866 1550.13 833 1554 833H1582C1585.87 833 1589 829.866 1589 826V784C1589 780.134 1585.87 777 1582 777Z" stroke="#C1A36E" stroke-width="8"/>
<path d="M1806 777H1778C1774.13 777 1771 780.134 1771 784V826C1771 829.866 1774.13 833 1778 833H1806C1809.87 833 1813 829.866 1813 826V784C1813 780.134 1809.87 777 1806 777Z" stroke="#C1A36E" stroke-width="8"/>
<path d="M2202.5 427.5C2202.5 398.505 2178.99 375 2150 375C2121.01 375 2097.5 398.505 2097.5 427.5V497.5C2097.5 526.495 2121.01 550 2150 550C2178.99 550 2202.5 526.495 2202.5 497.5V427.5Z" stroke="#C1A36E" stroke-width="8"/>
<path d="M2055.5 483.5C2067.1 483.5 2076.5 474.098 2076.5 462.5C2076.5 450.902 2067.1 441.5 2055.5 441.5C2043.9 441.5 2034.5 450.902 2034.5 462.5C2034.5 474.098 2043.9 483.5 2055.5 483.5Z" stroke="#C1A36E" stroke-width="8"/>
<path d="M2244.5 483.5C2256.1 483.5 2265.5 474.098 2265.5 462.5C2265.5 450.902 2256.1 441.5 2244.5 441.5C2232.9 441.5 2223.5 450.902 2223.5 462.5C2223.5 474.098 2232.9 483.5 2244.5 483.5Z" stroke="#C1A36E" stroke-width="8"/>
<path d="M2202.5 742.5C2202.5 713.505 2178.99 690 2150 690C2121.01 690 2097.5 713.505 2097.5 742.5V812.5C2097.5 841.495 2121.01 865 2150 865C2178.99 865 2202.5 841.495 2202.5 812.5V742.5Z" stroke="#C1A36E" stroke-width="8"/>
<path d="M2055.5 798.5C2067.1 798.5 2076.5 789.098 2076.5 777.5C2076.5 765.902 2067.1 756.5 2055.5 756.5C2043.9 756.5 2034.5 765.902 2034.5 777.5C2034.5 789.098 2043.9 798.5 2055.5 798.5Z" stroke="#C1A36E" stroke-width="8"/>
<path d="M2244.5 798.5C2256.1 798.5 2265.5 789.098 2265.5 777.5C2265.5 765.902 2256.1 756.5 2244.5 756.5C2232.9 756.5 2223.5 765.902 2223.5 777.5C2223.5 789.098 2232.9 798.5 2244.5 798.5Z" stroke="#C1A36E" stroke-width="8"/>
<path d="M1498 1137.5H1477C1473.13 1137.5 1470 1140.63 1470 1144.5V1305.5C1470 1309.37 1473.13 1312.5 1477 1312.5H1498C1501.87 1312.5 1505 1309.37 1505 1305.5V1144.5C1505 1140.63 1501.87 1137.5 1498 1137.5Z" stroke="#C1A36E" stroke-width="8"/>
<path d="M1708 1172.5H1533V1277.5H1708V1172.5Z" stroke="#C1A36E" stroke-width="8"/>
<path d="M1764 1190H1743C1739.13 1190 1736 1193.13 1736 1197V1253C1736 1256.87 1739.13 1260 1743 1260H1764C1767.87 1260 1771 1256.87 1771 1253V1197C1771 1193.13 1767.87 1190 1764 1190Z" stroke="#C1A36E" stroke-width="8"/>
<path d="M1260 1137.5H1155V1347.5H1260V1137.5Z" stroke="#C1A36E" stroke-width="8"/>
<path d="M1095.5 1192C1107.1 1192 1116.5 1182.6 1116.5 1171C1116.5 1159.4 1107.1 1150 1095.5 1150C1083.9 1150 1074.5 1159.4 1074.5 1171C1074.5 1182.6 1083.9 1192 1095.5 1192Z" stroke="#C1A36E" stroke-width="8"/>
<path d="M1095.5 1262C1107.1 1262 1116.5 1252.6 1116.5 1241C1116.5 1229.4 1107.1 1220 1095.5 1220C1083.9 1220 1074.5 1229.4 1074.5 1241C1074.5 1252.6 1083.9 1262 1095.5 1262Z" stroke="#C1A36E" stroke-width="8"/>
<path d="M1095.5 1332C1107.1 1332 1116.5 1322.6 1116.5 1311C1116.5 1299.4 1107.1 1290 1095.5 1290C1083.9 1290 1074.5 1299.4 1074.5 1311C1074.5 1322.6 1083.9 1332 1095.5 1332Z" stroke="#C1A36E" stroke-width="8"/>
<path d="M1278 1505H1138V1645H1278V1505Z" stroke="#C1A36E" stroke-width="8"/>
<path d="M1229 1442H1187C1183.13 1442 1180 1445.13 1180 1449V1477C1180 1480.87 1183.13 1484 1187 1484H1229C1232.87 1484 1236 1480.87 1236 1477V1449C1236 1445.13 1232.87 1442 1229 1442Z" stroke="#C1A36E" stroke-width="8"/>
<path d="M1229 1666H1187C1183.13 1666 1180 1669.13 1180 1673V1701C1180 1704.87 1183.13 1708 1187 1708H1229C1232.87 1708 1236 1704.87 1236 1701V1673C1236 1669.13 1232.87 1666 1229 1666Z" stroke="#C1A36E" stroke-width="8"/>
<path d="M1110 1547H1082C1078.13 1547 1075 1550.13 1075 1554V1596C1075 1599.87 1078.13 1603 1082 1603H1110C1113.87 1603 1117 1599.87 1117 1596V1554C1117 1550.13 1113.87 1547 1110 1547Z" stroke="#C1A36E" stroke-width="8"/>
<path d="M1334 1547H1306C1302.13 1547 1299 1550.13 1299 1554V1596C1299 1599.87 1302.13 1603 1306 1603H1334C1337.87 1603 1341 1599.87 1341 1596V1554C1341 1550.13 1337.87 1547 1334 1547Z" stroke="#C1A36E" stroke-width="8"/>
<path d="M1645 1505H1505V1645H1645V1505Z" stroke="#C1A36E" stroke-width="8"/>
<path d="M1596 1442H1554C1550.13 1442 1547 1445.13 1547 1449V1477C1547 1480.87 1550.13 1484 1554 1484H1596C1599.87 1484 1603 1480.87 1603 1477V1449C1603 1445.13 1599.87 1442 1596 1442Z" stroke="#C1A36E" stroke-width="8"/>
<path d="M1596 1666H1554C1550.13 1666 1547 1669.13 1547 1673V1701C1547 1704.87 1550.13 1708 1554 1708H1596C1599.87 1708 1603 1704.87 1603 1701V1673C1603 1669.13 1599.87 1666 1596 1666Z" stroke="#C1A36E" stroke-width="8"/>
<path d="M1477 1547H1449C1445.13 1547 1442 1550.13 1442 1554V1596C1442 1599.87 1445.13 1603 1449 1603H1477C1480.87 1603 1484 1599.87 1484 1596V1554C1484 1550.13 1480.87 1547 1477 1547Z" stroke="#C1A36E" stroke-width="8"/>
<path d="M1701 1547H1673C1669.13 1547 1666 1550.13 1666 1554V1596C1666 1599.87 1669.13 1603 1673 1603H1701C1704.87 1603 1708 1599.87 1708 1596V1554C1708 1550.13 1704.87 1547 1701 1547Z" stroke="#C1A36E" stroke-width="8"/>
<path d="M2170 1154.5H2030V1294.5H2170V1154.5Z" stroke="#C1A36E" stroke-width="8"/>
<path d="M2121 1091.5H2079C2075.13 1091.5 2072 1094.63 2072 1098.5V1126.5C2072 1130.37 2075.13 1133.5 2079 1133.5H2121C2124.87 1133.5 2128 1130.37 2128 1126.5V1098.5C2128 1094.63 2124.87 1091.5 2121 1091.5Z" stroke="#C1A36E" stroke-width="8"/>
<path d="M2121 1315.5H2079C2075.13 1315.5 2072 1318.63 2072 1322.5V1350.5C2072 1354.37 2075.13 1357.5 2079 1357.5H2121C2124.87 1357.5 2128 1354.37 2128 1350.5V1322.5C2128 1318.63 2124.87 1315.5 2121 1315.5Z" stroke="#C1A36E" stroke-width="8"/>
<path d="M2002 1196.5H1974C1970.13 1196.5 1967 1199.63 1967 1203.5V1245.5C1967 1249.37 1970.13 1252.5 1974 1252.5H2002C2005.87 1252.5 2009 1249.37 2009 1245.5V1203.5C2009 1199.63 2005.87 1196.5 2002 1196.5Z" stroke="#C1A36E" stroke-width="8"/>
<path d="M2226 1196.5H2198C2194.13 1196.5 2191 1199.63 2191 1203.5V1245.5C2191 1249.37 2194.13 1252.5 2198 1252.5H2226C2229.87 1252.5 2233 1249.37 2233 1245.5V1203.5C2233 1199.63 2229.87 1196.5 2226 1196.5Z" stroke="#C1A36E" stroke-width="8"/>
<path d="M2228 1692.5H2207C2203.13 1692.5 2200 1695.63 2200 1699.5V1860.5C2200 1864.37 2203.13 1867.5 2207 1867.5H2228C2231.87 1867.5 2235 1864.37 2235 1860.5V1699.5C2235 1695.63 2231.87 1692.5 2228 1692.5Z" stroke="#C1A36E" stroke-width="8"/>
<path d="M2158 1727.5H1983V1832.5H2158V1727.5Z" stroke="#C1A36E" stroke-width="8"/>
<path d="M1948 1745H1927C1923.13 1745 1920 1748.13 1920 1752V1808C1920 1811.87 1923.13 1815 1927 1815H1948C1951.87 1815 1955 1811.87 1955 1808V1752C1955 1748.13 1951.87 1745 1948 1745Z" stroke="#C1A36E" stroke-width="8"/>
<path d="M588 1732.5H567C563.134 1732.5 560 1735.63 560 1739.5V1900.5C560 1904.37 563.134 1907.5 567 1907.5H588C591.866 1907.5 595 1904.37 595 1900.5V1739.5C595 1735.63 591.866 1732.5 588 1732.5Z" stroke="#C1A36E" stroke-width="8"/>
<path d="M798 1767.5H623V1872.5H798V1767.5Z" stroke="#C1A36E" stroke-width="8"/>
<path d="M854 1785H833C829.134 1785 826 1788.13 826 1792V1848C826 1851.87 829.134 1855 833 1855H854C857.866 1855 861 1851.87 861 1848V1792C861 1788.13 857.866 1785 854 1785Z" stroke="#C1A36E" stroke-width="8"/>
<path d="M665 1505V1547M700 1505V1547M735 1505V1547M770 1505V1547M805 1505V1547M647.5 1505H822.5V1547H647.5V1505Z" stroke="#C1A36E" stroke-width="8"/>
</svg>
