<svg width="1750" height="2100" viewBox="0 0 1750 2100" fill="none" xmlns="http://www.w3.org/2000/svg">
<path d="M1595.5 104H155.5C133.409 104 115.5 121.909 115.5 144V239C115.5 261.091 133.409 279 155.5 279H1595.5C1617.59 279 1635.5 261.091 1635.5 239V144C1635.5 121.909 1617.59 104 1595.5 104Z" stroke="#C1A36E" stroke-opacity="0.25" stroke-width="8"/>
<path d="M576 385H296V455H576V385Z" stroke="#C1A36E" stroke-width="8"/>
<path d="M576.5 483H307V553H576.5V483Z" stroke="#C1A36E" stroke-width="8"/>
<path d="M576 581H317V651H576V581Z" stroke="#C1A36E" stroke-width="8"/>
<path d="M576.5 679H328V749H576.5V679Z" stroke="#C1A36E" stroke-width="8"/>
<path d="M576 777H338V847H576V777Z" stroke="#C1A36E" stroke-width="8"/>
<path d="M576.5 875H349V945H576.5V875Z" stroke="#C1A36E" stroke-width="8"/>
<path d="M576 973H359V1043H576V973Z" stroke="#C1A36E" stroke-width="8"/>
<path d="M576.5 1070.5H370V1140.5H576.5V1070.5Z" stroke="#C1A36E" stroke-width="8"/>
<path d="M576.5 1250.5H370V1320.5H576.5V1250.5Z" stroke="#C1A36E" stroke-width="8"/>
<path d="M576.5 1360.5H370V1430.5H576.5V1360.5Z" stroke="#C1A36E" stroke-width="8"/>
<path d="M576.5 1470.5H370V1540.5H576.5V1470.5Z" stroke="#C1A36E" stroke-width="8"/>
<path d="M619 1650.5H442V1720.5H619V1650.5Z" stroke="#C1A36E" stroke-width="8"/>
<path d="M619 1760.5H442V1830.5H619V1760.5Z" stroke="#C1A36E" stroke-width="8"/>
<path d="M619 1870.5H442V1940.5H619V1870.5Z" stroke="#C1A36E" stroke-width="8"/>
<path d="M1120 385H630V455H1120V385Z" stroke="#C1A36E" stroke-width="8"/>
<path d="M1113 483H637V553H1113V483Z" stroke="#C1A36E" stroke-width="8"/>
<path d="M1106 581H644V651H1106V581Z" stroke="#C1A36E" stroke-width="8"/>
<path d="M1099 679H651V749H1099V679Z" stroke="#C1A36E" stroke-width="8"/>
<path d="M1099 776.5H651V846.5H1099V776.5Z" stroke="#C1A36E" stroke-width="8"/>
<path d="M1099 874.5H651V944.5H1099V874.5Z" stroke="#C1A36E" stroke-width="8"/>
<path d="M1099 972.5H651V1042.5H1099V972.5Z" stroke="#C1A36E" stroke-width="8"/>
<path d="M1099 1070.5H651V1140.5H1099V1070.5Z" stroke="#C1A36E" stroke-width="8"/>
<path d="M1099 1250.5H651V1320.5H1099V1250.5Z" stroke="#C1A36E" stroke-width="8"/>
<path d="M1099 1360.5H651V1430.5H1099V1360.5Z" stroke="#C1A36E" stroke-width="8"/>
<path d="M1099 1470.5H651V1540.5H1099V1470.5Z" stroke="#C1A36E" stroke-width="8"/>
<path d="M1067 1650.5H683V1720.5H1067V1650.5Z" stroke="#C1A36E" stroke-width="8"/>
<path d="M1067 1760.5H683V1830.5H1067V1760.5Z" stroke="#C1A36E" stroke-width="8"/>
<path d="M1067 1870.5H683V1940.5H1067V1870.5Z" stroke="#C1A36E" stroke-width="8"/>
<path d="M1454 385H1174V455H1454V385Z" stroke="#C1A36E" stroke-width="8"/>
<path d="M1443.5 483H1174V553H1443.5V483Z" stroke="#C1A36E" stroke-width="8"/>
<path d="M1433 581H1174V651H1433V581Z" stroke="#C1A36E" stroke-width="8"/>
<path d="M1422.5 679H1174V749H1422.5V679Z" stroke="#C1A36E" stroke-width="8"/>
<path d="M1412 777H1174V847H1412V777Z" stroke="#C1A36E" stroke-width="8"/>
<path d="M1401.5 875H1174V945H1401.5V875Z" stroke="#C1A36E" stroke-width="8"/>
<path d="M1391 973H1174V1043H1391V973Z" stroke="#C1A36E" stroke-width="8"/>
<path d="M1380.5 1070.5H1174V1140.5H1380.5V1070.5Z" stroke="#C1A36E" stroke-width="8"/>
<path d="M1380.5 1250.5H1174V1320.5H1380.5V1250.5Z" stroke="#C1A36E" stroke-width="8"/>
<path d="M1380.5 1360.5H1174V1430.5H1380.5V1360.5Z" stroke="#C1A36E" stroke-width="8"/>
<path d="M1380.5 1470.5H1174V1540.5H1380.5V1470.5Z" stroke="#C1A36E" stroke-width="8"/>
<path d="M1308 1650.5H1131V1720.5H1308V1650.5Z" stroke="#C1A36E" stroke-width="8"/>
<path d="M1308 1760.5H1131V1830.5H1308V1760.5Z" stroke="#C1A36E" stroke-width="8"/>
<path d="M1308 1870.5H1131V1940.5H1308V1870.5Z" stroke="#C1A36E" stroke-width="8"/>
</svg>
