<svg width="149" height="149" viewBox="0 0 149 149" fill="none" xmlns="http://www.w3.org/2000/svg">
<path fill-rule="evenodd" clip-rule="evenodd" d="M31.3356 110.748L35.3539 117.701V117.711H113.615L117.533 110.757H39.3651L42.38 105.537H120.633L124.651 98.5927H46.3913L49.401 93.382H99.5559L99.5609 93.3913L99.5665 93.382H127.646L127.651 93.3913L131.669 86.4374V86.4281L92.5566 18.667L92.5703 18.6434H92.543H84.5435L31.3356 110.748ZM88.5374 25.6259L85.5207 30.8484L117.61 86.4281H123.632L88.5374 25.6259ZM81.507 37.7968L78.5153 42.9772L103.524 86.2996L103.452 86.4281H109.584L81.507 37.7968ZM74.4997 49.929L53.4175 86.4281H95.546L74.4997 49.929ZM43.4483 20.4879C45.5612 19.2671 47.9585 18.6246 50.3987 18.625L14.2815 81.1901C13.06 79.0762 12.417 76.6779 12.417 74.2361C12.417 71.795 13.06 69.3967 14.2815 67.2828L38.3626 25.5787C39.5811 23.4645 41.3353 21.7086 43.4483 20.4879ZM56.4259 18.625H64.4528L21.3088 93.3634L17.2905 86.4101L56.4259 18.625ZM70.4705 18.625H78.4886L28.3266 105.519L24.3178 98.574L70.4705 18.625ZM134.761 81.0796C135.955 79.0035 136.584 76.6499 136.584 74.2548C136.584 71.859 135.955 69.506 134.761 67.4293L110.533 25.4686C109.334 23.3936 107.61 21.6706 105.534 20.4726C103.458 19.2746 101.104 18.6437 98.7079 18.6434H98.552L134.678 81.2174L134.761 81.0796ZM110.506 122.921H38.3626C39.5767 125.043 41.3287 126.807 43.4418 128.036C45.5548 129.265 47.9544 129.914 50.3987 129.921H98.6067C101.033 129.916 103.414 129.265 105.505 128.035C107.596 126.805 109.322 125.04 110.506 122.921Z" fill="#C1A36E"></path>
</svg>